<svg xmlns="http://www.w3.org/2000/svg" xmlns:xlink="http://www.w3.org/1999/xlink" width="500" zoomAndPan="magnify" viewBox="0 0 375 374.999991" height="500" preserveAspectRatio="xMidYMid meet" version="1.0"><path fill="#ffffff" d="M 187.484375 3.90625 C 83.953125 3.90625 0 87.859375 0 191.421875 C 0 274.25 53.71875 344.53125 128.234375 369.328125 C 137.609375 371.046875 141.03125 365.265625 141.03125 360.296875 C 141.03125 355.84375 140.875 344.046875 140.78125 328.40625 C 88.625 339.734375 77.625 303.265625 77.625 303.265625 C 69.09375 281.609375 56.8125 275.84375 56.8125 275.84375 C 39.78125 264.203125 58.09375 264.453125 58.09375 264.453125 C 76.90625 265.78125 86.8125 283.78125 86.8125 283.78125 C 103.53125 312.4375 130.703125 304.15625 141.375 299.359375 C 143.078125 287.25 147.921875 278.984375 153.28125 274.296875 C 111.640625 269.5625 67.875 253.484375 67.875 181.625 C 67.875 161.15625 75.1875 144.421875 87.171875 131.3125 C 85.25 126.5625 78.8125 107.5 89.015625 81.6875 C 89.015625 81.6875 104.765625 76.640625 140.578125 100.90625 C 155.53125 96.75 171.578125 94.671875 187.515625 94.59375 C 203.4375 94.671875 219.484375 96.75 234.453125 100.90625 C 270.25 76.640625 285.96875 81.6875 285.96875 81.6875 C 296.203125 107.5 289.765625 126.5625 287.828125 131.3125 C 299.84375 144.421875 307.09375 161.15625 307.09375 181.625 C 307.09375 253.65625 263.25 269.5 221.484375 274.140625 C 228.21875 279.921875 234.21875 291.375 234.21875 308.859375 C 234.21875 333.921875 233.984375 354.140625 233.984375 360.296875 C 233.984375 365.3125 237.359375 371.140625 246.875 369.3125 C 321.328125 344.453125 375 274.234375 375 191.421875 C 375 87.859375 291.046875 3.90625 187.484375 3.90625 Z M 187.484375 3.90625 " fill-opacity="1" fill-rule="evenodd"/></svg>