<svg xmlns="http://www.w3.org/2000/svg" xmlns:xlink="http://www.w3.org/1999/xlink" width="1000" zoomAndPan="magnify" viewBox="0 0 750 749.999995" height="1000" preserveAspectRatio="xMidYMid meet" version="1.0"><defs><clipPath id="id1"><path d="M 0 75 L 750 75 L 750 523 L 0 523 Z M 0 75 " clip-rule="nonzero"/></clipPath><clipPath id="id2"><path d="M 1.632812 277.578125 C -21.632812 343.457031 9.871094 416.28125 73.007812 446.125 C 121.6875 469.140625 205.757812 501.285156 319.78125 516.773438 C 508.480469 542.402344 679.320312 478.460938 725.375 390.128906 C 771.429688 301.800781 760.910156 172.46875 624.296875 110.035156 C 487.679688 47.597656 289.980469 75.84375 252.769531 145.710938 C 215.554688 215.578125 150.257812 216.359375 70.132812 218.199219 C 36.746094 218.964844 13.402344 244.242188 1.632812 277.578125 Z M 1.632812 277.578125 " clip-rule="nonzero"/></clipPath><clipPath id="id3"><path d="M 87 75 L 167 75 L 167 523 L 87 523 Z M 87 75 " clip-rule="nonzero"/></clipPath><clipPath id="id4"><path d="M 1.632812 277.578125 C -21.632812 343.457031 9.871094 416.28125 73.007812 446.125 C 121.6875 469.140625 205.757812 501.285156 319.78125 516.773438 C 508.480469 542.402344 679.320312 478.460938 725.375 390.128906 C 771.429688 301.800781 760.910156 172.46875 624.296875 110.035156 C 487.679688 47.597656 289.980469 75.84375 252.769531 145.710938 C 215.554688 215.578125 150.257812 216.359375 70.132812 218.199219 C 36.746094 218.964844 13.402344 244.242188 1.632812 277.578125 Z M 1.632812 277.578125 " clip-rule="nonzero"/></clipPath><clipPath id="id5"><path d="M 186 377 L 320 377 L 320 523 L 186 523 Z M 186 377 " clip-rule="nonzero"/></clipPath><clipPath id="id6"><path d="M 1.632812 277.578125 C -21.632812 343.457031 9.871094 416.28125 73.007812 446.125 C 121.6875 469.140625 205.757812 501.285156 319.78125 516.773438 C 508.480469 542.402344 679.320312 478.460938 725.375 390.128906 C 771.429688 301.800781 760.910156 172.46875 624.296875 110.035156 C 487.679688 47.597656 289.980469 75.84375 252.769531 145.710938 C 215.554688 215.578125 150.257812 216.359375 70.132812 218.199219 C 36.746094 218.964844 13.402344 244.242188 1.632812 277.578125 Z M 1.632812 277.578125 " clip-rule="nonzero"/></clipPath><clipPath id="id7"><path d="M 372 75 L 642 75 L 642 288 L 372 288 Z M 372 75 " clip-rule="nonzero"/></clipPath><clipPath id="id8"><path d="M 1.632812 277.578125 C -21.632812 343.457031 9.871094 416.28125 73.007812 446.125 C 121.6875 469.140625 205.757812 501.285156 319.78125 516.773438 C 508.480469 542.402344 679.320312 478.460938 725.375 390.128906 C 771.429688 301.800781 760.910156 172.46875 624.296875 110.035156 C 487.679688 47.597656 289.980469 75.84375 252.769531 145.710938 C 215.554688 215.578125 150.257812 216.359375 70.132812 218.199219 C 36.746094 218.964844 13.402344 244.242188 1.632812 277.578125 Z M 1.632812 277.578125 " clip-rule="nonzero"/></clipPath><clipPath id="id9"><path d="M 386 75 L 628 75 L 628 272 L 386 272 Z M 386 75 " clip-rule="nonzero"/></clipPath><clipPath id="id10"><path d="M 1.632812 277.578125 C -21.632812 343.457031 9.871094 416.28125 73.007812 446.125 C 121.6875 469.140625 205.757812 501.285156 319.78125 516.773438 C 508.480469 542.402344 679.320312 478.460938 725.375 390.128906 C 771.429688 301.800781 760.910156 172.46875 624.296875 110.035156 C 487.679688 47.597656 289.980469 75.84375 252.769531 145.710938 C 215.554688 215.578125 150.257812 216.359375 70.132812 218.199219 C 36.746094 218.964844 13.402344 244.242188 1.632812 277.578125 Z M 1.632812 277.578125 " clip-rule="nonzero"/></clipPath><clipPath id="id11"><path d="M 499 75 L 514 75 L 514 288 L 499 288 Z M 499 75 " clip-rule="nonzero"/></clipPath><clipPath id="id12"><path d="M 1.632812 277.578125 C -21.632812 343.457031 9.871094 416.28125 73.007812 446.125 C 121.6875 469.140625 205.757812 501.285156 319.78125 516.773438 C 508.480469 542.402344 679.320312 478.460938 725.375 390.128906 C 771.429688 301.800781 760.910156 172.46875 624.296875 110.035156 C 487.679688 47.597656 289.980469 75.84375 252.769531 145.710938 C 215.554688 215.578125 150.257812 216.359375 70.132812 218.199219 C 36.746094 218.964844 13.402344 244.242188 1.632812 277.578125 Z M 1.632812 277.578125 " clip-rule="nonzero"/></clipPath></defs><g clip-path="url(#id1)"><g clip-path="url(#id2)"><path fill="#f4f4fd" d="M 0.03125 51.808594 L 750 51.808594 L 750 628.015625 L 0.03125 628.015625 Z M 0.03125 51.808594 " fill-opacity="1" fill-rule="nonzero"/></g></g><g clip-path="url(#id3)"><g clip-path="url(#id4)"><path fill="#dad9e7" d="M 87.957031 51.808594 L 166.367188 51.808594 L 166.367188 531.15625 L 87.957031 531.15625 Z M 87.957031 51.808594 " fill-opacity="1" fill-rule="nonzero"/></g></g><g clip-path="url(#id5)"><g clip-path="url(#id6)"><path fill="#dad9e7" d="M 319.90625 531.15625 L 186.222656 531.15625 L 186.222656 377.511719 L 319.90625 377.511719 Z M 319.90625 531.15625 " fill-opacity="1" fill-rule="nonzero"/></g></g><g clip-path="url(#id7)"><g clip-path="url(#id8)"><path fill="#dad9e7" d="M 372.089844 51.808594 L 641.25 51.808594 L 641.25 287.789062 L 372.089844 287.789062 Z M 372.089844 51.808594 " fill-opacity="1" fill-rule="nonzero"/></g></g><g clip-path="url(#id9)"><g clip-path="url(#id10)"><path fill="#dad9e7" d="M 386.226562 51.808594 L 627.113281 51.808594 L 627.113281 271.429688 L 386.226562 271.429688 Z M 386.226562 51.808594 " fill-opacity="1" fill-rule="nonzero"/><path fill="#f4f4fd" d="M 386.226562 51.808594 L 627.113281 51.808594 L 627.113281 271.429688 L 386.226562 271.429688 Z M 386.226562 51.808594 " fill-opacity="1" fill-rule="nonzero"/></g></g><g clip-path="url(#id11)"><g clip-path="url(#id12)"><path fill="#dad9e7" d="M 499.601562 51.808594 L 513.738281 51.808594 L 513.738281 287.789062 L 499.601562 287.789062 Z M 499.601562 51.808594 " fill-opacity="1" fill-rule="nonzero"/></g></g><path stroke-linecap="butt" transform="matrix(1.542892, 0, 0, 1.543898, -13.731738, 68.424362)" fill-opacity="1" fill="#ffffff" fill-rule="nonzero" stroke-linejoin="miter" d="M 132.721315 189.942284 L 132.721315 218.33279 C 132.721315 223.016047 128.92619 226.80364 124.252541 226.80364 L 46.830988 226.80364 C 42.154807 226.80364 38.362215 223.016047 38.362215 218.33279 L 38.362215 189.942284 Z M 132.721315 189.942284 " stroke="#1c2e3f" stroke-width="1" stroke-opacity="1" stroke-miterlimit="10"/><path stroke-linecap="butt" transform="matrix(1.542892, 0, 0, 1.543898, -13.731738, 68.424362)" fill-opacity="1" fill="#d25455" fill-rule="nonzero" stroke-linejoin="miter" d="M 132.721315 169.286363 L 132.721315 189.942284 L 38.362215 189.942284 L 38.362215 169.286363 C 38.362215 164.610696 42.154807 160.815512 46.830988 160.815512 L 124.252541 160.815512 C 128.92619 160.815512 132.721315 164.610696 132.721315 169.286363 Z M 132.721315 169.286363 " stroke="#1c2e3f" stroke-width="1" stroke-opacity="1" stroke-miterlimit="10"/><path stroke-linecap="round" transform="matrix(1.542892, 0, 0, 1.543898, -13.731738, 68.424362)" fill="none" stroke-linejoin="round" d="M 60.132912 157.936233 L 60.132912 164.319732 " stroke="#1c2e3f" stroke-width="4" stroke-opacity="1" stroke-miterlimit="4"/><path stroke-linecap="round" transform="matrix(1.542892, 0, 0, 1.543898, -13.731738, 68.424362)" fill="none" stroke-linejoin="round" d="M 110.950617 157.936233 L 110.950617 164.319732 " stroke="#1c2e3f" stroke-width="4" stroke-opacity="1" stroke-miterlimit="4"/><path fill="#1996f2" d="M 73.378906 377.730469 L 84.710938 377.730469 C 85.144531 377.730469 85.558594 377.8125 85.953125 377.976562 C 86.351562 378.140625 86.703125 378.375 87.007812 378.679688 C 87.3125 378.984375 87.546875 379.335938 87.710938 379.734375 C 87.875 380.132812 87.957031 380.546875 87.957031 380.976562 C 87.957031 381.40625 87.875 381.820312 87.710938 382.21875 C 87.546875 382.617188 87.3125 382.96875 87.007812 383.273438 C 86.703125 383.578125 86.351562 383.8125 85.953125 383.976562 C 85.558594 384.144531 85.144531 384.226562 84.710938 384.226562 L 73.378906 384.226562 C 72.949219 384.226562 72.535156 384.144531 72.136719 383.976562 C 71.738281 383.8125 71.386719 383.578125 71.082031 383.273438 C 70.777344 382.96875 70.542969 382.617188 70.378906 382.21875 C 70.214844 381.820312 70.132812 381.40625 70.132812 380.976562 C 70.132812 380.546875 70.214844 380.132812 70.378906 379.734375 C 70.542969 379.335938 70.777344 378.984375 71.082031 378.679688 C 71.386719 378.375 71.738281 378.140625 72.136719 377.976562 C 72.535156 377.8125 72.949219 377.730469 73.378906 377.730469 Z M 73.378906 377.730469 " fill-opacity="1" fill-rule="nonzero"/><path fill="#1996f2" d="M 73.378906 390.804688 L 84.710938 390.804688 C 85.144531 390.804688 85.558594 390.886719 85.953125 391.054688 C 86.351562 391.21875 86.703125 391.453125 87.007812 391.757812 C 87.3125 392.0625 87.546875 392.414062 87.710938 392.8125 C 87.875 393.207031 87.957031 393.625 87.957031 394.054688 C 87.957031 394.484375 87.875 394.898438 87.710938 395.296875 C 87.546875 395.695312 87.3125 396.046875 87.007812 396.351562 C 86.703125 396.65625 86.351562 396.890625 85.953125 397.054688 C 85.558594 397.21875 85.144531 397.300781 84.710938 397.300781 L 73.378906 397.300781 C 72.949219 397.300781 72.535156 397.21875 72.136719 397.054688 C 71.738281 396.890625 71.386719 396.65625 71.082031 396.351562 C 70.777344 396.046875 70.542969 395.695312 70.378906 395.296875 C 70.214844 394.898438 70.132812 394.484375 70.132812 394.054688 C 70.132812 393.625 70.214844 393.207031 70.378906 392.8125 C 70.542969 392.414062 70.777344 392.0625 71.082031 391.757812 C 71.386719 391.453125 71.738281 391.21875 72.136719 391.054688 C 72.535156 390.886719 72.949219 390.804688 73.378906 390.804688 Z M 73.378906 390.804688 " fill-opacity="1" fill-rule="nonzero"/><path fill="#1996f2" d="M 112.582031 377.730469 L 123.914062 377.730469 C 124.347656 377.730469 124.761719 377.8125 125.15625 377.976562 C 125.554688 378.140625 125.90625 378.375 126.210938 378.679688 C 126.515625 378.984375 126.75 379.335938 126.914062 379.734375 C 127.078125 380.132812 127.164062 380.546875 127.164062 380.976562 C 127.164062 381.40625 127.078125 381.820312 126.914062 382.21875 C 126.75 382.617188 126.515625 382.96875 126.210938 383.273438 C 125.90625 383.578125 125.554688 383.8125 125.15625 383.976562 C 124.761719 384.144531 124.347656 384.226562 123.914062 384.226562 L 112.582031 384.226562 C 112.152344 384.226562 111.738281 384.144531 111.339844 383.976562 C 110.941406 383.8125 110.589844 383.578125 110.285156 383.273438 C 109.980469 382.96875 109.746094 382.617188 109.582031 382.21875 C 109.417969 381.820312 109.335938 381.40625 109.335938 380.976562 C 109.335938 380.546875 109.417969 380.132812 109.582031 379.734375 C 109.746094 379.335938 109.980469 378.984375 110.285156 378.679688 C 110.589844 378.375 110.941406 378.140625 111.339844 377.976562 C 111.738281 377.8125 112.152344 377.730469 112.582031 377.730469 Z M 112.582031 377.730469 " fill-opacity="1" fill-rule="nonzero"/><path fill="#1996f2" d="M 112.582031 390.804688 L 123.914062 390.804688 C 124.347656 390.804688 124.761719 390.886719 125.15625 391.054688 C 125.554688 391.21875 125.90625 391.453125 126.210938 391.757812 C 126.515625 392.0625 126.75 392.414062 126.914062 392.8125 C 127.078125 393.207031 127.164062 393.625 127.164062 394.054688 C 127.164062 394.484375 127.078125 394.898438 126.914062 395.296875 C 126.75 395.695312 126.515625 396.046875 126.210938 396.351562 C 125.90625 396.65625 125.554688 396.890625 125.15625 397.054688 C 124.761719 397.21875 124.347656 397.300781 123.914062 397.300781 L 112.582031 397.300781 C 112.152344 397.300781 111.738281 397.21875 111.339844 397.054688 C 110.941406 396.890625 110.589844 396.65625 110.285156 396.351562 C 109.980469 396.046875 109.746094 395.695312 109.582031 395.296875 C 109.417969 394.898438 109.335938 394.484375 109.335938 394.054688 C 109.335938 393.625 109.417969 393.207031 109.582031 392.8125 C 109.746094 392.414062 109.980469 392.0625 110.285156 391.757812 C 110.589844 391.453125 110.941406 391.21875 111.339844 391.054688 C 111.738281 390.886719 112.152344 390.804688 112.582031 390.804688 Z M 112.582031 390.804688 " fill-opacity="1" fill-rule="nonzero"/><path fill="#1996f2" d="M 151.785156 377.730469 L 163.121094 377.730469 C 163.550781 377.730469 163.964844 377.8125 164.363281 377.976562 C 164.757812 378.140625 165.109375 378.375 165.414062 378.679688 C 165.71875 378.984375 165.953125 379.335938 166.117188 379.734375 C 166.28125 380.132812 166.367188 380.546875 166.367188 380.976562 C 166.367188 381.40625 166.28125 381.820312 166.117188 382.21875 C 165.953125 382.617188 165.71875 382.96875 165.414062 383.273438 C 165.109375 383.578125 164.757812 383.8125 164.363281 383.976562 C 163.964844 384.144531 163.550781 384.226562 163.121094 384.226562 L 151.785156 384.226562 C 151.355469 384.226562 150.941406 384.144531 150.542969 383.976562 C 150.144531 383.8125 149.792969 383.578125 149.488281 383.273438 C 149.183594 382.96875 148.949219 382.617188 148.785156 382.21875 C 148.621094 381.820312 148.539062 381.40625 148.539062 380.976562 C 148.539062 380.546875 148.621094 380.132812 148.785156 379.734375 C 148.949219 379.335938 149.183594 378.984375 149.488281 378.679688 C 149.792969 378.375 150.144531 378.140625 150.542969 377.976562 C 150.941406 377.8125 151.355469 377.730469 151.785156 377.730469 Z M 151.785156 377.730469 " fill-opacity="1" fill-rule="nonzero"/><path fill="#1996f2" d="M 151.785156 390.804688 L 163.121094 390.804688 C 163.550781 390.804688 163.964844 390.886719 164.363281 391.054688 C 164.757812 391.21875 165.109375 391.453125 165.414062 391.757812 C 165.71875 392.0625 165.953125 392.414062 166.117188 392.8125 C 166.28125 393.207031 166.367188 393.625 166.367188 394.054688 C 166.367188 394.484375 166.28125 394.898438 166.117188 395.296875 C 165.953125 395.695312 165.71875 396.046875 165.414062 396.351562 C 165.109375 396.65625 164.757812 396.890625 164.363281 397.054688 C 163.964844 397.21875 163.550781 397.300781 163.121094 397.300781 L 151.785156 397.300781 C 151.355469 397.300781 150.941406 397.21875 150.542969 397.054688 C 150.144531 396.890625 149.792969 396.65625 149.488281 396.351562 C 149.183594 396.046875 148.949219 395.695312 148.785156 395.296875 C 148.621094 394.898438 148.539062 394.484375 148.539062 394.054688 C 148.539062 393.625 148.621094 393.207031 148.785156 392.8125 C 148.949219 392.414062 149.183594 392.0625 149.488281 391.757812 C 149.792969 391.453125 150.144531 391.21875 150.542969 391.054688 C 150.941406 390.886719 151.355469 390.804688 151.785156 390.804688 Z M 151.785156 390.804688 " fill-opacity="1" fill-rule="nonzero"/><path stroke-linecap="round" transform="matrix(1.542892, 0, 0, 1.543898, -13.731738, 68.424362)" fill="none" stroke-linejoin="round" d="M 87.412743 232.468585 C 87.412743 232.468585 88.42292 247.980767 103.828746 246.482934 " stroke="#1c2e3f" stroke-width="1" stroke-opacity="1" stroke-miterlimit="4"/><path stroke-linecap="round" transform="matrix(1.542892, 0, 0, 1.543898, -13.731738, 68.424362)" fill="none" stroke-linejoin="round" d="M 97.408175 151.302251 C 97.408175 151.302251 101.258998 135.645853 113.029201 132.865248 " stroke="#1c2e3f" stroke-width="1" stroke-opacity="1" stroke-miterlimit="4"/><path stroke-linecap="butt" transform="matrix(1.542892, 0, 0, 1.543898, -13.731738, 68.424362)" fill-opacity="1" fill="#ffffff" fill-rule="nonzero" stroke-linejoin="miter" d="M 185.331513 80.102071 L 185.331513 109.666554 C 185.331513 113.699569 182.055402 116.973548 178.022291 116.973548 L 93.8561 116.973548 C 89.822989 116.973548 86.546878 113.699569 86.546878 109.666554 L 86.546878 80.102071 Z M 185.331513 80.102071 " stroke="#1c2e3f" stroke-width="1" stroke-opacity="1" stroke-miterlimit="10"/><path fill="#d25455" d="M 138.679688 205.167969 L 148.457031 205.167969 C 148.828125 205.167969 149.1875 205.238281 149.53125 205.378906 C 149.871094 205.523438 150.175781 205.726562 150.4375 205.988281 C 150.699219 206.25 150.902344 206.554688 151.046875 206.898438 C 151.1875 207.242188 151.257812 207.597656 151.257812 207.96875 C 151.257812 208.34375 151.1875 208.699219 151.046875 209.042969 C 150.902344 209.386719 150.699219 209.6875 150.4375 209.953125 C 150.175781 210.214844 149.871094 210.417969 149.53125 210.558594 C 149.1875 210.703125 148.828125 210.773438 148.457031 210.773438 L 138.679688 210.773438 C 138.308594 210.773438 137.949219 210.703125 137.605469 210.558594 C 137.261719 210.417969 136.960938 210.214844 136.695312 209.953125 C 136.433594 209.6875 136.230469 209.386719 136.089844 209.042969 C 135.949219 208.699219 135.875 208.34375 135.875 207.96875 C 135.875 207.597656 135.949219 207.242188 136.089844 206.898438 C 136.230469 206.554688 136.433594 206.25 136.695312 205.988281 C 136.960938 205.726562 137.261719 205.523438 137.605469 205.378906 C 137.949219 205.238281 138.308594 205.167969 138.679688 205.167969 Z M 138.679688 205.167969 " fill-opacity="1" fill-rule="nonzero"/><path fill="#d25455" d="M 138.679688 216.453125 L 148.457031 216.453125 C 148.828125 216.453125 149.1875 216.523438 149.53125 216.664062 C 149.871094 216.808594 150.175781 217.011719 150.4375 217.273438 C 150.699219 217.535156 150.902344 217.839844 151.046875 218.183594 C 151.1875 218.523438 151.257812 218.882812 151.257812 219.253906 C 151.257812 219.625 151.1875 219.984375 151.046875 220.328125 C 150.902344 220.671875 150.699219 220.972656 150.4375 221.238281 C 150.175781 221.5 149.871094 221.703125 149.53125 221.84375 C 149.1875 221.988281 148.828125 222.058594 148.457031 222.058594 L 138.679688 222.058594 C 138.308594 222.058594 137.949219 221.988281 137.605469 221.84375 C 137.261719 221.703125 136.960938 221.5 136.695312 221.238281 C 136.433594 220.972656 136.230469 220.671875 136.089844 220.328125 C 135.949219 219.984375 135.875 219.625 135.875 219.253906 C 135.875 218.882812 135.949219 218.523438 136.089844 218.183594 C 136.230469 217.839844 136.433594 217.535156 136.695312 217.273438 C 136.960938 217.011719 137.261719 216.808594 137.605469 216.664062 C 137.949219 216.523438 138.308594 216.453125 138.679688 216.453125 Z M 138.679688 216.453125 " fill-opacity="1" fill-rule="nonzero"/><path fill="#d25455" d="M 138.679688 227.734375 L 148.457031 227.734375 C 148.828125 227.734375 149.1875 227.804688 149.53125 227.949219 C 149.871094 228.089844 150.175781 228.292969 150.4375 228.554688 C 150.699219 228.816406 150.902344 229.121094 151.046875 229.464844 C 151.1875 229.808594 151.257812 230.164062 151.257812 230.539062 C 151.257812 230.910156 151.1875 231.265625 151.046875 231.609375 C 150.902344 231.953125 150.699219 232.257812 150.4375 232.519531 C 150.175781 232.78125 149.871094 232.984375 149.53125 233.128906 C 149.1875 233.269531 148.828125 233.339844 148.457031 233.339844 L 138.679688 233.339844 C 138.308594 233.339844 137.949219 233.269531 137.605469 233.128906 C 137.261719 232.984375 136.960938 232.78125 136.695312 232.519531 C 136.433594 232.257812 136.230469 231.953125 136.089844 231.609375 C 135.949219 231.265625 135.875 230.910156 135.875 230.539062 C 135.875 230.164062 135.949219 229.808594 136.089844 229.464844 C 136.230469 229.121094 136.433594 228.816406 136.695312 228.554688 C 136.960938 228.292969 137.261719 228.089844 137.605469 227.949219 C 137.949219 227.804688 138.308594 227.734375 138.679688 227.734375 Z M 138.679688 227.734375 " fill-opacity="1" fill-rule="nonzero"/><path stroke-linecap="butt" transform="matrix(1.542892, 0, 0, 1.543898, -13.731738, 68.424362)" fill-opacity="1" fill="#1996f2" fill-rule="nonzero" stroke-linejoin="miter" d="M 185.331513 67.838567 L 185.331513 80.102071 L 86.546878 80.102071 L 86.546878 67.838567 C 86.546878 63.805551 89.822989 60.529042 93.8561 60.529042 L 178.022291 60.529042 C 182.055402 60.529042 185.331513 63.805551 185.331513 67.838567 Z M 185.331513 67.838567 " stroke="#1c2e3f" stroke-width="1" stroke-opacity="1" stroke-miterlimit="10"/><path fill="#d25455" d="M 182.195312 210.773438 L 200.488281 210.773438 L 200.488281 233.339844 L 182.195312 233.339844 Z M 182.195312 210.773438 " fill-opacity="1" fill-rule="nonzero"/><path fill="#d25455" d="M 205.859375 205.167969 L 224.152344 205.167969 L 224.152344 233.339844 L 205.859375 233.339844 Z M 205.859375 205.167969 " fill-opacity="1" fill-rule="nonzero"/><path fill="#d25455" d="M 229.089844 205.167969 L 247.386719 205.167969 L 247.386719 233.339844 L 229.089844 233.339844 Z M 229.089844 205.167969 " fill-opacity="1" fill-rule="nonzero"/><path fill="#ffcd5c" d="M 542.652344 200.960938 L 612.660156 200.960938 C 613.371094 200.960938 614.074219 201.03125 614.769531 201.167969 C 615.464844 201.308594 616.140625 201.511719 616.792969 201.785156 C 617.449219 202.054688 618.070312 202.390625 618.660156 202.78125 C 619.25 203.175781 619.796875 203.625 620.296875 204.128906 C 620.800781 204.628906 621.246094 205.175781 621.640625 205.765625 C 622.035156 206.355469 622.367188 206.976562 622.640625 207.632812 C 622.910156 208.289062 623.117188 208.964844 623.253906 209.660156 C 623.390625 210.355469 623.460938 211.058594 623.460938 211.769531 L 623.460938 240.449219 C 623.460938 241.160156 623.390625 241.863281 623.253906 242.558594 C 623.117188 243.253906 622.910156 243.929688 622.640625 244.585938 C 622.367188 245.242188 622.035156 245.863281 621.640625 246.453125 C 621.246094 247.042969 620.800781 247.589844 620.296875 248.09375 C 619.796875 248.59375 619.25 249.042969 618.660156 249.4375 C 618.070312 249.832031 617.449219 250.164062 616.792969 250.433594 C 616.140625 250.707031 615.464844 250.910156 614.769531 251.050781 C 614.074219 251.1875 613.371094 251.257812 612.660156 251.257812 L 542.652344 251.257812 C 541.941406 251.257812 541.238281 251.1875 540.542969 251.050781 C 539.847656 250.910156 539.171875 250.707031 538.515625 250.433594 C 537.863281 250.164062 537.238281 249.832031 536.648438 249.4375 C 536.0625 249.042969 535.515625 248.59375 535.015625 248.09375 C 534.511719 247.589844 534.066406 247.042969 533.671875 246.453125 C 533.277344 245.863281 532.945312 245.242188 532.671875 244.585938 C 532.402344 243.929688 532.195312 243.253906 532.058594 242.558594 C 531.917969 241.863281 531.851562 241.160156 531.851562 240.449219 L 531.851562 211.769531 C 531.851562 211.058594 531.917969 210.355469 532.058594 209.660156 C 532.195312 208.964844 532.402344 208.289062 532.671875 207.632812 C 532.945312 206.976562 533.277344 206.355469 533.671875 205.765625 C 534.066406 205.175781 534.511719 204.628906 535.015625 204.128906 C 535.515625 203.625 536.0625 203.175781 536.648438 202.78125 C 537.238281 202.390625 537.863281 202.054688 538.515625 201.785156 C 539.171875 201.511719 539.847656 201.308594 540.542969 201.167969 C 541.238281 201.03125 541.941406 200.960938 542.652344 200.960938 Z M 542.652344 200.960938 " fill-opacity="1" fill-rule="nonzero"/><path stroke-linecap="round" transform="matrix(1.542892, 0, 0, 1.543898, -13.731738, 68.424362)" fill="none" stroke-linejoin="round" d="M 357.843849 90.080875 L 383.298273 106.832816 L 408.750165 90.080875 " stroke="#1c2e3f" stroke-width="1" stroke-opacity="1" stroke-miterlimit="4"/><path stroke-linecap="round" transform="matrix(1.542892, 0, 0, 1.543898, -13.731738, 68.424362)" fill="none" stroke-linejoin="round" d="M 392.632912 104.140766 L 399.372486 111.361736 " stroke="#1c2e3f" stroke-width="1" stroke-opacity="1" stroke-miterlimit="4"/><path stroke-linecap="round" transform="matrix(1.542892, 0, 0, 1.543898, -13.731738, 68.424362)" fill="none" stroke-linejoin="round" d="M 373.963634 104.140766 L 367.22406 111.361736 " stroke="#1c2e3f" stroke-width="1" stroke-opacity="1" stroke-miterlimit="4"/><path stroke-linecap="butt" transform="matrix(1.542892, 0, 0, 1.543898, -13.731738, 68.424362)" fill-opacity="1" fill="#1996f2" fill-rule="nonzero" stroke-linejoin="miter" d="M 403.519527 152.362373 L 461.735066 152.362373 C 462.193317 152.362373 462.649035 152.407915 463.099691 152.496469 C 463.550346 152.587554 463.988342 152.71912 464.41368 152.896229 C 464.836485 153.070807 465.241569 153.288398 465.623866 153.54394 C 466.006163 153.796952 466.35808 154.087916 466.684678 154.414302 C 467.008745 154.738158 467.299898 155.092375 467.553075 155.474424 C 467.808784 155.856472 468.023985 156.258762 468.201209 156.683822 C 468.375901 157.108883 468.510085 157.546594 468.598697 157.996956 C 468.689841 158.447318 468.732881 158.90274 468.732881 159.363222 L 468.732881 191.268068 C 468.732881 191.728551 468.689841 192.183973 468.598697 192.634334 C 468.510085 193.084696 468.375901 193.522407 468.201209 193.947468 C 468.023985 194.372529 467.808784 194.774818 467.553075 195.156867 C 467.299898 195.538915 467.008745 195.893132 466.684678 196.216988 C 466.35808 196.543374 466.006163 196.831808 465.623866 197.08735 C 465.241569 197.342893 464.836485 197.560483 464.41368 197.735062 C 463.988342 197.91217 463.550346 198.043737 463.099691 198.132291 C 462.649035 198.223375 462.193317 198.268917 461.735066 198.268917 L 403.519527 198.268917 C 403.058744 198.268917 402.603026 198.223375 402.15237 198.132291 C 401.701715 198.043737 401.263719 197.91217 400.840913 197.735062 C 400.415576 197.560483 400.013024 197.342893 399.630727 197.08735 C 399.248429 196.831808 398.893981 196.543374 398.569915 196.216988 C 398.243316 195.893132 397.954694 195.538915 397.698986 195.156867 C 397.443277 194.774818 397.228076 194.372529 397.050852 193.947468 C 396.87616 193.522407 396.741976 193.084696 396.653364 192.634334 C 396.564752 192.183973 396.51918 191.728551 396.51918 191.268068 L 396.51918 159.363222 C 396.51918 158.90274 396.564752 158.447318 396.653364 157.996956 C 396.741976 157.546594 396.87616 157.108883 397.050852 156.683822 C 397.228076 156.258762 397.443277 155.856472 397.698986 155.474424 C 397.954694 155.092375 398.243316 154.738158 398.569915 154.414302 C 398.893981 154.087916 399.248429 153.796952 399.630727 153.54394 C 400.013024 153.288398 400.415576 153.070807 400.840913 152.896229 C 401.263719 152.71912 401.701715 152.587554 402.15237 152.496469 C 402.603026 152.407915 403.058744 152.362373 403.519527 152.362373 Z M 403.519527 152.362373 " stroke="#1c2e3f" stroke-width="1" stroke-opacity="1" stroke-miterlimit="10"/><path fill="#ffffff" d="M 647.921875 328.117188 L 645.105469 328.117188 C 644.941406 327.636719 644.742188 327.171875 644.523438 326.71875 L 646.515625 324.726562 C 647.535156 323.703125 647.535156 322.046875 646.515625 321.027344 L 644.652344 319.164062 C 643.632812 318.140625 641.976562 318.140625 640.957031 319.164062 L 638.964844 321.15625 C 638.511719 320.933594 638.046875 320.738281 637.566406 320.574219 L 637.566406 317.757812 C 637.566406 316.3125 636.394531 315.140625 634.953125 315.140625 L 632.320312 315.140625 C 630.875 315.140625 629.703125 316.3125 629.703125 317.757812 L 629.703125 320.574219 C 629.222656 320.738281 628.757812 320.933594 628.308594 321.15625 L 626.3125 319.164062 C 625.292969 318.140625 623.636719 318.140625 622.617188 319.164062 L 620.753906 321.027344 C 619.734375 322.046875 619.734375 323.703125 620.753906 324.726562 L 622.75 326.71875 C 622.527344 327.171875 622.332031 327.636719 622.167969 328.117188 L 619.351562 328.117188 C 617.90625 328.117188 616.738281 329.289062 616.738281 330.734375 L 616.738281 333.367188 C 616.738281 334.8125 617.90625 335.984375 619.351562 335.984375 L 622.167969 335.984375 C 622.332031 336.464844 622.527344 336.929688 622.75 337.382812 L 620.753906 339.378906 C 619.734375 340.398438 619.734375 342.054688 620.753906 343.074219 L 622.617188 344.941406 C 623.636719 345.960938 625.292969 345.960938 626.3125 344.941406 L 628.308594 342.945312 C 628.757812 343.167969 629.222656 343.363281 629.703125 343.527344 L 629.703125 346.34375 C 629.703125 347.789062 630.875 348.960938 632.316406 348.960938 L 634.953125 348.960938 C 636.394531 348.960938 637.566406 347.789062 637.566406 346.34375 L 637.566406 343.527344 C 638.046875 343.363281 638.511719 343.167969 638.964844 342.945312 L 640.957031 344.941406 C 641.976562 345.960938 643.632812 345.960938 644.652344 344.941406 L 646.515625 343.074219 C 647.535156 342.054688 647.535156 340.398438 646.515625 339.378906 L 644.523438 337.382812 C 644.742188 336.929688 644.9375 336.464844 645.105469 335.984375 L 647.921875 335.984375 C 649.363281 335.984375 650.535156 334.8125 650.535156 333.367188 L 650.535156 330.734375 C 650.535156 329.289062 649.363281 328.117188 647.921875 328.117188 Z M 633.636719 338.78125 C 629.921875 338.78125 626.910156 335.769531 626.910156 332.050781 C 626.910156 328.332031 629.921875 325.320312 633.636719 325.320312 C 637.351562 325.320312 640.363281 328.332031 640.363281 332.050781 C 640.363281 335.769531 637.351562 338.78125 633.636719 338.78125 Z M 633.636719 338.78125 " fill-opacity="1" fill-rule="nonzero"/><path fill="#ffffff" d="M 687.574219 337.386719 L 684.105469 337.386719 C 683.902344 336.796875 683.664062 336.222656 683.390625 335.664062 L 685.84375 333.210938 C 687.101562 331.953125 687.101562 329.914062 685.84375 328.65625 L 683.550781 326.363281 C 682.296875 325.105469 680.257812 325.105469 679 326.363281 L 676.546875 328.816406 C 675.992188 328.546875 675.417969 328.304688 674.828125 328.101562 L 674.828125 324.632812 C 674.828125 322.855469 673.386719 321.414062 671.609375 321.414062 L 668.367188 321.414062 C 666.589844 321.414062 665.148438 322.855469 665.148438 324.632812 L 665.148438 328.101562 C 664.558594 328.304688 663.984375 328.546875 663.429688 328.816406 L 660.972656 326.363281 C 659.71875 325.105469 657.679688 325.105469 656.421875 326.363281 L 654.128906 328.65625 C 652.875 329.914062 652.875 331.953125 654.128906 333.210938 L 656.585938 335.664062 C 656.3125 336.222656 656.070312 336.796875 655.867188 337.386719 L 652.402344 337.386719 C 650.625 337.386719 649.183594 338.828125 649.183594 340.605469 L 649.183594 343.851562 C 649.183594 345.628906 650.625 347.070312 652.402344 347.070312 L 655.867188 347.070312 C 656.070312 347.664062 656.3125 348.238281 656.585938 348.792969 L 654.128906 351.25 C 652.875 352.507812 652.875 354.546875 654.128906 355.800781 L 656.421875 358.097656 C 657.679688 359.355469 659.71875 359.355469 660.972656 358.097656 L 663.429688 355.640625 C 663.984375 355.914062 664.558594 356.15625 665.148438 356.359375 L 665.148438 359.828125 C 665.148438 361.605469 666.589844 363.046875 668.367188 363.046875 L 671.609375 363.046875 C 673.386719 363.046875 674.828125 361.605469 674.828125 359.828125 L 674.828125 356.359375 C 675.417969 356.15625 675.992188 355.914062 676.546875 355.640625 L 679 358.097656 C 680.257812 359.355469 682.296875 359.355469 683.550781 358.097656 L 685.84375 355.800781 C 687.101562 354.546875 687.101562 352.507812 685.84375 351.25 L 683.390625 348.792969 C 683.664062 348.238281 683.902344 347.664062 684.105469 347.070312 L 687.574219 347.070312 C 689.351562 347.070312 690.792969 345.628906 690.792969 343.851562 L 690.792969 340.605469 C 690.792969 338.828125 689.351562 337.386719 687.574219 337.386719 Z M 669.988281 350.515625 C 665.414062 350.515625 661.707031 346.804688 661.707031 342.230469 C 661.707031 337.652344 665.414062 333.945312 669.988281 333.945312 C 674.5625 333.945312 678.269531 337.652344 678.269531 342.230469 C 678.269531 346.804688 674.5625 350.515625 669.988281 350.515625 Z M 669.988281 350.515625 " fill-opacity="1" fill-rule="nonzero"/><path stroke-linecap="round" transform="matrix(1.542892, 0, 0, 1.543898, -13.731738, 68.424362)" fill="none" stroke-linejoin="round" d="M 404.160065 125.649338 C 404.160065 125.649338 418.740533 128.609582 417.887326 144.205257 " stroke="#1c2e3f" stroke-width="1" stroke-opacity="1" stroke-miterlimit="4"/><path stroke-linecap="round" transform="matrix(1.542892, 0, 0, 1.543898, -13.731738, 68.424362)" fill="none" stroke-linejoin="round" d="M 436.080632 208.371697 C 436.080632 208.371697 435.052733 220.379659 421.143184 224.230506 " stroke="#1c2e3f" stroke-width="1" stroke-opacity="1" stroke-miterlimit="4"/><path fill="#1c2e3f" d="M 473.132812 325.320312 L 537.992188 325.320312 C 565.765625 325.320312 588.316406 347.882812 588.316406 375.675781 L 588.316406 542.402344 L 425.023438 542.402344 L 425.023438 373.457031 C 425.023438 346.890625 446.582031 325.320312 473.132812 325.320312 Z M 473.132812 325.320312 " fill-opacity="1" fill-rule="nonzero"/><path fill="#1c2e3f" d="M 337.09375 272.417969 C 333.148438 262.292969 327.089844 235.25 326.875 224.382812 C 326.515625 206.375 332.691406 183.375 349.160156 170.34375 C 376.394531 148.789062 421.398438 146.308594 449.929688 176.535156 C 478.460938 206.761719 466.519531 253.34375 478.652344 264.613281 C 490.785156 275.886719 517.03125 304.132812 508.363281 319.492188 C 508.363281 319.492188 440.523438 391.921875 376.269531 376.394531 C 312.019531 360.871094 311.191406 327.503906 332.074219 317.265625 C 351.128906 307.917969 351.5 309.367188 337.09375 272.417969 Z M 337.09375 272.417969 " fill-opacity="1" fill-rule="nonzero"/><path fill="#1996f2" d="M 555.132812 479.859375 C 555.789062 494.269531 562.28125 505.4375 573.050781 509.765625 C 555.65625 515.019531 535.820312 514.539062 535.820312 514.539062 L 535.820312 542.402344 L 345.671875 542.402344 C 368.277344 518.578125 351.371094 424.363281 351.371094 424.363281 C 284.265625 528.90625 242.175781 516.027344 217.414062 471.4375 C 208.695312 455.734375 204.332031 441.9375 202.332031 430.652344 C 236.375 451.050781 248.734375 432.222656 252.785156 421.578125 L 263.710938 433.28125 C 263.710938 433.28125 320.347656 343.617188 335.519531 330.582031 C 350.691406 317.542969 374.265625 326.242188 374.265625 326.242188 L 429.359375 338.296875 C 429.359375 338.296875 441.734375 356.472656 452.132812 348.953125 C 462.535156 341.449219 472.9375 299.984375 508.078125 315.84375 C 538.484375 329.5625 584.863281 422.652344 596.167969 467.726562 L 575.9375 456.570312 C 575.9375 456.570312 554.140625 458.046875 555.132812 479.859375 Z M 555.132812 479.859375 " fill-opacity="1" fill-rule="nonzero"/><path stroke-linecap="round" transform="matrix(1.542892, 0, 0, 1.543898, -13.731738, 68.424362)" fill="none" stroke-linejoin="round" d="M 179.819848 236.321962 L 188.060762 244.770041 " stroke="#1c2e3f" stroke-width="1" stroke-opacity="1" stroke-miterlimit="4"/><path stroke-linecap="round" transform="matrix(1.542892, 0, 0, 1.543898, -13.731738, 68.424362)" fill="none" stroke-linejoin="round" d="M 356.183007 288.953572 C 356.183007 288.953572 345.916676 210.446398 323.768744 190.164935 " stroke="#1c2e3f" stroke-width="1" stroke-opacity="1" stroke-miterlimit="4"/><path stroke-linecap="round" transform="matrix(1.542892, 0, 0, 1.543898, -13.731738, 68.424362)" fill="none" stroke-linejoin="round" d="M 231.900907 180.15324 L 238.941762 192.027105 C 238.941762 192.027105 229.409644 196.199277 228.53112 207.433022 C 227.520943 220.336647 236.630255 227.653761 236.630255 227.653761 " stroke="#1c2e3f" stroke-width="1" stroke-opacity="1" stroke-miterlimit="4"/><path stroke-linecap="round" transform="matrix(1.542892, 0, 0, 1.543898, -13.731738, 68.424362)" fill="none" stroke-linejoin="round" d="M 366.91012 254.774146 C 366.91012 254.774146 359.821162 254.721013 357.532441 268.634157 " stroke="#1c2e3f" stroke-width="1" stroke-opacity="1" stroke-miterlimit="4"/><path fill="#ffc5bd" d="M 435.054688 274.472656 C 431.199219 281.910156 421.28125 303.277344 423.4375 322.109375 L 404.4375 338.296875 L 377.492188 320.800781 L 377.492188 295.027344 L 435.054688 269.019531 Z M 435.054688 274.472656 " fill-opacity="1" fill-rule="nonzero"/><path fill="#ffffff" d="M 430.652344 339.957031 L 428.089844 344.234375 C 424.914062 349.527344 417.6875 350.5625 413.167969 346.378906 L 404.4375 338.296875 L 396.023438 346.011719 C 391.34375 350.300781 383.871094 349.019531 380.890625 343.394531 L 369.9375 322.773438 L 377.492188 320.800781 L 404.097656 333.355469 L 423.253906 320.265625 C 423.726562 326.722656 425.515625 332.949219 429.359375 338.296875 C 429.789062 338.898438 430.21875 339.460938 430.652344 339.957031 Z M 430.652344 339.957031 " fill-opacity="1" fill-rule="nonzero"/><path fill="#ffc5bd" d="M 344.003906 247.484375 C 344.003906 247.484375 339.796875 240.519531 332.617188 242.007812 C 325.433594 243.492188 325.929688 264.058594 335.089844 270.996094 C 344.253906 277.933594 352.671875 274.710938 352.671875 274.710938 Z M 344.003906 247.484375 " fill-opacity="1" fill-rule="nonzero"/><path stroke-linecap="round" transform="matrix(1.542892, 0, 0, 1.543898, -13.731738, 68.424362)" fill="none" stroke-linejoin="round" d="M 223.677715 119.331622 C 223.677715 119.331622 230.905921 115.756559 232.746518 127.493798 " stroke="#1c2e3f" stroke-width="1" stroke-opacity="1" stroke-miterlimit="4"/><path stroke-linecap="round" transform="matrix(1.542892, 0, 0, 1.543898, -13.731738, 68.424362)" fill="none" stroke-linejoin="round" d="M 229.376731 122.221022 L 227.207004 127.493798 L 230.255256 129.075124 " stroke="#1c2e3f" stroke-width="1" stroke-opacity="1" stroke-miterlimit="4"/><path fill="#ffc5bd" d="M 369.191406 192.949219 C 369.191406 192.949219 341.460938 212.523438 340.222656 240.519531 C 340.222656 240.519531 341.949219 290.835938 369.191406 300.230469 C 398.65625 310.386719 434.308594 273.96875 434.308594 273.96875 C 434.308594 273.96875 452.96875 274.140625 458.078125 262.324219 C 465.257812 245.722656 447.433594 230.859375 435.050781 245.722656 C 435.050781 245.722656 382.5625 236.308594 369.191406 192.949219 Z M 369.191406 192.949219 " fill-opacity="1" fill-rule="nonzero"/><path stroke-linecap="round" transform="matrix(1.542892, 0, 0, 1.543898, -13.731738, 68.424362)" fill="none" stroke-linejoin="round" d="M 256.689475 151.2643 C 273.515625 150.358516 290.389877 133.133441 290.389877 133.133441 " stroke="#1c2e3f" stroke-width="1" stroke-opacity="1" stroke-miterlimit="4"/><path stroke-linecap="round" transform="matrix(1.542892, 0, 0, 1.543898, -13.731738, 68.424362)" fill="none" stroke-linejoin="round" d="M 259.578226 137.143685 C 259.578226 137.143685 265.196225 140.354411 272.578869 132.971513 " stroke="#1c2e3f" stroke-width="1" stroke-opacity="1" stroke-miterlimit="4"/><path stroke-linecap="round" transform="matrix(1.542892, 0, 0, 1.543898, -13.731738, 68.424362)" fill="none" stroke-linejoin="round" d="M 291.835519 129.922715 C 291.835519 129.922715 292.957093 117.611139 298.896627 115.97921 C 304.83363 114.34728 303.068986 122.952228 303.068986 122.952228 " stroke="#1c2e3f" stroke-width="1" stroke-opacity="1" stroke-miterlimit="4"/><path stroke-linecap="round" transform="matrix(1.542892, 0, 0, 1.543898, -13.731738, 68.424362)" fill="none" stroke-linejoin="round" d="M 296.810448 119.331622 L 299.215631 125.107892 L 294.402734 128.15922 " stroke="#1c2e3f" stroke-width="1" stroke-opacity="1" stroke-miterlimit="4"/><path stroke-linecap="round" transform="matrix(1.542892, 0, 0, 1.543898, -13.731738, 68.424362)" fill="none" stroke-linejoin="round" d="M 250.430938 119.331622 L 248.666293 132.971513 L 254.284293 131.367415 " stroke="#1c2e3f" stroke-width="1" stroke-opacity="1" stroke-miterlimit="4"/><path stroke-linecap="round" transform="matrix(1.542892, 0, 0, 1.543898, -13.731738, 68.424362)" fill="none" stroke-linejoin="round" d="M 277.872802 118.484031 C 277.872802 118.830658 277.85508 119.177285 277.822167 119.523911 C 277.789254 119.868008 277.736087 120.212105 277.670261 120.551141 C 277.601903 120.890178 277.518354 121.226684 277.417083 121.55813 C 277.315813 121.892106 277.199351 122.218492 277.067699 122.537287 C 276.933515 122.858613 276.786672 123.172348 276.622107 123.478493 C 276.460074 123.784638 276.280318 124.080662 276.087904 124.369096 C 275.895489 124.65753 275.687884 124.935844 275.470152 125.204037 C 275.249888 125.47223 275.016965 125.727772 274.771383 125.973194 C 274.525801 126.218616 274.270092 126.451387 274.001725 126.671508 C 273.733357 126.891628 273.454862 127.099098 273.16624 127.291388 C 272.877618 127.483677 272.581401 127.660786 272.275057 127.825244 C 271.968713 127.989702 271.654773 128.136449 271.33577 128.270545 C 271.014235 128.402112 270.687636 128.518497 270.355974 128.619702 C 270.024313 128.720907 269.687587 128.804401 269.34833 128.872714 C 269.009072 128.941028 268.664752 128.99163 268.320431 129.024522 C 267.97611 129.059943 267.629257 129.075124 267.282405 129.075124 C 266.935552 129.075124 266.588699 129.059943 266.244379 129.024522 C 265.897526 128.99163 265.555737 128.941028 265.21648 128.872714 C 264.874691 128.804401 264.540497 128.720907 264.208835 128.619702 C 263.874641 128.518497 263.550574 128.402112 263.229039 128.270545 C 262.907505 128.136449 262.596097 127.989702 262.289753 127.825244 C 261.983408 127.660786 261.687191 127.483677 261.398569 127.291388 C 261.109947 127.099098 260.831452 126.891628 260.563085 126.671508 C 260.294717 126.451387 260.039008 126.218616 259.793426 125.973194 C 259.547845 125.727772 259.314922 125.47223 259.094658 125.204037 C 258.874394 124.935844 258.66932 124.65753 258.476906 124.369096 C 258.281959 124.080662 258.104735 123.784638 257.942702 123.478493 C 257.778137 123.172348 257.628762 122.858613 257.49711 122.537287 C 257.365458 122.218492 257.248997 121.892106 257.147726 121.55813 C 257.046455 121.226684 256.962907 120.890178 256.894549 120.551141 C 256.826191 120.212105 256.775556 119.868008 256.742643 119.523911 C 256.707198 119.177285 256.692007 118.830658 256.692007 118.484031 C 256.692007 118.137404 256.707198 117.793307 256.742643 117.446681 C 256.775556 117.102584 256.826191 116.758487 256.894549 116.419451 C 256.962907 116.077884 257.046455 115.741378 257.147726 115.409932 C 257.248997 115.078486 257.365458 114.7521 257.49711 114.430775 C 257.628762 114.111979 257.778137 113.798244 257.942702 113.492099 C 258.104735 113.185954 258.281959 112.88993 258.476906 112.601496 C 258.66932 112.313062 258.874394 112.034748 259.094658 111.766555 C 259.314922 111.498362 259.547845 111.24029 259.793426 110.994868 C 260.039008 110.751976 260.294717 110.519205 260.563085 110.299084 C 260.831452 110.078964 261.109947 109.871494 261.398569 109.679204 C 261.687191 109.486915 261.983408 109.307276 262.289753 109.145348 C 262.596097 108.98089 262.907505 108.834143 263.229039 108.700047 C 263.550574 108.56848 263.874641 108.449565 264.208835 108.35089 C 264.540497 108.249685 264.874691 108.166191 265.21648 108.097878 C 265.555737 108.029564 265.897526 107.978962 266.244379 107.94607 C 266.588699 107.910649 266.935552 107.892938 267.282405 107.892938 C 267.629257 107.892938 267.97611 107.910649 268.320431 107.94607 C 268.664752 107.978962 269.009072 108.029564 269.34833 108.097878 C 269.687587 108.166191 270.024313 108.249685 270.355974 108.35089 C 270.687636 108.449565 271.014235 108.56848 271.33577 108.700047 C 271.654773 108.834143 271.968713 108.98089 272.275057 109.145348 C 272.581401 109.307276 272.877618 109.486915 273.16624 109.679204 C 273.454862 109.871494 273.733357 110.078964 274.001725 110.299084 C 274.270092 110.519205 274.525801 110.751976 274.771383 110.994868 C 275.016965 111.24029 275.249888 111.498362 275.470152 111.766555 C 275.687884 112.034748 275.895489 112.313062 276.087904 112.601496 C 276.280318 112.88993 276.460074 113.185954 276.622107 113.492099 C 276.786672 113.798244 276.933515 114.111979 277.067699 114.430775 C 277.199351 114.7521 277.315813 115.078486 277.417083 115.409932 C 277.518354 115.741378 277.601903 116.077884 277.670261 116.419451 C 277.736087 116.758487 277.789254 117.102584 277.822167 117.446681 C 277.85508 117.793307 277.872802 118.137404 277.872802 118.484031 Z M 277.872802 118.484031 " stroke="#ffffff" stroke-width="2" stroke-opacity="1" stroke-miterlimit="4"/><path stroke-linecap="round" transform="matrix(1.542892, 0, 0, 1.543898, -13.731738, 68.424362)" fill="none" stroke-linejoin="round" d="M 250.430938 118.484031 C 250.430938 118.830658 250.415747 119.177285 250.382834 119.523911 C 250.349921 119.868008 250.301817 120.212105 250.235991 120.551141 C 250.172697 120.890178 250.09168 121.226684 249.995473 121.55813 C 249.896734 121.892106 249.785336 122.218492 249.658748 122.537287 C 249.529627 122.858613 249.387848 123.172348 249.230878 123.478493 C 249.073909 123.784638 248.90428 124.080662 248.719461 124.369096 C 248.534641 124.65753 248.334631 124.935844 248.124495 125.204037 C 247.914358 125.47223 247.68903 125.727772 247.453575 125.973194 C 247.218121 126.218616 246.972539 126.451387 246.71683 126.671508 C 246.458589 126.891628 246.190222 127.099098 245.914259 127.291388 C 245.638296 127.483677 245.352205 127.660786 245.05852 127.825244 C 244.764835 127.989702 244.463554 128.136449 244.15721 128.270545 C 243.848334 128.402112 243.536926 128.518497 243.217923 128.619702 C 242.898919 128.720907 242.577385 128.804401 242.250786 128.872714 C 241.924188 128.941028 241.595057 128.99163 241.263395 129.024522 C 240.931733 129.059943 240.600071 129.075124 240.265878 129.075124 C 239.934216 129.075124 239.602554 129.059943 239.270892 129.024522 C 238.93923 128.99163 238.6101 128.941028 238.283501 128.872714 C 237.956903 128.804401 237.635368 128.720907 237.316365 128.619702 C 236.997362 128.518497 236.683422 128.402112 236.377078 128.270545 C 236.068202 128.136449 235.769453 127.989702 235.475767 127.825244 C 235.182082 127.660786 234.895992 127.483677 234.620029 127.291388 C 234.341534 127.099098 234.075698 126.891628 233.817457 126.671508 C 233.561748 126.451387 233.313635 126.218616 233.07818 125.973194 C 232.842726 125.727772 232.61993 125.47223 232.409793 125.204037 C 232.197124 124.935844 231.999646 124.65753 231.814827 124.369096 C 231.630007 124.080662 231.460379 123.784638 231.303409 123.478493 C 231.146439 123.172348 231.002128 122.858613 230.87554 122.537287 C 230.748951 122.218492 230.637553 121.892106 230.538814 121.55813 C 230.442607 121.226684 230.36159 120.890178 230.298296 120.551141 C 230.23247 120.212105 230.184366 119.868008 230.151453 119.523911 C 230.11854 119.177285 230.100818 118.830658 230.100818 118.484031 C 230.100818 118.137404 230.11854 117.793307 230.151453 117.446681 C 230.184366 117.102584 230.23247 116.758487 230.298296 116.419451 C 230.36159 116.077884 230.442607 115.741378 230.538814 115.409932 C 230.637553 115.078486 230.748951 114.7521 230.87554 114.430775 C 231.002128 114.111979 231.146439 113.798244 231.303409 113.492099 C 231.460379 113.185954 231.630007 112.88993 231.814827 112.601496 C 231.999646 112.313062 232.197124 112.034748 232.409793 111.766555 C 232.61993 111.498362 232.842726 111.24029 233.07818 110.994868 C 233.313635 110.751976 233.561748 110.519205 233.817457 110.299084 C 234.075698 110.078964 234.344066 109.871494 234.620029 109.679204 C 234.895992 109.486915 235.182082 109.307276 235.475767 109.145348 C 235.769453 108.98089 236.068202 108.834143 236.377078 108.700047 C 236.683422 108.56848 236.997362 108.449565 237.316365 108.35089 C 237.635368 108.249685 237.956903 108.166191 238.283501 108.097878 C 238.6101 108.029564 238.93923 107.978962 239.270892 107.94607 C 239.602554 107.910649 239.934216 107.892938 240.265878 107.892938 C 240.600071 107.892938 240.931733 107.910649 241.263395 107.94607 C 241.595057 107.978962 241.924188 108.029564 242.250786 108.097878 C 242.577385 108.166191 242.898919 108.249685 243.217923 108.35089 C 243.536926 108.449565 243.848334 108.56848 244.15721 108.700047 C 244.463554 108.834143 244.764835 108.98089 245.05852 109.145348 C 245.352205 109.307276 245.638296 109.486915 245.914259 109.679204 C 246.190222 109.871494 246.458589 110.078964 246.71683 110.299084 C 246.972539 110.519205 247.218121 110.751976 247.453575 110.994868 C 247.68903 111.24029 247.914358 111.498362 248.124495 111.766555 C 248.334631 112.034748 248.534641 112.313062 248.719461 112.601496 C 248.90428 112.88993 249.073909 113.185954 249.230878 113.492099 C 249.387848 113.798244 249.529627 114.111979 249.658748 114.430775 C 249.785336 114.7521 249.896734 115.078486 249.995473 115.409932 C 250.09168 115.741378 250.172697 116.077884 250.235991 116.419451 C 250.301817 116.758487 250.349921 117.102584 250.382834 117.446681 C 250.415747 117.793307 250.430938 118.137404 250.430938 118.484031 Z M 250.430938 118.484031 " stroke="#ffffff" stroke-width="2" stroke-opacity="1" stroke-miterlimit="4"/><path stroke-linecap="round" transform="matrix(1.542892, 0, 0, 1.543898, -13.731738, 68.424362)" fill="none" stroke-linejoin="round" d="M 277.872802 115.97921 L 290.870914 114.838124 " stroke="#ffffff" stroke-width="1" stroke-opacity="1" stroke-miterlimit="4"/><path stroke-linecap="round" transform="matrix(1.542892, 0, 0, 1.543898, -13.731738, 68.424362)" fill="none" stroke-linejoin="round" d="M 256.689475 118.484031 L 250.430938 118.484031 " stroke="#ffffff" stroke-width="1" stroke-opacity="1" stroke-miterlimit="4"/><path fill="#1c2e3f" d="M 399.976562 255.9375 C 399.976562 256.238281 399.953125 256.535156 399.90625 256.832031 C 399.855469 257.125 399.785156 257.414062 399.695312 257.691406 C 399.601562 257.96875 399.484375 258.234375 399.351562 258.484375 C 399.214844 258.734375 399.0625 258.964844 398.886719 259.179688 C 398.714844 259.390625 398.527344 259.582031 398.324219 259.75 C 398.121094 259.914062 397.910156 260.054688 397.683594 260.171875 C 397.457031 260.285156 397.226562 260.375 396.988281 260.433594 C 396.746094 260.492188 396.507812 260.519531 396.261719 260.519531 C 396.019531 260.519531 395.777344 260.492188 395.539062 260.433594 C 395.300781 260.375 395.066406 260.285156 394.839844 260.171875 C 394.617188 260.054688 394.402344 259.914062 394.199219 259.75 C 393.996094 259.582031 393.808594 259.390625 393.636719 259.179688 C 393.464844 258.964844 393.308594 258.734375 393.175781 258.484375 C 393.039062 258.234375 392.925781 257.96875 392.832031 257.691406 C 392.738281 257.414062 392.667969 257.125 392.621094 256.832031 C 392.574219 256.535156 392.546875 256.238281 392.546875 255.9375 C 392.546875 255.636719 392.574219 255.335938 392.621094 255.042969 C 392.667969 254.746094 392.738281 254.460938 392.832031 254.183594 C 392.925781 253.90625 393.039062 253.640625 393.175781 253.390625 C 393.308594 253.140625 393.464844 252.910156 393.636719 252.695312 C 393.808594 252.484375 393.996094 252.292969 394.199219 252.125 C 394.402344 251.957031 394.617188 251.816406 394.839844 251.703125 C 395.066406 251.585938 395.300781 251.5 395.539062 251.441406 C 395.777344 251.382812 396.019531 251.351562 396.261719 251.351562 C 396.507812 251.351562 396.746094 251.382812 396.988281 251.441406 C 397.226562 251.5 397.457031 251.585938 397.683594 251.703125 C 397.910156 251.816406 398.121094 251.957031 398.324219 252.125 C 398.527344 252.292969 398.714844 252.484375 398.886719 252.695312 C 399.0625 252.910156 399.214844 253.140625 399.351562 253.390625 C 399.484375 253.640625 399.601562 253.90625 399.695312 254.183594 C 399.785156 254.460938 399.855469 254.746094 399.90625 255.042969 C 399.953125 255.335938 399.976562 255.636719 399.976562 255.9375 Z M 399.976562 255.9375 " fill-opacity="1" fill-rule="nonzero"/><path fill="#1c2e3f" d="M 364.695312 255.9375 C 364.695312 256.238281 364.667969 256.535156 364.621094 256.832031 C 364.574219 257.125 364.503906 257.414062 364.410156 257.691406 C 364.316406 257.96875 364.203125 258.234375 364.066406 258.484375 C 363.933594 258.734375 363.777344 258.964844 363.605469 259.179688 C 363.433594 259.390625 363.246094 259.582031 363.042969 259.75 C 362.839844 259.914062 362.625 260.054688 362.402344 260.171875 C 362.175781 260.285156 361.945312 260.375 361.703125 260.433594 C 361.464844 260.492188 361.222656 260.519531 360.980469 260.519531 C 360.734375 260.519531 360.496094 260.492188 360.253906 260.433594 C 360.015625 260.375 359.785156 260.285156 359.558594 260.171875 C 359.332031 260.054688 359.121094 259.914062 358.917969 259.75 C 358.714844 259.582031 358.527344 259.390625 358.355469 259.179688 C 358.179688 258.964844 358.027344 258.734375 357.890625 258.484375 C 357.757812 258.234375 357.640625 257.96875 357.546875 257.691406 C 357.457031 257.414062 357.386719 257.125 357.335938 256.832031 C 357.289062 256.535156 357.265625 256.238281 357.265625 255.9375 C 357.265625 255.636719 357.289062 255.335938 357.335938 255.042969 C 357.386719 254.746094 357.457031 254.460938 357.546875 254.183594 C 357.640625 253.90625 357.757812 253.640625 357.890625 253.390625 C 358.027344 253.140625 358.179688 252.910156 358.355469 252.695312 C 358.527344 252.484375 358.714844 252.292969 358.917969 252.125 C 359.121094 251.957031 359.332031 251.816406 359.558594 251.703125 C 359.785156 251.585938 360.015625 251.5 360.253906 251.441406 C 360.496094 251.382812 360.734375 251.351562 360.980469 251.351562 C 361.222656 251.351562 361.464844 251.382812 361.703125 251.441406 C 361.945312 251.5 362.175781 251.585938 362.402344 251.703125 C 362.625 251.816406 362.839844 251.957031 363.042969 252.125 C 363.246094 252.292969 363.433594 252.484375 363.605469 252.695312 C 363.777344 252.910156 363.933594 253.140625 364.066406 253.390625 C 364.203125 253.640625 364.316406 253.90625 364.410156 254.183594 C 364.503906 254.460938 364.574219 254.746094 364.621094 255.042969 C 364.667969 255.335938 364.695312 255.636719 364.695312 255.9375 Z M 364.695312 255.9375 " fill-opacity="1" fill-rule="nonzero"/><path stroke-linecap="round" transform="matrix(1.542892, 0, 0, 1.543898, -13.731738, 68.424362)" fill="none" stroke-linejoin="round" d="M 258.400952 106.225587 C 258.400952 106.225587 267.067204 97.774977 273.487775 106.225587 " stroke="#1c2e3f" stroke-width="1" stroke-opacity="1" stroke-miterlimit="4"/><path stroke-linecap="round" transform="matrix(1.542892, 0, 0, 1.543898, -13.731738, 68.424362)" fill="none" stroke-linejoin="round" d="M 245.777543 106.225587 C 245.777543 106.225587 237.326492 98.951484 232.938933 106.225587 " stroke="#1c2e3f" stroke-width="1" stroke-opacity="1" stroke-miterlimit="4"/><path stroke-linecap="butt" transform="matrix(1.542892, 0, 0, 1.543898, -13.731738, 68.424362)" fill-opacity="1" fill="#ffffff" fill-rule="nonzero" stroke-linejoin="miter" d="M 224.252427 212.437604 L 167.201502 218.666766 L 157.5909 167.889735 L 214.641825 161.660573 Z M 224.252427 212.437604 " stroke="#1c2e3f" stroke-width="1" stroke-opacity="1" stroke-miterlimit="10"/><path fill="#ffc5bd" d="M 202.972656 397.597656 L 225.089844 354.738281 L 256.039062 336.15625 C 256.039062 336.15625 268.171875 342.597656 249.601562 356.71875 L 276.34375 368.613281 C 276.34375 368.613281 278.570312 380.753906 260.246094 375.300781 L 276.425781 393.882812 C 276.425781 393.882812 274.359375 406.019531 265.449219 399.085938 L 270.894531 404.289062 C 270.894531 404.289062 264.703125 419.648438 247.621094 399.828125 L 246.136719 414.453125 L 234.746094 427.332031 C 234.746094 427.332031 208.835938 428.070312 202.972656 397.597656 Z M 202.972656 397.597656 " fill-opacity="1" fill-rule="nonzero"/><path stroke-linecap="round" transform="matrix(1.542892, 0, 0, 1.543898, -13.731738, 68.424362)" fill="none" stroke-linejoin="round" d="M 177.576699 198.767352 C 177.576699 198.767352 174.204381 196.520603 168.429411 198.767352 " stroke="#1c2e3f" stroke-width="1" stroke-opacity="1" stroke-miterlimit="4"/><path stroke-linecap="round" transform="matrix(1.542892, 0, 0, 1.543898, -13.731738, 68.424362)" fill="none" stroke-linejoin="round" d="M 170.675092 186.731558 L 161.849339 193.150479 " stroke="#1c2e3f" stroke-width="1" stroke-opacity="1" stroke-miterlimit="4"/><path stroke-linecap="round" transform="matrix(1.542892, 0, 0, 1.543898, -13.731738, 68.424362)" fill="none" stroke-linejoin="round" d="M 180.946486 214.173268 L 175.650022 208.23507 L 168.429411 205.55314 " stroke="#1c2e3f" stroke-width="1" stroke-opacity="1" stroke-miterlimit="4"/><path fill="#ffffff" d="M 252.789062 421.566406 L 252.789062 421.578125 C 248.734375 432.222656 236.375 451.050781 202.332031 430.652344 C 198.636719 409.875 202.972656 397.597656 202.972656 397.597656 C 228.15625 432.289062 246.136719 414.453125 246.136719 414.453125 Z M 252.789062 421.566406 " fill-opacity="1" fill-rule="nonzero"/><path stroke-linecap="round" transform="matrix(1.542892, 0, 0, 1.543898, -13.731738, 68.424362)" fill="none" stroke-linejoin="round" d="M 140.038133 234.619189 C 137.640546 221.161467 140.453343 213.209291 140.453343 213.209291 " stroke="#1c2e3f" stroke-width="1" stroke-opacity="1" stroke-miterlimit="4"/><path stroke-linecap="round" transform="matrix(1.542892, 0, 0, 1.543898, -13.731738, 68.424362)" fill="none" stroke-linejoin="round" d="M 168.429411 224.126771 L 172.741017 228.734124 L 172.741017 228.741714 " stroke="#1c2e3f" stroke-width="1" stroke-opacity="1" stroke-miterlimit="4"/><path fill="#ffffff" d="M 598.714844 484.816406 C 598.285156 498.363281 586.390625 505.75 573.050781 509.765625 C 562.28125 505.4375 555.789062 494.269531 555.132812 479.859375 C 554.140625 458.046875 575.9375 456.570312 575.9375 456.570312 L 596.167969 467.722656 C 597.945312 474.746094 598.847656 480.605469 598.714844 484.816406 Z M 598.714844 484.816406 " fill-opacity="1" fill-rule="nonzero"/><path stroke-linecap="round" transform="matrix(1.542892, 0, 0, 1.543898, -13.731738, 68.424362)" fill="none" stroke-linejoin="round" d="M 395.296335 258.630053 C 396.448291 263.179213 397.03313 266.974397 396.94705 269.701869 C 396.785016 274.800066 394.113998 278.552238 390.210007 281.310072 " stroke="#1c2e3f" stroke-width="1" stroke-opacity="1" stroke-miterlimit="4"/><path fill="#ffffff" d="M 509.085938 391.652344 L 596.167969 391.652344 L 596.167969 461.769531 L 509.085938 461.769531 Z M 509.085938 391.652344 " fill-opacity="1" fill-rule="nonzero"/><path stroke-linecap="butt" transform="matrix(1.542892, 0, 0, 1.543898, -13.731738, 68.424362)" fill-opacity="1" fill="#ffffff" fill-rule="nonzero" stroke-linejoin="miter" d="M 338.855567 209.358445 L 395.296335 209.358445 L 395.296335 254.774146 L 338.855567 254.774146 Z M 338.855567 209.358445 " stroke="#1c2e3f" stroke-width="1" stroke-opacity="1" stroke-miterlimit="10"/><path fill="#ffc5bd" d="M 602.347656 431.296875 C 602.347656 431.296875 598.632812 425.515625 586.003906 426.007812 C 573.378906 426.503906 554.640625 431.046875 566.773438 441.699219 C 566.773438 441.699219 556.859375 448.414062 568.613281 458.378906 C 568.613281 458.378906 558.355469 465.238281 567.765625 472.175781 C 567.765625 472.175781 563.554688 477.558594 569.746094 483.167969 C 573.714844 486.765625 585.9375 486.421875 594.191406 485.714844 C 599.226562 485.285156 603.46875 481.726562 604.691406 476.820312 C 607.230469 466.632812 609.960938 451.832031 602.347656 431.296875 Z M 602.347656 431.296875 " fill-opacity="1" fill-rule="nonzero"/><path stroke-linecap="round" transform="matrix(1.542892, 0, 0, 1.543898, -13.731738, 68.424362)" fill="none" stroke-linejoin="round" d="M 376.887829 261.514392 L 386.356652 261.514392 " stroke="#1c2e3f" stroke-width="1" stroke-opacity="1" stroke-miterlimit="4"/><path stroke-linecap="round" transform="matrix(1.542892, 0, 0, 1.543898, -13.731738, 68.424362)" fill="none" stroke-linejoin="round" d="M 377.437223 252.577999 L 393.589921 252.577999 " stroke="#1c2e3f" stroke-width="1" stroke-opacity="1" stroke-miterlimit="4"/><path stroke-linecap="round" transform="matrix(1.542892, 0, 0, 1.543898, -13.731738, 68.424362)" fill="none" stroke-linejoin="round" d="M 376.244759 241.774376 L 392.453156 241.774376 " stroke="#1c2e3f" stroke-width="1" stroke-opacity="1" stroke-miterlimit="4"/><path fill="#ffcd5c" d="M 494.378906 419.886719 L 433.582031 419.886719 L 430.65625 434.273438 L 329.042969 434.273438 L 306.714844 542.402344 L 469.441406 542.402344 Z M 494.378906 419.886719 " fill-opacity="1" fill-rule="nonzero"/><path fill="#ffffff" d="M 469.441406 542.402344 L 306.714844 542.402344 L 313.953125 441.125 L 476.675781 441.125 Z M 469.441406 542.402344 " fill-opacity="1" fill-rule="nonzero"/><path stroke-linecap="round" transform="matrix(1.542892, 0, 0, 1.543898, -13.731738, 68.424362)" fill="none" stroke-linejoin="round" d="M 207.692114 307.000937 L 212.383485 241.402448 L 317.849464 241.402448 L 313.160625 307.000937 " stroke="#1c2e3f" stroke-width="1" stroke-opacity="1" stroke-miterlimit="4"/><path fill="#ffffff" d="M 469.441406 542.402344 L 306.714844 542.402344 L 294.914062 446.324219 L 457.640625 446.324219 Z M 469.441406 542.402344 " fill-opacity="1" fill-rule="nonzero"/><path stroke-linecap="round" transform="matrix(1.542892, 0, 0, 1.543898, -13.731738, 68.424362)" fill="none" stroke-linejoin="round" d="M 207.692114 307.000937 L 200.043634 244.770041 L 305.512145 244.770041 L 313.160625 307.000937 " stroke="#1c2e3f" stroke-width="1" stroke-opacity="1" stroke-miterlimit="4"/><path fill="#ffcd5c" d="M 469.441406 542.402344 L 306.714844 542.402344 L 276.425781 456.074219 L 439.152344 456.074219 Z M 469.441406 542.402344 " fill-opacity="1" fill-rule="nonzero"/><path fill="#1c2e3f" d="M 56.851562 542.410156 C 47.226562 542.410156 39.421875 550.21875 39.421875 559.847656 C 39.421875 650.738281 696.570312 650.738281 696.570312 559.847656 C 696.570312 550.21875 688.765625 542.410156 679.136719 542.410156 Z M 56.851562 542.410156 " fill-opacity="1" fill-rule="nonzero"/><path stroke-linecap="round" transform="matrix(1.542892, 0, 0, 1.543898, -13.731738, 68.424362)" fill="none" stroke-linejoin="round" d="M 390.207476 307.000937 L 356.183007 307.000937 " stroke="#ffffff" stroke-width="1" stroke-opacity="1" stroke-miterlimit="4"/><path fill="#d25455" d="M 313.371094 552.464844 L 180.410156 552.464844 L 156.582031 578.972656 L 254.441406 578.972656 Z M 313.371094 552.464844 " fill-opacity="1" fill-rule="nonzero"/><path fill="#d25455" d="M 254.441406 578.972656 L 104.398438 578.972656 L 61.398438 488.953125 C 60.15625 486.347656 62.050781 483.339844 64.9375 483.339844 L 206.289062 483.339844 C 207.800781 483.339844 209.175781 484.207031 209.828125 485.570312 L 254.445312 578.972656 Z M 254.441406 578.972656 " fill-opacity="1" fill-rule="nonzero"/><path fill="#ffffff" d="M 160.695312 525.9375 C 161.246094 526.371094 161.761719 526.835938 162.25 527.328125 C 162.734375 527.820312 163.183594 528.332031 163.585938 528.863281 C 163.992188 529.398438 164.347656 529.9375 164.652344 530.492188 C 164.960938 531.042969 165.214844 531.59375 165.410156 532.140625 C 165.609375 532.691406 165.746094 533.230469 165.828125 533.753906 C 165.910156 534.28125 165.929688 534.785156 165.890625 535.269531 C 165.851562 535.75 165.753906 536.203125 165.59375 536.625 C 165.4375 537.042969 165.222656 537.425781 164.953125 537.769531 C 164.683594 538.109375 164.363281 538.410156 163.988281 538.660156 C 163.617188 538.910156 163.199219 539.113281 162.742188 539.261719 C 162.28125 539.414062 161.785156 539.511719 161.253906 539.554688 C 160.726562 539.597656 160.171875 539.585938 159.589844 539.523438 C 159.011719 539.457031 158.417969 539.339844 157.808594 539.167969 C 157.203125 539 156.59375 538.777344 155.980469 538.507812 C 155.371094 538.238281 154.769531 537.921875 154.175781 537.5625 C 153.585938 537.207031 153.011719 536.808594 152.464844 536.375 C 151.914062 535.941406 151.394531 535.476562 150.910156 534.984375 C 150.421875 534.492188 149.976562 533.980469 149.570312 533.445312 C 149.167969 532.914062 148.8125 532.371094 148.503906 531.820312 C 148.199219 531.269531 147.945312 530.71875 147.746094 530.167969 C 147.550781 529.621094 147.410156 529.082031 147.328125 528.554688 C 147.25 528.03125 147.226562 527.527344 147.269531 527.042969 C 147.308594 526.5625 147.40625 526.109375 147.5625 525.6875 C 147.722656 525.265625 147.933594 524.886719 148.207031 524.542969 C 148.476562 524.199219 148.796875 523.902344 149.167969 523.652344 C 149.542969 523.402344 149.957031 523.199219 150.417969 523.050781 C 150.878906 522.898438 151.371094 522.800781 151.902344 522.757812 C 152.433594 522.714844 152.988281 522.726562 153.566406 522.789062 C 154.148438 522.855469 154.742188 522.972656 155.347656 523.144531 C 155.957031 523.3125 156.566406 523.535156 157.175781 523.804688 C 157.789062 524.074219 158.390625 524.386719 158.980469 524.746094 C 159.574219 525.105469 160.144531 525.503906 160.695312 525.9375 Z M 160.695312 525.9375 " fill-opacity="1" fill-rule="nonzero"/><path fill="#d25455" d="M 313.371094 556.921875 L 254.441406 578.972656 L 252.636719 575.191406 L 313.371094 552.464844 Z M 313.371094 556.921875 " fill-opacity="1" fill-rule="nonzero"/><path fill="#ffffff" d="M 377.855469 591.679688 L 284.167969 591.679688 L 347.855469 554.679688 L 435.011719 554.679688 Z M 377.855469 591.679688 " fill-opacity="1" fill-rule="nonzero"/><path fill="#ffcd5c" d="M 491.453125 587.054688 L 405.164062 587.054688 L 452.398438 554.679688 L 524.3125 554.679688 Z M 491.453125 587.054688 " fill-opacity="1" fill-rule="nonzero"/><path stroke-linecap="round" transform="matrix(1.542892, 0, 0, 1.543898, -13.731738, 68.424362)" fill="none" stroke-linejoin="round" d="M 276.584131 335.922768 L 310.535178 325.43794 L 323.191501 335.922768 " stroke="#1c2e3f" stroke-width="1" stroke-opacity="1" stroke-miterlimit="4"/><path stroke-linecap="round" transform="matrix(1.542892, 0, 0, 1.543898, -13.731738, 68.424362)" fill="none" stroke-linejoin="round" d="M 313.532795 327.919991 L 330.822258 321.880588 " stroke="#1c2e3f" stroke-width="1" stroke-opacity="1" stroke-miterlimit="4"/><path stroke-linecap="round" transform="matrix(1.542892, 0, 0, 1.543898, -13.731738, 68.424362)" fill="none" stroke-linejoin="round" d="M 302.666434 327.919991 L 297.645933 321.880588 " stroke="#1c2e3f" stroke-width="1" stroke-opacity="1" stroke-miterlimit="4"/></svg>