<svg xmlns="http://www.w3.org/2000/svg" xmlns:xlink="http://www.w3.org/1999/xlink" width="1000" zoomAndPan="magnify" viewBox="0 0 750 749.999995" height="1000" preserveAspectRatio="xMidYMid meet" version="1.0"><defs><clipPath id="id1"><path d="M 583.503906 415.371094 L 617.777344 415.371094 L 617.777344 475.632812 L 583.503906 475.632812 Z M 583.503906 415.371094 " clip-rule="nonzero"/></clipPath><clipPath id="id2"><path d="M 583.664062 416.675781 C 583.652344 415.597656 585.089844 415.230469 585.597656 416.179688 L 590.347656 425.066406 C 591.269531 426.78125 591.632812 428.738281 591.40625 430.667969 L 590.1875 436.054688 C 589.875 438.660156 590.691406 441.277344 592.4375 443.238281 C 596.621094 447.9375 605.453125 456.453125 617.613281 460.769531 C 615.863281 464.957031 613.078125 470.367188 608.917969 475.347656 C 599.921875 469.144531 592.050781 460.515625 587.355469 448.519531 C 585.382812 448.027344 583.988281 446.265625 583.960938 444.234375 Z M 583.664062 416.675781 " clip-rule="nonzero"/></clipPath><clipPath id="id3"><path d="M 583.664062 416.675781 C 583.648438 415.601562 585.089844 415.230469 585.59375 416.179688 L 590.347656 425.066406 C 591.265625 426.78125 591.636719 428.738281 591.40625 430.667969 L 590.1875 436.054688 C 589.875 438.664062 590.6875 441.277344 592.4375 443.238281 C 596.621094 447.9375 605.457031 456.453125 617.613281 460.769531 C 615.867188 464.957031 613.078125 470.367188 608.917969 475.347656 C 599.921875 469.144531 592.050781 460.515625 587.355469 448.519531 C 585.378906 448.027344 583.992188 446.265625 583.960938 444.234375 L 583.664062 416.675781 " clip-rule="nonzero"/></clipPath><clipPath id="id4"><path d="M 684.753906 698.171875 L 694.605469 698.171875 L 694.605469 710.773438 L 684.753906 710.773438 Z M 684.753906 698.171875 " clip-rule="nonzero"/></clipPath><clipPath id="id5"><path d="M 694.4375 700.464844 L 692.367188 709.289062 C 692.1875 710.050781 691.511719 710.597656 690.726562 710.601562 C 689.683594 710.601562 688.175781 710.519531 686.746094 710.113281 C 685.445312 709.746094 684.625 708.457031 684.777344 707.117188 L 685.753906 698.480469 Z M 694.4375 700.464844 " clip-rule="nonzero"/></clipPath><clipPath id="id6"><path d="M 694.4375 700.46875 L 692.367188 709.289062 C 692.183594 710.050781 691.511719 710.597656 690.726562 710.601562 C 689.683594 710.601562 688.171875 710.519531 686.746094 710.113281 C 685.441406 709.746094 684.625 708.457031 684.777344 707.117188 L 685.75 698.484375 L 694.4375 700.46875 " clip-rule="nonzero"/></clipPath><clipPath id="id7"><path d="M 639.449219 688.71875 L 648.902344 688.71875 L 648.902344 706.441406 L 639.449219 706.441406 Z M 639.449219 688.71875 " clip-rule="nonzero"/></clipPath><clipPath id="id8"><path d="M 648.839844 693.4375 L 646.078125 704.445312 C 645.769531 705.675781 644.519531 706.457031 643.292969 706.128906 C 642.546875 705.929688 641.671875 705.570312 640.75 704.9375 C 639.871094 704.339844 639.460938 703.242188 639.691406 702.207031 L 642.628906 688.851562 Z M 648.839844 693.4375 " clip-rule="nonzero"/></clipPath><clipPath id="id9"><path d="M 648.84375 693.4375 L 646.082031 704.445312 C 645.769531 705.675781 644.519531 706.457031 643.296875 706.128906 C 642.550781 705.929688 641.675781 705.570312 640.753906 704.9375 C 639.871094 704.339844 639.464844 703.242188 639.695312 702.207031 L 642.628906 688.851562 L 648.84375 693.4375 " clip-rule="nonzero"/></clipPath><clipPath id="id10"><path d="M 566 480 L 596.503906 480 L 596.503906 510.6875 L 566 510.6875 Z M 566 480 " clip-rule="nonzero"/></clipPath><clipPath id="id11"><path d="M 566.003906 484.292969 L 569.871094 480.195312 C 579.90625 488.886719 588.796875 491.683594 596.386719 491.246094 C 594.976562 497.746094 592.851562 504.144531 589.996094 510.457031 C 574.066406 502.597656 566.003906 484.292969 566.003906 484.292969 Z M 566.003906 484.292969 " clip-rule="nonzero"/></clipPath><clipPath id="id12"><path d="M 566.011719 484.292969 L 569.871094 480.191406 C 579.90625 488.886719 588.800781 491.683594 596.386719 491.246094 C 594.980469 497.746094 592.855469 504.144531 590 510.453125 C 574.070312 502.597656 566.011719 484.292969 566.011719 484.292969 " clip-rule="nonzero"/></clipPath><clipPath id="id13"><path d="M 533 471.300781 L 571 471.300781 L 571 484.691406 L 533 484.691406 Z M 533 471.300781 " clip-rule="nonzero"/></clipPath><clipPath id="id14"><path d="M 568.363281 484.640625 L 549.351562 483.246094 L 533.023438 471.550781 C 535.699219 470.265625 549.484375 475.0625 549.484375 475.0625 C 549.484375 475.0625 564.527344 474.496094 568.53125 474.941406 C 571.855469 475.3125 570.839844 480.039062 570.402344 481.628906 C 570.3125 481.949219 570.246094 482.144531 570.246094 482.144531 Z M 568.363281 484.640625 " clip-rule="nonzero"/></clipPath><clipPath id="id15"><path d="M 568.363281 484.644531 L 549.347656 483.25 L 533.019531 471.550781 C 535.699219 470.265625 549.484375 475.066406 549.484375 475.066406 C 549.484375 475.066406 564.523438 474.496094 568.527344 474.941406 C 571.855469 475.3125 570.839844 480.039062 570.402344 481.628906 C 570.308594 481.953125 570.242188 482.144531 570.242188 482.144531 L 568.363281 484.644531 " clip-rule="nonzero"/></clipPath><clipPath id="id16"><path d="M 643.386719 428 L 667.8125 428 L 667.8125 459 L 643.386719 459 Z M 643.386719 428 " clip-rule="nonzero"/></clipPath><clipPath id="id17"><path d="M 660.3125 428.234375 L 667.554688 453.726562 C 667.554688 453.726562 655.183594 460.375 646.035156 458.578125 L 643.519531 436.109375 Z M 660.3125 428.234375 " clip-rule="nonzero"/></clipPath><clipPath id="id18"><path d="M 660.316406 428.234375 L 667.554688 453.726562 C 667.554688 453.726562 655.183594 460.375 646.039062 458.578125 L 643.519531 436.109375 L 660.316406 428.234375 " clip-rule="nonzero"/></clipPath><clipPath id="id19"><path d="M 645.53125 467.027344 L 676.457031 457.683594 L 665.542969 421.582031 L 634.621094 430.925781 Z M 645.53125 467.027344 " clip-rule="nonzero"/></clipPath><linearGradient x1="0.153459" gradientTransform="matrix(-15.91438, -52.64616, 52.661137, -15.909854, 661.199578, 469.827957)" y1="0" x2="0.816884" gradientUnits="userSpaceOnUse" y2="0" id="id20"><stop stop-opacity="1" stop-color="rgb(99.198914%, 99.198914%, 99.382019%)" offset="0"/><stop stop-opacity="1" stop-color="rgb(99.09668%, 99.09668%, 99.290466%)" offset="0.0625"/><stop stop-opacity="1" stop-color="rgb(98.800659%, 98.800659%, 99.102783%)" offset="0.125"/><stop stop-opacity="1" stop-color="rgb(98.420715%, 98.420715%, 98.820496%)" offset="0.25"/><stop stop-opacity="1" stop-color="rgb(98.040771%, 98.040771%, 98.516846%)" offset="0.3125"/><stop stop-opacity="1" stop-color="rgb(97.671509%, 97.671509%, 98.329163%)" offset="0.375"/><stop stop-opacity="1" stop-color="rgb(97.340393%, 97.340393%, 98.129272%)" offset="0.5"/><stop stop-opacity="1" stop-color="rgb(96.994019%, 96.994019%, 97.950745%)" offset="0.5625"/><stop stop-opacity="1" stop-color="rgb(96.650696%, 96.650696%, 97.750854%)" offset="0.625"/><stop stop-opacity="1" stop-color="rgb(96.463013%, 96.463013%, 97.572327%)" offset="0.6875"/><stop stop-opacity="1" stop-color="rgb(96.232605%, 96.232605%, 97.422791%)" offset="0.75"/><stop stop-opacity="1" stop-color="rgb(95.86792%, 95.86792%, 97.276306%)" offset="0.8125"/><stop stop-opacity="1" stop-color="rgb(95.681763%, 95.681763%, 97.076416%)" offset="0.875"/><stop stop-opacity="1" stop-color="rgb(95.472717%, 95.472717%, 96.890259%)" offset="0.9375"/><stop stop-opacity="1" stop-color="rgb(95.089722%, 95.089722%, 96.690369%)" offset="1"/></linearGradient><clipPath id="id21"><path d="M 631.566406 405.132812 L 668.207031 405.132812 L 668.207031 443.730469 L 631.566406 443.730469 Z M 631.566406 405.132812 " clip-rule="nonzero"/></clipPath><clipPath id="id22"><path d="M 643.757812 405.355469 C 643.757812 405.355469 635.042969 419.289062 633.4375 427.050781 C 631.832031 434.808594 629.386719 439.632812 638.203125 442.5625 C 647.015625 445.488281 655.3125 442.121094 660.605469 434.9375 C 660.605469 434.9375 668.871094 423.898438 668.152344 418.761719 C 667.4375 413.628906 643.757812 405.355469 643.757812 405.355469 Z M 643.757812 405.355469 " clip-rule="nonzero"/></clipPath><clipPath id="id23"><path d="M 643.761719 405.355469 C 643.761719 405.355469 635.046875 419.289062 633.441406 427.050781 C 631.835938 434.808594 629.394531 439.632812 638.207031 442.558594 C 647.019531 445.484375 655.316406 442.117188 660.609375 434.9375 C 660.609375 434.9375 668.871094 423.898438 668.15625 418.761719 C 667.441406 413.625 643.761719 405.355469 643.761719 405.355469 " clip-rule="nonzero"/></clipPath><clipPath id="id24"><path d="M 657.570312 423.644531 L 667 423.644531 L 667 434.671875 L 657.570312 434.671875 Z M 657.570312 423.644531 " clip-rule="nonzero"/></clipPath><clipPath id="id25"><path d="M 657.855469 430.261719 C 657.855469 430.261719 661.753906 421.109375 665.628906 424.417969 C 669.496094 427.726562 661.816406 434.757812 658.332031 434.601562 Z M 657.855469 430.261719 " clip-rule="nonzero"/></clipPath><clipPath id="id26"><path d="M 657.851562 430.265625 C 657.851562 430.265625 661.753906 421.113281 665.628906 424.417969 C 669.496094 427.730469 661.816406 434.757812 658.328125 434.601562 L 657.851562 430.265625 " clip-rule="nonzero"/></clipPath><clipPath id="id27"><path d="M 214 353.140625 L 228.917969 353.140625 L 228.917969 398 L 214 398 Z M 214 353.140625 " clip-rule="nonzero"/></clipPath><clipPath id="id28"><path d="M 221.742188 396.742188 L 221.9375 390.226562 L 215.128906 376.703125 C 213.882812 374.230469 213.871094 371.316406 215.101562 368.835938 L 222.816406 353.265625 C 222.816406 353.265625 227.273438 387.0625 228.445312 389.875 C 229.617188 392.683594 225.265625 397.734375 225.265625 397.734375 Z M 221.742188 396.742188 " clip-rule="nonzero"/></clipPath><clipPath id="id29"><path d="M 221.742188 396.742188 L 221.9375 390.226562 L 215.128906 376.703125 C 213.882812 374.230469 213.871094 371.316406 215.101562 368.835938 L 222.816406 353.265625 C 222.816406 353.265625 227.273438 387.0625 228.445312 389.875 C 229.617188 392.683594 225.265625 397.734375 225.265625 397.734375 L 221.742188 396.742188 " clip-rule="nonzero"/></clipPath><clipPath id="id30"><path d="M 216.457031 347.4375 L 246.085938 360.558594 L 227.035156 403.5625 L 197.402344 390.441406 Z M 216.457031 347.4375 " clip-rule="nonzero"/></clipPath><linearGradient x1="-0.126248" gradientTransform="matrix(-60.15572, 135.787261, 135.825881, 60.138607, 225.470211, 372.245127)" y1="0" x2="0.188341" gradientUnits="userSpaceOnUse" y2="0" id="id31"><stop stop-opacity="1" stop-color="rgb(100%, 100%, 100%)" offset="0"/><stop stop-opacity="1" stop-color="rgb(99.996948%, 99.996948%, 99.996948%)" offset="0.5"/><stop stop-opacity="1" stop-color="rgb(99.894714%, 99.894714%, 99.894714%)" offset="0.5625"/><stop stop-opacity="1" stop-color="rgb(99.69635%, 99.69635%, 99.69635%)" offset="0.625"/><stop stop-opacity="1" stop-color="rgb(99.598694%, 99.598694%, 99.598694%)" offset="0.75"/><stop stop-opacity="1" stop-color="rgb(99.499512%, 99.499512%, 99.598694%)" offset="0.8125"/><stop stop-opacity="1" stop-color="rgb(99.302673%, 99.302673%, 99.598694%)" offset="0.875"/><stop stop-opacity="1" stop-color="rgb(99.104309%, 99.104309%, 99.501038%)" offset="0.9375"/><stop stop-opacity="1" stop-color="rgb(98.904419%, 98.904419%, 99.305725%)" offset="1"/></linearGradient><clipPath id="id32"><path d="M 185 389.769531 L 231.675781 389.769531 L 231.675781 459.484375 L 185 459.484375 Z M 185 389.769531 " clip-rule="nonzero"/></clipPath><clipPath id="id33"><path d="M 221.742188 396.742188 C 221.742188 396.742188 223.214844 440.058594 185.136719 438.785156 C 185.136719 438.785156 196.886719 457.953125 203.019531 459.113281 C 203.019531 459.113281 241.972656 445.597656 228.445312 389.875 Z M 221.742188 396.742188 " clip-rule="nonzero"/></clipPath><clipPath id="id34"><path d="M 221.742188 396.742188 C 221.742188 396.742188 223.214844 440.058594 185.136719 438.785156 C 185.136719 438.785156 196.886719 457.953125 203.019531 459.113281 C 203.019531 459.113281 241.972656 445.597656 228.445312 389.875 L 221.742188 396.742188 " clip-rule="nonzero"/></clipPath><clipPath id="id35"><path d="M 194.457031 368.839844 L 267.613281 401.230469 L 232.652344 480.152344 L 159.496094 447.761719 Z M 194.457031 368.839844 " clip-rule="nonzero"/></clipPath><linearGradient x1="0.107473" gradientTransform="matrix(-43.522236, 98.241118, 98.269065, 43.509857, 232.292301, 377.519947)" y1="0" x2="0.872022" gradientUnits="userSpaceOnUse" y2="0" id="id36"><stop stop-opacity="1" stop-color="rgb(99.295044%, 99.295044%, 99.598694%)" offset="0"/><stop stop-opacity="1" stop-color="rgb(99.246216%, 99.246216%, 99.455261%)" offset="0.0625"/><stop stop-opacity="1" stop-color="rgb(99.066162%, 99.066162%, 99.255371%)" offset="0.125"/><stop stop-opacity="1" stop-color="rgb(98.744202%, 98.744202%, 99.075317%)" offset="0.1875"/><stop stop-opacity="1" stop-color="rgb(98.362732%, 98.362732%, 98.875427%)" offset="0.25"/><stop stop-opacity="1" stop-color="rgb(97.982788%, 97.982788%, 98.695374%)" offset="0.3125"/><stop stop-opacity="1" stop-color="rgb(97.695923%, 97.695923%, 98.495483%)" offset="0.375"/><stop stop-opacity="1" stop-color="rgb(97.537231%, 97.537231%, 98.31543%)" offset="0.4375"/><stop stop-opacity="1" stop-color="rgb(97.312927%, 97.312927%, 98.11554%)" offset="0.5"/><stop stop-opacity="1" stop-color="rgb(96.960449%, 96.960449%, 97.935486%)" offset="0.5625"/><stop stop-opacity="1" stop-color="rgb(96.580505%, 96.580505%, 97.694397%)" offset="0.625"/><stop stop-opacity="1" stop-color="rgb(96.209717%, 96.209717%, 97.372437%)" offset="0.75"/><stop stop-opacity="1" stop-color="rgb(95.840454%, 95.840454%, 97.064209%)" offset="0.8125"/><stop stop-opacity="1" stop-color="rgb(95.458984%, 95.458984%, 96.882629%)" offset="0.875"/><stop stop-opacity="1" stop-color="rgb(95.079041%, 95.079041%, 96.682739%)" offset="0.9375"/><stop stop-opacity="1" stop-color="rgb(94.697571%, 94.697571%, 96.499634%)" offset="1"/></linearGradient><clipPath id="id37"><path d="M 155.242188 603.640625 L 180.851562 603.640625 L 180.851562 714.714844 L 155.242188 714.714844 Z M 155.242188 603.640625 " clip-rule="nonzero"/></clipPath><clipPath id="id38"><path d="M 173.605469 603.988281 L 175.210938 613.417969 C 175.210938 613.417969 169.839844 667.792969 168.886719 689.546875 C 168.734375 692.957031 169.617188 696.324219 171.410156 699.230469 L 180.746094 714.390625 L 157.015625 700.386719 L 156.542969 697.492188 L 160.429688 692.15625 L 155.339844 631.238281 C 155.039062 627.664062 155.777344 624.070312 157.46875 620.902344 L 162.375 611.683594 Z M 173.605469 603.988281 " clip-rule="nonzero"/></clipPath><clipPath id="id39"><path d="M 173.605469 603.988281 L 175.210938 613.417969 C 175.210938 613.417969 169.839844 667.792969 168.886719 689.546875 C 168.734375 692.957031 169.617188 696.324219 171.410156 699.230469 L 180.746094 714.390625 L 157.015625 700.386719 L 156.542969 697.492188 L 160.429688 692.15625 L 155.339844 631.238281 C 155.039062 627.664062 155.777344 624.070312 157.46875 620.902344 L 162.375 611.683594 L 173.605469 603.988281 " clip-rule="nonzero"/></clipPath><clipPath id="id40"><path d="M 180.667969 602.585938 L 149.023438 604.316406 L 155.117188 715.789062 L 186.761719 714.0625 Z M 180.667969 602.585938 " clip-rule="nonzero"/></clipPath><linearGradient x1="-0.649912" gradientTransform="matrix(3.858183, 70.580315, -70.600395, 3.857085, 165.581391, 649.43092)" y1="0" x2="0.929317" gradientUnits="userSpaceOnUse" y2="0" id="id41"><stop stop-opacity="1" stop-color="rgb(100%, 100%, 100%)" offset="0"/><stop stop-opacity="1" stop-color="rgb(100%, 100%, 100%)" offset="0.25"/><stop stop-opacity="1" stop-color="rgb(100%, 100%, 100%)" offset="0.375"/><stop stop-opacity="1" stop-color="rgb(100%, 100%, 100%)" offset="0.4375"/><stop stop-opacity="1" stop-color="rgb(99.902344%, 99.902344%, 99.902344%)" offset="0.453125"/><stop stop-opacity="1" stop-color="rgb(99.705505%, 99.705505%, 99.705505%)" offset="0.46875"/><stop stop-opacity="1" stop-color="rgb(99.504089%, 99.504089%, 99.601746%)" offset="0.484375"/><stop stop-opacity="1" stop-color="rgb(99.302673%, 99.302673%, 99.598694%)" offset="0.5"/><stop stop-opacity="1" stop-color="rgb(99.101257%, 99.101257%, 99.499512%)" offset="0.515625"/><stop stop-opacity="1" stop-color="rgb(98.899841%, 98.899841%, 99.299622%)" offset="0.53125"/><stop stop-opacity="1" stop-color="rgb(98.799133%, 98.799133%, 99.198914%)" offset="0.5625"/><stop stop-opacity="1" stop-color="rgb(98.703003%, 98.703003%, 99.102783%)" offset="0.578125"/><stop stop-opacity="1" stop-color="rgb(98.506165%, 98.506165%, 98.905945%)" offset="0.59375"/><stop stop-opacity="1" stop-color="rgb(98.304749%, 98.304749%, 98.802185%)" offset="0.609375"/><stop stop-opacity="1" stop-color="rgb(98.103333%, 98.103333%, 98.799133%)" offset="0.625"/><stop stop-opacity="1" stop-color="rgb(97.901917%, 97.901917%, 98.699951%)" offset="0.640625"/><stop stop-opacity="1" stop-color="rgb(97.7005%, 97.7005%, 98.500061%)" offset="0.65625"/><stop stop-opacity="1" stop-color="rgb(97.453308%, 97.453308%, 98.204041%)" offset="0.6875"/><stop stop-opacity="1" stop-color="rgb(97.302246%, 97.302246%, 98.00415%)" offset="0.71875"/><stop stop-opacity="1" stop-color="rgb(97.201538%, 97.201538%, 97.901917%)" offset="0.734375"/><stop stop-opacity="1" stop-color="rgb(97.0047%, 97.0047%, 97.703552%)" offset="0.75"/><stop stop-opacity="1" stop-color="rgb(96.801758%, 96.801758%, 97.601318%)" offset="0.765625"/><stop stop-opacity="1" stop-color="rgb(96.600342%, 96.600342%, 97.599792%)" offset="0.78125"/><stop stop-opacity="1" stop-color="rgb(96.304321%, 96.304321%, 97.453308%)" offset="0.8125"/><stop stop-opacity="1" stop-color="rgb(96.008301%, 96.008301%, 97.302246%)" offset="0.828125"/><stop stop-opacity="1" stop-color="rgb(95.808411%, 95.808411%, 97.299194%)" offset="0.84375"/><stop stop-opacity="1" stop-color="rgb(95.703125%, 95.703125%, 97.201538%)" offset="0.859375"/><stop stop-opacity="1" stop-color="rgb(95.698547%, 95.698547%, 97.0047%)" offset="0.875"/><stop stop-opacity="1" stop-color="rgb(95.600891%, 95.600891%, 96.90094%)" offset="0.890625"/><stop stop-opacity="1" stop-color="rgb(95.401001%, 95.401001%, 96.899414%)" offset="0.90625"/><stop stop-opacity="1" stop-color="rgb(95.10498%, 95.10498%, 96.704102%)" offset="0.9375"/><stop stop-opacity="1" stop-color="rgb(94.810486%, 94.810486%, 96.504211%)" offset="0.953125"/><stop stop-opacity="1" stop-color="rgb(94.60907%, 94.60907%, 96.499634%)" offset="0.96875"/><stop stop-opacity="1" stop-color="rgb(94.503784%, 94.503784%, 96.401978%)" offset="0.984375"/><stop stop-opacity="1" stop-color="rgb(94.499207%, 94.499207%, 96.205139%)" offset="1"/></linearGradient><clipPath id="id42"><path d="M 84 604.429688 L 141.453125 604.429688 L 141.453125 711.167969 L 84 711.167969 Z M 84 604.429688 " clip-rule="nonzero"/></clipPath><clipPath id="id43"><path d="M 141.105469 608.464844 C 141.105469 608.464844 109.644531 668.121094 104.644531 681.742188 C 99.644531 695.363281 97.894531 706.726562 97.828125 707.800781 C 97.722656 709.480469 95.628906 711.09375 89.863281 711.09375 C 86.890625 711.09375 85.433594 709.902344 84.71875 708.75 C 84.109375 707.765625 84.078125 706.53125 84.589844 705.492188 C 86.410156 701.8125 92.183594 690.046875 94.324219 684.710938 C 96.878906 678.339844 102.371094 649.464844 105.382812 639.425781 C 108.394531 629.390625 111.800781 618.496094 124.917969 608.464844 C 124.917969 608.464844 133.921875 599.648438 141.105469 608.464844 Z M 141.105469 608.464844 " clip-rule="nonzero"/></clipPath><clipPath id="id44"><path d="M 141.105469 608.464844 C 141.105469 608.464844 109.644531 668.121094 104.644531 681.742188 C 99.644531 695.363281 97.894531 706.726562 97.828125 707.800781 C 97.722656 709.480469 95.628906 711.09375 89.863281 711.09375 C 86.890625 711.09375 85.433594 709.902344 84.71875 708.75 C 84.109375 707.765625 84.078125 706.53125 84.589844 705.492188 C 86.410156 701.8125 92.183594 690.046875 94.324219 684.710938 C 96.878906 678.339844 102.371094 649.464844 105.382812 639.425781 C 108.394531 629.390625 111.800781 618.496094 124.917969 608.464844 C 124.917969 608.464844 133.921875 599.648438 141.105469 608.464844 " clip-rule="nonzero"/></clipPath><clipPath id="id45"><path d="M 187.148438 623.964844 L 96.523438 576.101562 L 38.035156 686.777344 L 128.660156 734.640625 Z M 187.148438 623.964844 " clip-rule="nonzero"/></clipPath><linearGradient x1="-0.68093" gradientTransform="matrix(-32.407249, 61.323757, -61.341206, -32.398033, 115.957209, 644.559521)" y1="0" x2="1.062861" gradientUnits="userSpaceOnUse" y2="0" id="id46"><stop stop-opacity="1" stop-color="rgb(100%, 100%, 100%)" offset="0"/><stop stop-opacity="1" stop-color="rgb(100%, 100%, 100%)" offset="0.25"/><stop stop-opacity="1" stop-color="rgb(100%, 100%, 100%)" offset="0.375"/><stop stop-opacity="1" stop-color="rgb(99.879456%, 99.879456%, 99.879456%)" offset="0.4375"/><stop stop-opacity="1" stop-color="rgb(99.565125%, 99.565125%, 99.679565%)" offset="0.46875"/><stop stop-opacity="1" stop-color="rgb(99.176025%, 99.176025%, 99.490356%)" offset="0.5"/><stop stop-opacity="1" stop-color="rgb(98.788452%, 98.788452%, 99.189758%)" offset="0.53125"/><stop stop-opacity="1" stop-color="rgb(98.405457%, 98.405457%, 98.898315%)" offset="0.5625"/><stop stop-opacity="1" stop-color="rgb(98.019409%, 98.019409%, 98.712158%)" offset="0.59375"/><stop stop-opacity="1" stop-color="rgb(97.650146%, 97.650146%, 98.429871%)" offset="0.625"/><stop stop-opacity="1" stop-color="rgb(97.312927%, 97.312927%, 98.117065%)" offset="0.65625"/><stop stop-opacity="1" stop-color="rgb(97.024536%, 97.024536%, 97.93396%)" offset="0.6875"/><stop stop-opacity="1" stop-color="rgb(96.839905%, 96.839905%, 97.73407%)" offset="0.71875"/><stop stop-opacity="1" stop-color="rgb(96.585083%, 96.585083%, 97.558594%)" offset="0.75"/><stop stop-opacity="1" stop-color="rgb(96.19751%, 96.19751%, 97.360229%)" offset="0.78125"/><stop stop-opacity="1" stop-color="rgb(95.814514%, 95.814514%, 97.052002%)" offset="0.8125"/><stop stop-opacity="1" stop-color="rgb(95.429993%, 95.429993%, 96.867371%)" offset="0.84375"/><stop stop-opacity="1" stop-color="rgb(95.039368%, 95.039368%, 96.640015%)" offset="0.875"/><stop stop-opacity="1" stop-color="rgb(94.651794%, 94.651794%, 96.272278%)" offset="0.90625"/><stop stop-opacity="1" stop-color="rgb(94.273376%, 94.273376%, 96.09375%)" offset="0.9375"/><stop stop-opacity="1" stop-color="rgb(93.893433%, 93.893433%, 95.89386%)" offset="1"/></linearGradient><clipPath id="id47"><path d="M 163.515625 413.007812 L 183.214844 413.007812 L 183.214844 448 L 163.515625 448 Z M 163.515625 413.007812 " clip-rule="nonzero"/></clipPath><clipPath id="id48"><path d="M 170.394531 416.074219 L 163.796875 445.699219 C 163.167969 448.308594 165.546875 447.882812 168.1875 447.382812 C 172.507812 446.570312 178.078125 444.890625 179.941406 441.527344 C 180.128906 441.1875 180.222656 440.800781 180.277344 440.414062 L 183.113281 419.871094 C 183.335938 418.238281 182.457031 416.660156 180.949219 415.988281 L 175.480469 413.570312 C 173.375 412.632812 170.9375 413.835938 170.394531 416.074219 Z M 170.394531 416.074219 " clip-rule="nonzero"/></clipPath><clipPath id="id49"><path d="M 170.394531 416.074219 L 163.796875 445.699219 C 163.167969 448.308594 165.546875 447.882812 168.1875 447.382812 C 172.507812 446.570312 178.078125 444.890625 179.941406 441.527344 C 180.128906 441.1875 180.222656 440.800781 180.277344 440.414062 L 183.113281 419.871094 C 183.335938 418.238281 182.457031 416.660156 180.949219 415.988281 L 175.480469 413.570312 C 173.375 412.632812 170.9375 413.835938 170.394531 416.074219 " clip-rule="nonzero"/></clipPath><clipPath id="id50"><path d="M 153.402344 445.398438 L 181.691406 453.828125 L 193.101562 415.542969 L 164.8125 407.117188 Z M 153.402344 445.398438 " clip-rule="nonzero"/></clipPath><linearGradient x1="0.0576926" gradientTransform="matrix(17.360971, -58.238216, 58.254787, 17.356033, 167.953951, 453.043107)" y1="0" x2="0.703065" gradientUnits="userSpaceOnUse" y2="0" id="id51"><stop stop-opacity="1" stop-color="rgb(99.598694%, 99.598694%, 99.598694%)" offset="0"/><stop stop-opacity="1" stop-color="rgb(99.575806%, 99.575806%, 99.598694%)" offset="0.0625"/><stop stop-opacity="1" stop-color="rgb(99.375916%, 99.375916%, 99.578857%)" offset="0.125"/><stop stop-opacity="1" stop-color="rgb(99.183655%, 99.183655%, 99.378967%)" offset="0.1875"/><stop stop-opacity="1" stop-color="rgb(99.07074%, 99.07074%, 99.198914%)" offset="0.21875"/><stop stop-opacity="1" stop-color="rgb(98.872375%, 98.872375%, 99.186707%)" offset="0.25"/><stop stop-opacity="1" stop-color="rgb(98.582458%, 98.582458%, 98.982239%)" offset="0.375"/><stop stop-opacity="1" stop-color="rgb(98.194885%, 98.194885%, 98.594666%)" offset="0.4375"/><stop stop-opacity="1" stop-color="rgb(97.901917%, 97.901917%, 98.399353%)" offset="0.46875"/><stop stop-opacity="1" stop-color="rgb(97.703552%, 97.703552%, 98.399353%)" offset="0.5"/><stop stop-opacity="1" stop-color="rgb(97.460938%, 97.460938%, 98.210144%)" offset="0.625"/><stop stop-opacity="1" stop-color="rgb(97.123718%, 97.123718%, 98.010254%)" offset="0.6875"/><stop stop-opacity="1" stop-color="rgb(96.914673%, 96.914673%, 97.817993%)" offset="0.75"/><stop stop-opacity="1" stop-color="rgb(96.722412%, 96.722412%, 97.618103%)" offset="0.8125"/><stop stop-opacity="1" stop-color="rgb(96.447754%, 96.447754%, 97.543335%)" offset="0.84375"/><stop stop-opacity="1" stop-color="rgb(96.250916%, 96.250916%, 97.412109%)" offset="0.875"/><stop stop-opacity="1" stop-color="rgb(95.959473%, 95.959473%, 97.15271%)" offset="1"/></linearGradient><clipPath id="id52"><path d="M 164 387.011719 L 193.855469 387.011719 L 193.855469 420 L 164 420 Z M 164 387.011719 " clip-rule="nonzero"/></clipPath><clipPath id="id53"><path d="M 178.136719 387.863281 C 178.136719 387.863281 185.949219 391.164062 191.261719 402.449219 C 196.578125 413.738281 192.609375 418.949219 187.625 419.664062 C 182.640625 420.382812 175.1875 420.273438 167.304688 412.980469 C 159.421875 405.691406 167.980469 383.957031 178.136719 387.863281 Z M 178.136719 387.863281 " clip-rule="nonzero"/></clipPath><clipPath id="id54"><path d="M 178.136719 387.863281 C 178.136719 387.863281 185.949219 391.164062 191.261719 402.449219 C 196.578125 413.738281 192.609375 418.949219 187.625 419.664062 C 182.640625 420.382812 175.1875 420.273438 167.304688 412.980469 C 159.421875 405.691406 167.980469 383.957031 178.136719 387.863281 " clip-rule="nonzero"/></clipPath><clipPath id="id55"><path d="M 162.730469 402.769531 L 171 402.769531 L 171 413 L 162.730469 413 Z M 162.730469 402.769531 " clip-rule="nonzero"/></clipPath><clipPath id="id56"><path d="M 170.960938 408.792969 C 170.960938 408.792969 167.980469 400.285156 164.003906 403.675781 C 160.03125 407.058594 167.238281 411.53125 170.058594 412.980469 Z M 170.960938 408.792969 " clip-rule="nonzero"/></clipPath><clipPath id="id57"><path d="M 170.960938 408.792969 C 170.960938 408.792969 167.980469 400.285156 164.003906 403.675781 C 160.03125 407.058594 167.238281 411.53125 170.058594 412.980469 L 170.960938 408.792969 " clip-rule="nonzero"/></clipPath><clipPath id="id58"><path d="M 156.425781 430.339844 L 254 430.339844 L 254 474 L 156.425781 474 Z M 156.425781 430.339844 " clip-rule="nonzero"/></clipPath><clipPath id="id59"><path d="M 249.207031 430.503906 C 249.207031 430.503906 229.242188 475.320312 165.472656 451.144531 C 161.269531 449.546875 157.058594 454.097656 156.710938 458.574219 L 156.519531 460.996094 C 156.019531 467.484375 161.3125 472.957031 167.816406 472.628906 C 191.105469 471.449219 224.554688 485.058594 253.9375 445.597656 Z M 249.207031 430.503906 " clip-rule="nonzero"/></clipPath><clipPath id="id60"><path d="M 249.207031 430.503906 C 249.207031 430.503906 229.242188 475.320312 165.472656 451.144531 C 161.269531 449.546875 157.058594 454.097656 156.710938 458.574219 L 156.519531 460.996094 C 156.019531 467.484375 161.3125 472.957031 167.816406 472.628906 C 191.105469 471.449219 224.554688 485.058594 253.9375 445.597656 L 249.207031 430.503906 " clip-rule="nonzero"/></clipPath><clipPath id="id61"><path d="M 248.222656 404.738281 L 258.46875 404.738281 L 258.46875 445.699219 L 248.222656 445.699219 Z M 248.222656 404.738281 " clip-rule="nonzero"/></clipPath><clipPath id="id62"><path d="M 253.9375 445.597656 C 253.9375 445.597656 257.277344 435.777344 258.113281 429.640625 C 258.953125 423.507812 255.867188 409.734375 253.214844 405.863281 C 250.5625 401.992188 250.121094 411.484375 248.925781 415.945312 C 247.730469 420.40625 249.753906 426.769531 249.753906 426.769531 L 248.535156 435.113281 Z M 253.9375 445.597656 " clip-rule="nonzero"/></clipPath><clipPath id="id63"><path d="M 253.9375 445.597656 C 253.9375 445.597656 257.277344 435.777344 258.113281 429.640625 C 258.953125 423.507812 255.867188 409.734375 253.214844 405.863281 C 250.5625 401.992188 250.121094 411.484375 248.925781 415.945312 C 247.730469 420.40625 249.753906 426.769531 249.753906 426.769531 L 248.535156 435.113281 L 253.9375 445.597656 " clip-rule="nonzero"/></clipPath></defs><path fill="#efeff4" d="M 651.457031 624.449219 C 636.820312 639.855469 622.972656 649.789062 612.03125 657.632812 C 483.417969 749.886719 331.246094 722.996094 298.90625 716.425781 C 251.144531 706.730469 158.828125 687.984375 92.085938 609.519531 C -8.890625 490.804688 6.832031 303.777344 85.15625 180.316406 C 99.484375 157.734375 175.164062 32.394531 328.976562 12.296875 C 422.0625 0.128906 530.574219 24.660156 609.152344 90.480469 C 774.101562 228.632812 762.359375 507.726562 651.457031 624.449219 " fill-opacity="1" fill-rule="nonzero"/><path fill="#e3e4ea" d="M 244.625 88.261719 C 243.453125 88.261719 242.386719 87.46875 242.09375 86.28125 C 241.425781 83.566406 240.628906 80.84375 239.726562 78.175781 C 239.269531 76.835938 239.980469 75.375 241.3125 74.890625 L 241.359375 74.875 C 241.636719 74.785156 241.917969 74.738281 242.195312 74.738281 C 243.28125 74.738281 244.296875 75.421875 244.664062 76.507812 C 245.613281 79.308594 246.453125 82.179688 247.15625 85.035156 C 247.476562 86.339844 246.75 87.660156 245.511719 88.105469 C 245.425781 88.140625 245.335938 88.164062 245.25 88.183594 C 245.039062 88.238281 244.828125 88.261719 244.625 88.261719 M 236.78125 66.96875 C 235.824219 66.96875 234.90625 66.445312 234.449219 65.53125 C 233.191406 63.015625 231.816406 60.53125 230.359375 58.148438 C 229.609375 56.921875 229.996094 55.316406 231.222656 54.566406 C 231.648438 54.308594 232.121094 54.1875 232.582031 54.1875 C 233.460938 54.1875 234.3125 54.632812 234.804688 55.4375 C 236.339844 57.941406 237.789062 60.554688 239.109375 63.195312 C 239.753906 64.484375 239.230469 66.050781 237.941406 66.695312 C 237.851562 66.738281 237.753906 66.78125 237.660156 66.8125 C 237.371094 66.917969 237.074219 66.96875 236.78125 66.96875 " fill-opacity="1" fill-rule="nonzero"/><path fill="#eeeff2" d="M 222.3125 46.859375 C 220.566406 44.738281 218.707031 42.671875 216.785156 40.703125 C 215.777344 39.675781 215.796875 38.027344 216.828125 37.023438 C 217.332031 36.527344 217.992188 36.28125 218.648438 36.28125 C 219.324219 36.28125 220 36.542969 220.511719 37.0625 C 222.574219 39.175781 224.570312 41.402344 226.441406 43.675781 C 226.632812 43.90625 226.777344 44.164062 226.875 44.433594 C 225.339844 45.234375 223.820312 46.042969 222.3125 46.859375 " fill-opacity="1" fill-rule="nonzero"/><path fill="#e3e4ea" d="M 224.429688 47.9375 C 223.679688 47.9375 222.929688 47.609375 222.414062 46.984375 C 222.382812 46.941406 222.347656 46.902344 222.3125 46.855469 C 223.820312 46.042969 225.339844 45.234375 226.875 44.433594 C 227.246094 45.441406 226.960938 46.621094 226.082031 47.347656 C 225.847656 47.542969 225.585938 47.6875 225.3125 47.785156 C 225.027344 47.886719 224.730469 47.9375 224.429688 47.9375 " fill-opacity="1" fill-rule="nonzero"/><path fill="#eeeff2" d="M 75.261719 39.710938 C 74.585938 39.710938 73.90625 39.449219 73.398438 38.917969 C 72.394531 37.890625 72.414062 36.242188 73.445312 35.238281 C 75.554688 33.179688 77.789062 31.1875 80.074219 29.320312 C 80.558594 28.921875 81.140625 28.730469 81.722656 28.730469 C 82.476562 28.730469 83.226562 29.054688 83.742188 29.6875 C 84.652344 30.796875 84.488281 32.4375 83.375 33.347656 C 81.203125 35.128906 79.085938 37.015625 77.082031 38.972656 C 76.804688 39.238281 76.488281 39.433594 76.148438 39.554688 C 75.863281 39.65625 75.5625 39.710938 75.261719 39.710938 M 208.125 32.140625 C 207.570312 32.140625 207.011719 31.96875 206.535156 31.601562 C 204.316406 29.886719 201.996094 28.25 199.640625 26.734375 C 198.429688 25.957031 198.078125 24.34375 198.859375 23.132812 C 199.355469 22.363281 200.199219 21.9375 201.054688 21.9375 C 201.535156 21.9375 202.023438 22.074219 202.460938 22.351562 C 204.941406 23.949219 207.382812 25.675781 209.722656 27.472656 C 210.859375 28.351562 211.070312 29.988281 210.191406 31.128906 C 209.878906 31.53125 209.464844 31.828125 209.015625 31.988281 C 208.730469 32.089844 208.429688 32.140625 208.125 32.140625 M 93.207031 25.808594 C 92.328125 25.808594 91.472656 25.363281 90.980469 24.554688 C 90.234375 23.332031 90.625 21.726562 91.851562 20.976562 C 94.371094 19.449219 96.988281 18.003906 99.632812 16.6875 C 100.003906 16.503906 100.402344 16.414062 100.789062 16.414062 C 101.75 16.414062 102.671875 16.949219 103.128906 17.859375 C 103.765625 19.144531 103.242188 20.710938 101.953125 21.351562 C 99.441406 22.601562 96.953125 23.972656 94.5625 25.429688 C 94.410156 25.523438 94.25 25.597656 94.085938 25.652344 C 93.800781 25.757812 93.503906 25.808594 93.207031 25.808594 M 188.71875 20.375 C 188.351562 20.375 187.980469 20.296875 187.625 20.128906 C 185.085938 18.957031 182.460938 17.875 179.820312 16.910156 C 178.46875 16.417969 177.773438 14.929688 178.265625 13.574219 C 178.648438 12.515625 179.648438 11.859375 180.710938 11.859375 C 181.007812 11.859375 181.308594 11.910156 181.601562 12.019531 C 184.378906 13.027344 187.140625 14.164062 189.8125 15.40625 C 191.121094 16.007812 191.691406 17.554688 191.085938 18.863281 C 190.78125 19.523438 190.234375 19.992188 189.601562 20.21875 C 189.320312 20.316406 189.019531 20.375 188.71875 20.375 M 113.789062 16.238281 C 112.703125 16.238281 111.6875 15.546875 111.320312 14.457031 C 110.871094 13.113281 111.578125 11.660156 112.90625 11.179688 L 112.960938 11.164062 C 115.757812 10.222656 118.628906 9.386719 121.492188 8.6875 C 121.699219 8.632812 121.90625 8.613281 122.109375 8.613281 C 123.285156 8.613281 124.351562 9.410156 124.640625 10.601562 C 124.960938 11.902344 124.234375 13.222656 122.996094 13.667969 C 122.90625 13.699219 122.820312 13.726562 122.726562 13.75 C 120.007812 14.410156 117.28125 15.203125 114.625 16.09375 C 114.347656 16.1875 114.066406 16.238281 113.789062 16.238281 M 167.195312 13.191406 C 167.015625 13.191406 166.832031 13.171875 166.648438 13.136719 C 163.90625 12.546875 161.109375 12.070312 158.324219 11.722656 C 156.898438 11.539062 155.886719 10.238281 156.070312 8.8125 C 156.234375 7.496094 157.355469 6.53125 158.648438 6.53125 C 158.757812 6.53125 158.867188 6.539062 158.980469 6.554688 C 161.90625 6.917969 164.851562 7.421875 167.738281 8.039062 C 169.144531 8.335938 170.039062 9.722656 169.742188 11.128906 C 169.546875 12.042969 168.890625 12.742188 168.074219 13.035156 C 167.796875 13.136719 167.5 13.191406 167.195312 13.191406 M 135.96875 11.449219 C 134.648438 11.449219 133.515625 10.445312 133.378906 9.101562 C 133.238281 7.667969 134.285156 6.402344 135.714844 6.25 C 138.648438 5.957031 141.632812 5.789062 144.582031 5.746094 C 144.59375 5.746094 144.605469 5.746094 144.617188 5.746094 C 146.039062 5.746094 147.203125 6.886719 147.222656 8.316406 C 147.238281 9.457031 146.515625 10.433594 145.5 10.800781 C 145.234375 10.902344 144.949219 10.953125 144.652344 10.957031 C 141.851562 10.996094 139.019531 11.15625 136.234375 11.433594 C 136.144531 11.445312 136.058594 11.449219 135.96875 11.449219 " fill-opacity="1" fill-rule="nonzero"/><path fill="#eeeff2" d="M 63.363281 53.609375 C 62.84375 53.609375 62.316406 53.449219 61.859375 53.125 C 60.683594 52.292969 60.410156 50.664062 61.242188 49.496094 C 62.0625 48.34375 62.914062 47.1875 63.785156 46.066406 C 64.296875 45.398438 65.066406 45.050781 65.847656 45.050781 C 66.402344 45.050781 66.964844 45.230469 67.4375 45.59375 C 68.578125 46.472656 68.789062 48.109375 67.910156 49.246094 C 67.082031 50.320312 66.269531 51.414062 65.492188 52.511719 C 65.171875 52.960938 64.734375 53.28125 64.253906 53.453125 C 63.96875 53.554688 63.664062 53.609375 63.363281 53.609375 " fill-opacity="1" fill-rule="nonzero"/><path fill="#eeeff2" d="M 46.328125 131.171875 C 45.097656 131.171875 44.007812 130.300781 43.769531 129.054688 C 43.507812 127.660156 43.269531 126.242188 43.0625 124.835938 C 42.851562 123.414062 43.832031 122.09375 45.261719 121.882812 C 45.390625 121.863281 45.515625 121.855469 45.644531 121.855469 C 46.914062 121.855469 48.027344 122.785156 48.21875 124.082031 C 48.414062 125.414062 48.640625 126.765625 48.890625 128.082031 C 49.128906 129.359375 48.398438 130.589844 47.214844 131.019531 C 47.085938 131.066406 46.953125 131.101562 46.8125 131.128906 C 46.652344 131.160156 46.488281 131.171875 46.328125 131.171875 " fill-opacity="1" fill-rule="nonzero"/><path fill="#c6c9d3" d="M 222.304688 126.609375 C 222.476562 126.117188 222.320312 125.570312 221.914062 125.253906 L 210.300781 116.042969 C 211.050781 109.160156 210.707031 102.113281 209.175781 95.160156 L 219.71875 84.757812 C 220.089844 84.394531 220.1875 83.832031 219.960938 83.367188 L 212.28125 67.335938 C 212.058594 66.871094 211.558594 66.597656 211.042969 66.652344 L 196.328125 68.347656 C 191.867188 62.800781 186.589844 58.117188 180.753906 54.386719 L 180.851562 39.570312 C 180.855469 39.054688 180.527344 38.589844 180.039062 38.417969 L 163.269531 32.511719 C 162.78125 32.339844 162.234375 32.496094 161.910156 32.902344 L 152.699219 44.515625 C 145.820312 43.761719 138.769531 44.101562 131.8125 45.632812 L 121.410156 35.097656 C 121.042969 34.726562 120.484375 34.628906 120.015625 34.851562 L 103.984375 42.53125 C 103.515625 42.753906 103.242188 43.253906 103.300781 43.769531 L 104.996094 58.480469 C 99.441406 62.941406 94.757812 68.21875 91.03125 74.046875 L 76.210938 73.949219 C 75.691406 73.945312 75.226562 74.273438 75.054688 74.765625 L 69.148438 91.527344 C 68.976562 92.019531 69.132812 92.5625 69.539062 92.886719 L 81.148438 102.09375 C 80.402344 108.972656 80.742188 116.023438 82.273438 122.976562 L 71.734375 133.375 C 71.363281 133.742188 71.265625 134.304688 71.488281 134.769531 L 79.171875 150.796875 C 79.394531 151.269531 79.894531 151.542969 80.410156 151.480469 L 95.121094 149.789062 C 99.585938 155.335938 104.863281 160.019531 110.695312 163.746094 L 110.597656 178.566406 C 110.597656 179.082031 110.921875 179.546875 111.410156 179.71875 L 128.179688 185.625 C 128.667969 185.796875 129.214844 185.640625 129.539062 185.230469 L 138.75 173.625 C 145.632812 174.375 152.679688 174.035156 159.636719 172.503906 L 170.042969 183.039062 C 170.40625 183.410156 170.964844 183.507812 171.433594 183.285156 L 187.46875 175.605469 C 187.9375 175.378906 188.210938 174.878906 188.152344 174.371094 L 186.457031 159.65625 C 192.007812 155.195312 196.691406 149.917969 200.421875 144.085938 L 215.242188 144.1875 C 215.761719 144.1875 216.222656 143.863281 216.398438 143.371094 L 222.304688 126.609375 " fill-opacity="1" fill-rule="nonzero"/><path fill="#e8e8ef" d="M 134.308594 101.492188 C 132.285156 104.546875 131.570312 108.195312 132.296875 111.785156 C 133.792969 119.1875 141.035156 123.992188 148.441406 122.492188 C 155.847656 121 160.652344 113.757812 159.15625 106.351562 C 157.65625 98.949219 150.414062 94.144531 143.011719 95.644531 C 142.339844 95.78125 141.6875 95.960938 141.050781 96.191406 C 138.304688 97.179688 135.953125 99.015625 134.308594 101.492188 Z M 149.269531 126.578125 C 139.609375 128.53125 130.164062 122.265625 128.210938 112.613281 C 127.261719 107.929688 128.195312 103.164062 130.835938 99.191406 C 133.472656 95.214844 137.503906 92.503906 142.183594 91.558594 C 151.84375 89.605469 161.289062 95.871094 163.242188 105.527344 C 165.019531 114.3125 159.988281 122.921875 151.792969 125.875 C 150.980469 126.167969 150.136719 126.402344 149.269531 126.578125 " fill-opacity="1" fill-rule="nonzero"/><path fill="#e8e8ef" d="M 160.199219 150.273438 C 161.605469 149.761719 163 149.183594 164.367188 148.527344 C 164.796875 148.320312 165.222656 148.109375 165.648438 147.890625 C 167.734375 146.804688 169.734375 145.554688 171.617188 144.160156 L 171.691406 144.109375 C 171.765625 144.054688 171.835938 143.992188 171.910156 143.941406 C 172.050781 143.835938 172.1875 143.730469 172.328125 143.621094 C 172.695312 143.335938 172.820312 142.855469 172.671875 142.445312 C 172.636719 142.347656 172.582031 142.246094 172.515625 142.160156 C 172.160156 141.703125 171.507812 141.625 171.050781 141.972656 C 168.710938 143.789062 166.15625 145.359375 163.464844 146.648438 C 150.089844 153.054688 134.96875 151.707031 123.222656 144.398438 C 116.6875 140.335938 111.199219 134.429688 107.632812 126.992188 C 107.007812 125.6875 106.453125 124.363281 105.972656 123.015625 C 102.714844 113.984375 102.667969 104.1875 105.902344 95.015625 C 109.617188 84.472656 117.214844 76.003906 127.296875 71.179688 C 148.121094 61.203125 173.15625 70.023438 183.128906 90.835938 C 183.742188 92.113281 184.289062 93.425781 184.769531 94.753906 C 186.84375 100.519531 187.636719 106.671875 187.066406 112.773438 C 187.050781 112.929688 187.070312 113.082031 187.121094 113.226562 C 187.253906 113.589844 187.589844 113.867188 188.003906 113.90625 C 188.578125 113.960938 189.085938 113.539062 189.140625 112.964844 C 189.738281 106.558594 188.910156 100.097656 186.730469 94.050781 C 186.226562 92.65625 185.652344 91.28125 185.007812 89.933594 C 174.539062 68.085938 148.238281 58.835938 126.398438 69.296875 C 115.8125 74.367188 107.835938 83.25 103.9375 94.320312 C 100.542969 103.953125 100.59375 114.242188 104.007812 123.722656 C 104.515625 125.132812 105.097656 126.523438 105.753906 127.894531 C 110.824219 138.476562 119.714844 146.449219 130.785156 150.347656 C 140.425781 153.742188 150.710938 153.6875 160.199219 150.273438 " fill-opacity="1" fill-rule="nonzero"/><path fill="#e3e4ea" d="M 351.886719 122.65625 C 351.039062 122.65625 350.332031 122 350.277344 121.144531 C 350.199219 119.84375 350.082031 118.527344 349.925781 117.234375 C 349.816406 116.355469 350.445312 115.550781 351.328125 115.449219 C 351.394531 115.441406 351.460938 115.433594 351.523438 115.433594 C 352.328125 115.433594 353.023438 116.03125 353.117188 116.851562 C 353.285156 118.207031 353.410156 119.585938 353.492188 120.949219 C 353.535156 121.679688 353.085938 122.328125 352.429688 122.558594 C 352.292969 122.609375 352.136719 122.644531 351.980469 122.65625 C 351.949219 122.65625 351.917969 122.65625 351.886719 122.65625 " fill-opacity="1" fill-rule="nonzero"/><path fill="#e3e4ea" d="M 350.007812 110.425781 C 349.289062 110.425781 348.628906 109.9375 348.449219 109.203125 C 347.902344 107.023438 347.242188 104.851562 346.480469 102.746094 C 346.324219 102.296875 346.160156 101.855469 345.984375 101.410156 C 345.671875 100.578125 346.082031 99.652344 346.910156 99.332031 C 347.085938 99.273438 347.269531 99.242188 347.453125 99.242188 C 348.101562 99.242188 348.742188 99.609375 348.992188 100.257812 C 349.167969 100.71875 349.347656 101.191406 349.511719 101.652344 C 350.308594 103.863281 351 106.144531 351.566406 108.425781 C 351.773438 109.230469 351.324219 110.050781 350.554688 110.324219 C 350.503906 110.34375 350.453125 110.359375 350.398438 110.375 C 350.269531 110.410156 350.136719 110.425781 350.007812 110.425781 M 344.019531 94.832031 C 343.445312 94.832031 342.886719 94.519531 342.597656 93.972656 C 341.320312 91.574219 339.882812 89.230469 338.328125 87.011719 C 337.8125 86.285156 337.992188 85.28125 338.71875 84.773438 C 339 84.578125 339.324219 84.480469 339.640625 84.480469 C 340.148438 84.480469 340.648438 84.71875 340.957031 85.167969 C 342.59375 87.492188 344.097656 89.945312 345.4375 92.464844 C 345.855469 93.25 345.558594 94.222656 344.773438 94.644531 C 344.707031 94.679688 344.628906 94.707031 344.558594 94.730469 C 344.382812 94.796875 344.199219 94.832031 344.019531 94.832031 M 334.417969 81.15625 C 333.976562 81.15625 333.539062 80.980469 333.226562 80.628906 C 331.398438 78.617188 329.429688 76.699219 327.371094 74.925781 C 326.695312 74.347656 326.621094 73.332031 327.203125 72.65625 C 327.519531 72.285156 327.96875 72.101562 328.421875 72.101562 C 328.792969 72.101562 329.167969 72.226562 329.46875 72.488281 C 331.628906 74.347656 333.699219 76.359375 335.609375 78.46875 C 336.203125 79.125 336.15625 80.144531 335.496094 80.738281 C 335.335938 80.886719 335.15625 80.988281 334.960938 81.058594 C 334.785156 81.125 334.597656 81.15625 334.417969 81.15625 M 321.742188 70.261719 C 321.441406 70.261719 321.128906 70.171875 320.859375 69.992188 C 318.59375 68.484375 316.210938 67.105469 313.789062 65.898438 C 312.992188 65.5 312.671875 64.535156 313.070312 63.738281 C 313.347656 63.175781 313.917969 62.851562 314.511719 62.851562 C 314.75 62.851562 314.996094 62.902344 315.222656 63.019531 C 317.769531 64.289062 320.261719 65.730469 322.636719 67.3125 C 323.378906 67.804688 323.578125 68.804688 323.085938 69.542969 C 322.890625 69.839844 322.605469 70.050781 322.296875 70.164062 C 322.117188 70.226562 321.933594 70.261719 321.742188 70.261719 M 250.238281 67.917969 C 249.683594 67.917969 249.140625 67.628906 248.84375 67.109375 C 248.398438 66.34375 248.664062 65.355469 249.4375 64.914062 C 251.570312 63.691406 253.808594 62.558594 256.078125 61.558594 C 256.421875 61.40625 256.769531 61.257812 257.113281 61.113281 C 257.316406 61.019531 257.53125 60.972656 257.738281 60.972656 C 258.363281 60.972656 258.964844 61.359375 259.222656 61.972656 C 259.566406 62.789062 259.179688 63.730469 258.359375 64.082031 C 258.035156 64.214844 257.710938 64.355469 257.382812 64.5 C 255.207031 65.460938 253.074219 66.535156 251.039062 67.707031 C 250.953125 67.753906 250.867188 67.796875 250.78125 67.824219 C 250.605469 67.890625 250.421875 67.917969 250.238281 67.917969 M 306.804688 62.789062 C 306.625 62.789062 306.445312 62.757812 306.269531 62.699219 C 303.703125 61.785156 301.0625 61.027344 298.414062 60.441406 C 297.550781 60.25 297 59.386719 297.195312 58.519531 C 297.359375 57.773438 298.023438 57.257812 298.757812 57.257812 C 298.878906 57.257812 298.996094 57.273438 299.113281 57.300781 C 301.890625 57.914062 304.65625 58.714844 307.34375 59.664062 C 308.179688 59.960938 308.621094 60.878906 308.320312 61.71875 C 308.15625 62.191406 307.789062 62.535156 307.351562 62.691406 C 307.179688 62.757812 306.992188 62.789062 306.804688 62.789062 M 265.632812 61.425781 C 264.933594 61.425781 264.285156 60.964844 264.085938 60.257812 C 263.84375 59.402344 264.339844 58.527344 265.195312 58.269531 C 267.941406 57.492188 270.757812 56.875 273.5625 56.445312 C 273.648438 56.433594 273.730469 56.425781 273.8125 56.425781 C 274.59375 56.425781 275.277344 57 275.398438 57.792969 C 275.519531 58.566406 275.066406 59.292969 274.355469 59.550781 C 274.261719 59.582031 274.160156 59.609375 274.054688 59.628906 C 271.378906 60.039062 268.695312 60.625 266.074219 61.367188 C 265.925781 61.40625 265.777344 61.425781 265.632812 61.425781 M 290.503906 59.171875 C 290.453125 59.171875 290.398438 59.164062 290.347656 59.160156 C 288.269531 58.964844 286.160156 58.859375 284.0625 58.859375 C 283.4375 58.859375 282.816406 58.871094 282.1875 58.890625 C 282.171875 58.890625 282.15625 58.890625 282.140625 58.890625 C 281.273438 58.890625 280.5625 58.199219 280.539062 57.328125 C 280.511719 56.441406 281.207031 55.703125 282.097656 55.675781 C 282.753906 55.65625 283.40625 55.644531 284.058594 55.644531 C 286.257812 55.644531 288.472656 55.75 290.65625 55.960938 C 291.542969 56.042969 292.1875 56.832031 292.105469 57.714844 C 292.042969 58.351562 291.613281 58.871094 291.042969 59.070312 C 290.875 59.136719 290.691406 59.171875 290.503906 59.171875 " fill-opacity="1" fill-rule="nonzero"/><path fill="#c6c9d3" d="M 335.121094 136.394531 C 335.234375 136.0625 335.128906 135.699219 334.855469 135.484375 L 327.085938 129.324219 C 327.585938 124.71875 327.359375 120.003906 326.335938 115.351562 L 333.390625 108.390625 C 333.632812 108.144531 333.703125 107.773438 333.550781 107.453125 L 328.410156 96.730469 C 328.261719 96.417969 327.929688 96.238281 327.582031 96.277344 L 317.738281 97.40625 C 314.75 93.691406 311.21875 90.5625 307.316406 88.066406 L 307.378906 78.152344 C 307.382812 77.804688 307.160156 77.492188 306.835938 77.378906 L 295.613281 73.429688 C 295.289062 73.3125 294.921875 73.417969 294.707031 73.6875 L 288.542969 81.457031 C 283.9375 80.957031 279.222656 81.183594 274.566406 82.210938 L 267.605469 75.15625 C 267.359375 74.90625 266.984375 74.84375 266.671875 74.992188 L 255.945312 80.132812 C 255.628906 80.28125 255.445312 80.613281 255.484375 80.960938 L 256.621094 90.804688 C 252.90625 93.789062 249.769531 97.320312 247.277344 101.222656 L 237.359375 101.160156 C 237.011719 101.152344 236.699219 101.371094 236.585938 101.699219 L 232.632812 112.917969 C 232.519531 113.242188 232.621094 113.609375 232.894531 113.828125 L 240.664062 119.988281 C 240.160156 124.59375 240.390625 129.308594 241.417969 133.960938 L 234.363281 140.921875 C 234.117188 141.164062 234.050781 141.539062 234.199219 141.851562 L 239.339844 152.582031 C 239.488281 152.894531 239.820312 153.074219 240.167969 153.039062 L 250.015625 151.898438 C 253 155.613281 256.53125 158.75 260.433594 161.246094 L 260.371094 171.160156 C 260.367188 171.507812 260.585938 171.820312 260.914062 171.933594 L 272.132812 175.886719 C 272.460938 176 272.828125 175.894531 273.042969 175.621094 L 279.210938 167.855469 C 283.8125 168.355469 288.53125 168.125 293.183594 167.101562 L 300.144531 174.15625 C 300.390625 174.398438 300.765625 174.46875 301.078125 174.320312 L 311.808594 169.179688 C 312.121094 169.03125 312.304688 168.699219 312.265625 168.351562 L 311.128906 158.503906 C 314.84375 155.523438 317.980469 151.992188 320.476562 148.089844 L 330.390625 148.152344 C 330.738281 148.160156 331.050781 147.9375 331.164062 147.609375 L 335.121094 136.394531 " fill-opacity="1" fill-rule="nonzero"/><path fill="#e8e8ef" d="M 275.101562 126.425781 C 275.574219 128.769531 276.933594 130.789062 278.925781 132.113281 C 280.917969 133.433594 283.308594 133.902344 285.652344 133.429688 C 287.996094 132.953125 290.015625 131.59375 291.339844 129.601562 C 292.660156 127.613281 293.125 125.21875 292.652344 122.878906 C 291.671875 118.042969 286.941406 114.902344 282.101562 115.878906 C 281.664062 115.964844 281.242188 116.085938 280.835938 116.230469 C 276.730469 117.710938 274.210938 122.023438 275.101562 126.425781 Z M 286.292969 136.582031 C 283.105469 137.226562 279.851562 136.589844 277.144531 134.792969 C 274.4375 132.996094 272.589844 130.25 271.945312 127.066406 C 270.617188 120.488281 274.878906 114.070312 281.464844 112.726562 C 288.042969 111.394531 294.476562 115.664062 295.804688 122.238281 C 296.453125 125.425781 295.816406 128.675781 294.019531 131.378906 C 292.558594 133.582031 290.472656 135.214844 288.03125 136.097656 C 287.464844 136.296875 286.886719 136.457031 286.292969 136.582031 " fill-opacity="1" fill-rule="nonzero"/><path fill="#e8e8ef" d="M 293.898438 153.074219 C 294.859375 152.730469 295.804688 152.332031 296.742188 151.886719 C 298.605469 150.992188 300.378906 149.914062 302.011719 148.664062 C 302.089844 148.609375 302.164062 148.550781 302.234375 148.496094 C 302.800781 148.058594 302.996094 147.320312 302.765625 146.683594 C 302.707031 146.527344 302.628906 146.378906 302.523438 146.242188 C 301.976562 145.535156 300.964844 145.414062 300.265625 145.957031 C 298.742188 147.128906 297.09375 148.148438 295.351562 148.980469 C 295.257812 149.023438 295.164062 149.074219 295.0625 149.113281 C 290.929688 151.050781 286.46875 151.875 282.03125 151.601562 C 279.625 151.457031 277.21875 150.984375 274.875 150.179688 L 274.820312 150.160156 C 274.757812 150.144531 274.703125 150.125 274.644531 150.101562 C 267.816406 147.695312 262.335938 142.78125 259.207031 136.257812 C 258.800781 135.410156 258.445312 134.554688 258.132812 133.683594 C 256.023438 127.835938 255.992188 121.496094 258.085938 115.554688 C 260.492188 108.726562 265.410156 103.25 271.9375 100.125 C 278.460938 97 285.820312 96.597656 292.644531 99 C 299.472656 101.40625 304.953125 106.324219 308.082031 112.851562 C 308.476562 113.675781 308.832031 114.527344 309.144531 115.382812 C 310.488281 119.117188 311 123.097656 310.628906 127.050781 C 310.605469 127.292969 310.636719 127.53125 310.71875 127.746094 C 310.921875 128.3125 311.441406 128.742188 312.078125 128.800781 C 312.964844 128.882812 313.75 128.234375 313.832031 127.347656 C 314.246094 122.929688 313.675781 118.472656 312.175781 114.300781 C 311.824219 113.332031 311.429688 112.386719 310.984375 111.460938 C 307.484375 104.15625 301.351562 98.660156 293.710938 95.96875 C 286.078125 93.277344 277.851562 93.714844 270.546875 97.222656 C 263.242188 100.71875 257.742188 106.851562 255.050781 114.484375 C 252.710938 121.128906 252.746094 128.230469 255.101562 134.769531 C 255.449219 135.742188 255.855469 136.703125 256.304688 137.644531 C 263.078125 151.78125 279.453125 158.273438 293.898438 153.074219 " fill-opacity="1" fill-rule="nonzero"/><path fill="#333435" d="M 709.617188 666.027344 L 42.125 666.027344 C 27.496094 666.027344 15.636719 654.171875 15.636719 639.546875 L 15.636719 159.335938 C 15.636719 144.707031 27.496094 132.851562 42.125 132.851562 L 709.617188 132.851562 C 724.25 132.851562 736.109375 144.707031 736.109375 159.335938 L 736.109375 639.546875 C 736.109375 654.171875 724.25 666.027344 709.617188 666.027344 " fill-opacity="1" fill-rule="nonzero"/><path fill="#979aa0" d="M 687.597656 645.246094 L 58.046875 645.246094 C 43.414062 645.246094 31.554688 633.390625 31.554688 618.765625 L 31.554688 175.90625 C 31.554688 161.285156 43.414062 149.429688 58.046875 149.429688 L 687.597656 149.429688 C 702.222656 149.429688 714.082031 161.285156 714.082031 175.90625 L 714.082031 618.765625 C 714.082031 633.390625 702.222656 645.246094 687.597656 645.246094 " fill-opacity="1" fill-rule="nonzero"/><path fill="#c6c9d3" d="M 680.5 638.644531 L 65.164062 638.644531 C 50.535156 638.644531 38.675781 626.789062 38.675781 612.164062 L 38.675781 188.449219 C 38.675781 173.828125 50.535156 161.972656 65.164062 161.972656 L 680.5 161.972656 C 695.128906 161.972656 706.984375 173.828125 706.984375 188.449219 L 706.984375 612.164062 C 706.984375 626.789062 695.128906 638.644531 680.5 638.644531 " fill-opacity="1" fill-rule="nonzero"/><path fill="#e8e9ed" d="M 248.484375 596.953125 C 245.394531 596.953125 242.894531 594.453125 242.894531 591.367188 L 242.894531 181.121094 C 242.894531 178.035156 245.394531 175.53125 248.484375 175.53125 C 251.570312 175.53125 254.074219 178.035156 254.074219 181.121094 L 254.074219 591.367188 C 254.074219 594.453125 251.570312 596.953125 248.484375 596.953125 " fill-opacity="1" fill-rule="nonzero"/><path fill="#e8e9ed" d="M 491.0625 533.480469 C 487.382812 530.933594 483.523438 528.703125 479.878906 526.976562 L 479.878906 178.851562 C 479.878906 175.761719 482.386719 173.261719 485.46875 173.261719 C 488.558594 173.261719 491.0625 175.761719 491.0625 178.851562 L 491.0625 533.480469 " fill-opacity="1" fill-rule="nonzero"/><path fill="#5c5e61" d="M 679.027344 348.9375 L 530.210938 348.9375 C 520.253906 348.9375 512.175781 340.863281 512.175781 330.90625 L 512.175781 261.992188 C 512.175781 252.03125 520.253906 243.960938 530.210938 243.960938 L 679.027344 243.960938 C 688.984375 243.960938 697.058594 252.03125 697.058594 261.992188 L 697.058594 330.90625 C 697.058594 340.863281 688.984375 348.9375 679.027344 348.9375 " fill-opacity="1" fill-rule="nonzero"/><path fill="#979aa0" d="M 672.566406 344.476562 L 534.203125 344.476562 C 524.246094 344.476562 516.167969 336.402344 516.167969 326.449219 L 516.167969 266.445312 C 516.167969 256.488281 524.246094 248.421875 534.203125 248.421875 L 672.566406 248.421875 C 682.523438 248.421875 690.597656 256.488281 690.597656 266.445312 L 690.597656 326.449219 C 690.597656 336.402344 682.523438 344.476562 672.566406 344.476562 " fill-opacity="1" fill-rule="nonzero"/><path fill="#e8e8ef" d="M 677.292969 282.3125 L 602.265625 282.3125 C 599.617188 282.3125 597.472656 280.171875 597.472656 277.523438 C 597.472656 274.878906 599.617188 272.738281 602.265625 272.738281 L 677.292969 272.738281 C 679.941406 272.738281 682.082031 274.878906 682.082031 277.523438 C 682.082031 280.171875 679.941406 282.3125 677.292969 282.3125 " fill-opacity="1" fill-rule="nonzero"/><path fill="#e8e8ef" d="M 677.292969 302.835938 L 602.265625 302.835938 C 599.617188 302.835938 597.472656 300.691406 597.472656 298.046875 C 597.472656 295.398438 599.617188 293.257812 602.265625 293.257812 L 677.292969 293.257812 C 679.941406 293.257812 682.082031 295.398438 682.082031 298.046875 C 682.082031 300.691406 679.941406 302.835938 677.292969 302.835938 " fill-opacity="1" fill-rule="nonzero"/><path fill="#e8e8ef" d="M 677.292969 322.515625 L 602.265625 322.515625 C 599.617188 322.515625 597.472656 320.371094 597.472656 317.730469 C 597.472656 315.082031 599.617188 312.941406 602.265625 312.941406 L 677.292969 312.941406 C 679.941406 312.941406 682.082031 315.082031 682.082031 317.730469 C 682.082031 320.371094 679.941406 322.515625 677.292969 322.515625 " fill-opacity="1" fill-rule="nonzero"/><path fill="#e8e8ef" d="M 556.785156 288.699219 L 533.863281 288.699219 C 530.34375 288.699219 527.496094 285.847656 527.496094 282.335938 L 527.496094 265.269531 C 527.496094 261.757812 530.34375 258.910156 533.863281 258.910156 L 556.785156 258.910156 C 560.300781 258.910156 563.148438 261.757812 563.148438 265.269531 L 563.148438 282.335938 C 563.148438 285.847656 560.300781 288.699219 556.785156 288.699219 " fill-opacity="1" fill-rule="nonzero"/><path fill="#74767b" d="M 534.789062 272.753906 C 536.078125 271.996094 537.738281 272.441406 538.472656 273.75 L 541.90625 279.90625 C 542.246094 280.519531 543.144531 280.480469 543.429688 279.835938 L 551.949219 260.894531 C 552.371094 259.949219 553.78125 260.265625 553.761719 261.300781 C 553.675781 267.097656 552.136719 278.113281 542.875 287.332031 C 542.875 287.332031 537.773438 285.355469 533.664062 276.328125 C 533.066406 275.027344 533.550781 273.476562 534.789062 272.753906 " fill-opacity="1" fill-rule="nonzero"/><path fill="#5c5e61" d="M 444.53125 346.613281 L 295.722656 346.613281 C 285.761719 346.613281 277.6875 338.542969 277.6875 328.585938 L 277.6875 259.667969 C 277.6875 249.710938 285.761719 241.640625 295.722656 241.640625 L 444.53125 241.640625 C 454.492188 241.640625 462.566406 249.710938 462.566406 259.667969 L 462.566406 328.585938 C 462.566406 338.542969 454.492188 346.613281 444.53125 346.613281 " fill-opacity="1" fill-rule="nonzero"/><path fill="#979aa0" d="M 438.070312 342.15625 L 299.714844 342.15625 C 289.753906 342.15625 281.679688 334.085938 281.679688 324.128906 L 281.679688 264.125 C 281.679688 254.167969 289.753906 246.09375 299.714844 246.09375 L 438.070312 246.09375 C 448.03125 246.09375 456.105469 254.167969 456.105469 264.125 L 456.105469 324.128906 C 456.105469 334.085938 448.03125 342.15625 438.070312 342.15625 " fill-opacity="1" fill-rule="nonzero"/><path fill="#efeff4" d="M 442.800781 279.992188 L 367.773438 279.992188 C 365.128906 279.992188 362.984375 277.847656 362.984375 275.203125 C 362.984375 272.558594 365.128906 270.414062 367.773438 270.414062 L 442.800781 270.414062 C 445.445312 270.414062 447.59375 272.558594 447.59375 275.203125 C 447.59375 277.847656 445.445312 279.992188 442.800781 279.992188 " fill-opacity="1" fill-rule="nonzero"/><path fill="#efeff4" d="M 442.800781 300.511719 L 367.773438 300.511719 C 365.128906 300.511719 362.984375 298.371094 362.984375 295.722656 C 362.984375 293.078125 365.128906 290.9375 367.773438 290.9375 L 442.800781 290.9375 C 445.445312 290.9375 447.59375 293.078125 447.59375 295.722656 C 447.59375 298.371094 445.445312 300.511719 442.800781 300.511719 " fill-opacity="1" fill-rule="nonzero"/><path fill="#efeff4" d="M 442.800781 320.195312 L 367.773438 320.195312 C 365.128906 320.195312 362.984375 318.050781 362.984375 315.40625 C 362.984375 312.761719 365.128906 310.617188 367.773438 310.617188 L 442.800781 310.617188 C 445.445312 310.617188 447.59375 312.761719 447.59375 315.40625 C 447.59375 318.050781 445.445312 320.195312 442.800781 320.195312 " fill-opacity="1" fill-rule="nonzero"/><path fill="#efeff4" d="M 322.296875 286.375 L 299.375 286.375 C 295.859375 286.375 293.007812 283.523438 293.007812 280.007812 L 293.007812 262.949219 C 293.007812 259.433594 295.859375 256.582031 299.375 256.582031 L 322.296875 256.582031 C 325.808594 256.582031 328.664062 259.433594 328.664062 262.949219 L 328.664062 280.007812 C 328.664062 283.523438 325.808594 286.375 322.296875 286.375 " fill-opacity="1" fill-rule="nonzero"/><path fill="#5c5e61" d="M 445.074219 467.273438 L 296.261719 467.273438 C 286.296875 467.273438 278.222656 459.199219 278.222656 449.238281 L 278.222656 380.324219 C 278.222656 370.367188 286.296875 362.292969 296.261719 362.292969 L 445.074219 362.292969 C 455.03125 362.292969 463.105469 370.367188 463.105469 380.324219 L 463.105469 449.238281 C 463.105469 459.199219 455.03125 467.273438 445.074219 467.273438 " fill-opacity="1" fill-rule="nonzero"/><path fill="#979aa0" d="M 438.609375 462.8125 L 300.253906 462.8125 C 290.289062 462.8125 282.214844 454.742188 282.214844 444.78125 L 282.214844 384.777344 C 282.214844 374.824219 290.289062 366.75 300.253906 366.75 L 438.609375 366.75 C 448.570312 366.75 456.644531 374.824219 456.644531 384.777344 L 456.644531 444.78125 C 456.644531 454.742188 448.570312 462.8125 438.609375 462.8125 " fill-opacity="1" fill-rule="nonzero"/><path fill="#efeff4" d="M 443.34375 400.644531 L 368.308594 400.644531 C 365.664062 400.644531 363.523438 398.503906 363.523438 395.859375 C 363.523438 393.214844 365.664062 391.070312 368.308594 391.070312 L 443.34375 391.070312 C 445.988281 391.070312 448.128906 393.214844 448.128906 395.859375 C 448.128906 398.503906 445.988281 400.644531 443.34375 400.644531 " fill-opacity="1" fill-rule="nonzero"/><path fill="#efeff4" d="M 443.34375 421.164062 L 368.308594 421.164062 C 365.664062 421.164062 363.523438 419.023438 363.523438 416.378906 C 363.523438 413.734375 365.664062 411.589844 368.308594 411.589844 L 443.34375 411.589844 C 445.988281 411.589844 448.128906 413.734375 448.128906 416.378906 C 448.128906 419.023438 445.988281 421.164062 443.34375 421.164062 " fill-opacity="1" fill-rule="nonzero"/><path fill="#efeff4" d="M 443.34375 440.851562 L 368.308594 440.851562 C 365.664062 440.851562 363.523438 438.703125 363.523438 436.0625 C 363.523438 433.417969 365.664062 431.273438 368.308594 431.273438 L 443.34375 431.273438 C 445.988281 431.273438 448.128906 433.417969 448.128906 436.0625 C 448.128906 438.703125 445.988281 440.851562 443.34375 440.851562 " fill-opacity="1" fill-rule="nonzero"/><path fill="#ffffff" d="M 322.832031 407.03125 L 299.914062 407.03125 C 296.394531 407.03125 293.546875 404.183594 293.546875 400.667969 L 293.546875 383.601562 C 293.546875 380.089844 296.394531 377.242188 299.914062 377.242188 L 322.832031 377.242188 C 326.351562 377.242188 329.199219 380.089844 329.199219 383.601562 L 329.199219 400.667969 C 329.199219 404.183594 326.351562 407.03125 322.832031 407.03125 " fill-opacity="1" fill-rule="nonzero"/><path fill="#5c5e61" d="M 209.804688 340.453125 L 60.992188 340.453125 C 51.035156 340.453125 42.957031 332.382812 42.957031 322.425781 L 42.957031 253.507812 C 42.957031 243.550781 51.035156 235.480469 60.992188 235.480469 L 209.804688 235.480469 C 219.765625 235.480469 227.839844 243.550781 227.839844 253.507812 L 227.839844 322.425781 C 227.839844 332.382812 219.765625 340.453125 209.804688 340.453125 " fill-opacity="1" fill-rule="nonzero"/><path fill="#979aa0" d="M 203.34375 336 L 64.984375 336 C 55.023438 336 46.949219 327.925781 46.949219 317.96875 L 46.949219 257.964844 C 46.949219 248.007812 55.023438 239.9375 64.984375 239.9375 L 203.34375 239.9375 C 213.304688 239.9375 221.378906 248.007812 221.378906 257.964844 L 221.378906 317.96875 C 221.378906 327.925781 213.304688 336 203.34375 336 " fill-opacity="1" fill-rule="nonzero"/><path fill="#efeff4" d="M 208.074219 273.832031 L 133.046875 273.832031 C 130.398438 273.832031 128.253906 271.6875 128.253906 269.042969 C 128.253906 266.398438 130.398438 264.253906 133.046875 264.253906 L 208.074219 264.253906 C 210.71875 264.253906 212.863281 266.398438 212.863281 269.042969 C 212.863281 271.6875 210.71875 273.832031 208.074219 273.832031 " fill-opacity="1" fill-rule="nonzero"/><path fill="#efeff4" d="M 208.074219 294.351562 L 133.046875 294.351562 C 130.398438 294.351562 128.253906 292.207031 128.253906 289.5625 C 128.253906 286.917969 130.398438 284.777344 133.046875 284.777344 L 208.074219 284.777344 C 210.71875 284.777344 212.863281 286.917969 212.863281 289.5625 C 212.863281 292.207031 210.71875 294.351562 208.074219 294.351562 " fill-opacity="1" fill-rule="nonzero"/><path fill="#efeff4" d="M 208.074219 314.035156 L 133.046875 314.035156 C 130.398438 314.035156 128.253906 311.890625 128.253906 309.246094 C 128.253906 306.601562 130.398438 304.457031 133.046875 304.457031 L 208.074219 304.457031 C 210.71875 304.457031 212.863281 306.601562 212.863281 309.246094 C 212.863281 311.890625 210.71875 314.035156 208.074219 314.035156 " fill-opacity="1" fill-rule="nonzero"/><path fill="#efeff4" d="M 87.566406 280.214844 L 64.644531 280.214844 C 61.128906 280.214844 58.28125 277.367188 58.28125 273.851562 L 58.28125 256.789062 C 58.28125 253.273438 61.128906 250.421875 64.644531 250.421875 L 87.566406 250.421875 C 91.082031 250.421875 93.933594 253.273438 93.933594 256.789062 L 93.933594 273.851562 C 93.933594 277.367188 91.082031 280.214844 87.566406 280.214844 " fill-opacity="1" fill-rule="nonzero"/><path fill="#5c5e61" d="M 679.027344 470.460938 L 530.210938 470.460938 C 520.253906 470.460938 512.175781 462.390625 512.175781 452.433594 L 512.175781 383.515625 C 512.175781 373.558594 520.253906 365.488281 530.210938 365.488281 L 679.027344 365.488281 C 688.984375 365.488281 697.058594 373.558594 697.058594 383.515625 L 697.058594 452.433594 C 697.058594 462.390625 688.984375 470.460938 679.027344 470.460938 " fill-opacity="1" fill-rule="nonzero"/><path fill="#979aa0" d="M 672.566406 466.003906 L 534.203125 466.003906 C 524.246094 466.003906 516.167969 457.929688 516.167969 447.976562 L 516.167969 387.972656 C 516.167969 378.015625 524.246094 369.941406 534.203125 369.941406 L 672.566406 369.941406 C 682.523438 369.941406 690.597656 378.015625 690.597656 387.972656 L 690.597656 447.976562 C 690.597656 457.929688 682.523438 466.003906 672.566406 466.003906 " fill-opacity="1" fill-rule="nonzero"/><path fill="#e8e8ef" d="M 677.292969 403.839844 L 602.265625 403.839844 C 599.617188 403.839844 597.472656 401.695312 597.472656 399.050781 C 597.472656 396.40625 599.617188 394.261719 602.265625 394.261719 L 677.292969 394.261719 C 679.941406 394.261719 682.082031 396.40625 682.082031 399.050781 C 682.082031 401.695312 679.941406 403.839844 677.292969 403.839844 " fill-opacity="1" fill-rule="nonzero"/><path fill="#e8e8ef" d="M 677.292969 424.359375 L 602.265625 424.359375 C 599.617188 424.359375 597.472656 422.210938 597.472656 419.570312 C 597.472656 416.925781 599.617188 414.78125 602.265625 414.78125 L 677.292969 414.78125 C 679.941406 414.78125 682.082031 416.925781 682.082031 419.570312 C 682.082031 422.210938 679.941406 424.359375 677.292969 424.359375 " fill-opacity="1" fill-rule="nonzero"/><path fill="#e8e8ef" d="M 677.292969 444.042969 L 602.265625 444.042969 C 599.617188 444.042969 597.472656 441.898438 597.472656 439.25 C 597.472656 436.609375 599.617188 434.464844 602.265625 434.464844 L 677.292969 434.464844 C 679.941406 434.464844 682.082031 436.609375 682.082031 439.25 C 682.082031 441.898438 679.941406 444.042969 677.292969 444.042969 " fill-opacity="1" fill-rule="nonzero"/><path fill="#e8e8ef" d="M 556.785156 410.226562 L 533.863281 410.226562 C 530.34375 410.226562 527.496094 407.371094 527.496094 403.859375 L 527.496094 386.800781 C 527.496094 383.28125 530.34375 380.433594 533.863281 380.433594 L 556.785156 380.433594 C 560.300781 380.433594 563.148438 383.28125 563.148438 386.800781 L 563.148438 403.859375 C 563.148438 407.371094 560.300781 410.226562 556.785156 410.226562 " fill-opacity="1" fill-rule="nonzero"/><path fill="#f3d33f" d="M 638.671875 463.019531 C 671.996094 458.476562 681.113281 464.9375 681.113281 464.9375 L 666.371094 491.175781 C 666.371094 491.175781 633.445312 492.261719 608.917969 475.347656 C 613.082031 470.367188 615.867188 464.953125 617.613281 460.769531 C 623.824219 462.96875 630.898438 464.082031 638.671875 463.019531 " fill-opacity="1" fill-rule="nonzero"/><g clip-path="url(#id1)"><g clip-path="url(#id2)"><g clip-path="url(#id3)"><path fill="#ffffff" d="M 584.234375 479.75 L 625.410156 474.316406 L 617.03125 410.828125 L 575.851562 416.257812 Z M 584.234375 479.75 " fill-opacity="1" fill-rule="nonzero"/></g></g></g><path fill="#333435" d="M 692.808594 707.582031 C 692.808594 707.582031 694.792969 711.65625 694.199219 722.359375 C 694.144531 723.359375 693.261719 724.117188 692.265625 724.003906 L 673.410156 721.878906 C 672.648438 721.792969 672.191406 720.988281 672.515625 720.296875 C 673.988281 717.148438 678.230469 709.558594 686.203125 705.839844 L 692.808594 707.582031 " fill-opacity="1" fill-rule="nonzero"/><g clip-path="url(#id4)"><g clip-path="url(#id5)"><g clip-path="url(#id6)"><path fill="#efeff4" d="M 694.371094 697.671875 L 683.621094 698.566406 L 684.695312 711.414062 L 695.441406 710.515625 Z M 694.371094 697.671875 " fill-opacity="1" fill-rule="nonzero"/></g></g></g><path fill="#333435" d="M 646.308594 701.917969 C 646.308594 701.917969 649.796875 707.65625 649.527344 715.398438 C 649.464844 717.226562 647.898438 718.640625 646.074219 718.59375 L 616.605469 717.859375 C 615.222656 717.824219 614.710938 716.039062 615.855469 715.273438 C 621.53125 711.496094 632.675781 704.457031 640.671875 701.78125 L 646.308594 701.917969 " fill-opacity="1" fill-rule="nonzero"/><g clip-path="url(#id7)"><g clip-path="url(#id8)"><g clip-path="url(#id9)"><path fill="#efeff4" d="M 651.9375 689.414062 L 639.765625 687.203125 L 636.363281 705.894531 L 648.539062 708.105469 Z M 651.9375 689.414062 " fill-opacity="1" fill-rule="nonzero"/></g></g></g><path fill="#5c5e61" d="M 707.964844 543.003906 C 707.964844 543.003906 715.09375 550.871094 715.632812 559.429688 C 716.175781 567.984375 695.089844 703.703125 695.089844 703.703125 C 695.089844 703.703125 687.03125 704.125 683.234375 701.195312 C 683.234375 701.195312 688.378906 612.152344 687.003906 591.289062 C 687.003906 591.289062 657.386719 680.789062 650.171875 696.75 C 650.171875 696.75 642.445312 696.820312 640.152344 695.089844 C 640.152344 695.089844 658.605469 576.824219 667.332031 556.417969 L 707.964844 543.003906 " fill-opacity="1" fill-rule="nonzero"/><path fill="#888b8f" d="M 687.65625 588.332031 C 687.566406 588.332031 687.476562 588.3125 687.390625 588.277344 C 687 588.132812 686.808594 587.699219 686.953125 587.3125 L 691.769531 574.800781 C 691.839844 574.625 691.972656 574.480469 692.140625 574.394531 L 699.929688 570.558594 C 700.300781 570.375 700.75 570.527344 700.933594 570.902344 C 701.117188 571.273438 700.960938 571.726562 700.59375 571.90625 L 693.070312 575.617188 L 688.359375 587.851562 C 688.246094 588.148438 687.960938 588.332031 687.65625 588.332031 " fill-opacity="1" fill-rule="nonzero"/><path fill="#f7e057" d="M 626.160156 468.824219 C 639.3125 457.515625 662.289062 454.324219 675.484375 453.4375 C 681.265625 453.050781 686.492188 456.828125 687.894531 462.449219 C 691.945312 478.746094 703.1875 521.210938 705.464844 528.550781 C 707.332031 534.574219 709.328125 540.46875 710.605469 544.160156 C 711.367188 546.363281 710.214844 548.769531 708.007812 549.542969 C 696.539062 553.558594 676.289062 557.285156 668.097656 558.699219 C 666.296875 559.015625 664.707031 557.507812 664.910156 555.691406 C 665.085938 554.148438 664.832031 552.585938 664.191406 551.179688 L 639.78125 497.71875 C 618.703125 516.371094 602.089844 516.421875 589.996094 510.457031 C 592.855469 504.144531 594.976562 497.746094 596.386719 491.246094 C 615.363281 490.15625 626.160156 468.824219 626.160156 468.824219 " fill-opacity="1" fill-rule="nonzero"/><g clip-path="url(#id10)"><g clip-path="url(#id11)"><g clip-path="url(#id12)"><path fill="#ffffff" d="M 590.429688 522.511719 L 608.402344 486.125 L 571.964844 468.140625 L 553.992188 504.523438 Z M 590.429688 522.511719 " fill-opacity="1" fill-rule="nonzero"/></g></g></g><g clip-path="url(#id13)"><g clip-path="url(#id14)"><g clip-path="url(#id15)"><path fill="#ffffff" d="M 564.242188 500.054688 L 577.566406 473.085938 L 540.636719 454.851562 L 527.3125 481.824219 Z M 564.242188 500.054688 " fill-opacity="1" fill-rule="nonzero"/></g></g></g><g clip-path="url(#id16)"><g clip-path="url(#id17)"><g clip-path="url(#id18)"><g clip-path="url(#id19)"><path fill="url(#id20)" d="M 645.53125 465.746094 L 676.101562 456.507812 L 665.542969 421.582031 L 634.972656 430.816406 Z M 645.53125 465.746094 " fill-rule="nonzero"/></g></g></g></g><g clip-path="url(#id21)"><g clip-path="url(#id22)"><g clip-path="url(#id23)"><path fill="#ffffff" d="M 609.703125 429.3125 L 652.957031 464.84375 L 688.558594 421.53125 L 645.304688 385.996094 Z M 609.703125 429.3125 " fill-opacity="1" fill-rule="nonzero"/></g></g></g><path fill="#333435" d="M 658.351562 428.878906 L 657.871094 428.570312 C 657.253906 428.183594 657.097656 427.359375 657.519531 426.773438 C 659.164062 424.5 662.492188 419.222656 659.472656 417.425781 C 655.589844 415.113281 639.683594 409.316406 637.015625 402.96875 C 634.445312 396.867188 638.539062 390.097656 643.375 388.722656 C 643.699219 388.628906 644.035156 388.792969 644.15625 389.105469 L 644.425781 389.878906 C 644.605469 390.40625 645.34375 390.4375 645.574219 389.929688 C 645.800781 389.441406 646.496094 389.445312 646.707031 389.9375 C 647.535156 391.839844 650.050781 395.101562 657.6875 397.722656 C 668.542969 401.449219 675.253906 407.066406 674.28125 414.808594 C 674.222656 415.300781 674.703125 415.648438 675.160156 415.457031 C 676.058594 415.078125 677.410156 415.039062 678.953125 416.785156 C 681.632812 419.820312 679.378906 426.316406 671.839844 430.8125 C 671.480469 431.027344 671.40625 431.527344 671.71875 431.804688 C 672.816406 432.777344 674.355469 434.933594 669.273438 436.75 C 664.015625 438.625 660.414062 437.867188 659.050781 437.425781 C 658.710938 437.316406 658.53125 436.945312 658.664062 436.613281 L 661.167969 430.058594 C 661.308594 429.6875 661.070312 429.28125 660.683594 429.222656 L 658.351562 428.878906 " fill-opacity="1" fill-rule="nonzero"/><g clip-path="url(#id24)"><g clip-path="url(#id25)"><g clip-path="url(#id26)"><path fill="#ffffff" d="M 651.160156 429.257812 L 664.804688 440.46875 L 676.191406 426.613281 L 662.546875 415.402344 Z M 651.160156 429.257812 " fill-opacity="1" fill-rule="nonzero"/></g></g></g><path fill="#f3d33f" d="M 531.890625 430.558594 C 536.015625 428.140625 541.3125 429.582031 543.640625 433.753906 L 554.578125 453.363281 C 555.679688 455.328125 558.546875 455.203125 559.464844 453.152344 L 586.609375 392.742188 C 587.960938 389.726562 592.453125 390.746094 592.398438 394.050781 C 592.125 412.53125 587.21875 447.652344 557.683594 477.054688 C 557.683594 477.054688 541.410156 470.730469 528.304688 441.957031 C 526.414062 437.800781 527.953125 432.871094 531.890625 430.558594 " fill-opacity="1" fill-rule="nonzero"/><path fill="#ffffff" d="M 216.277344 209.664062 L 54.515625 209.664062 C 48.132812 209.664062 42.957031 204.492188 42.957031 198.109375 L 42.957031 179.121094 C 42.957031 172.742188 48.132812 167.566406 54.515625 167.566406 L 216.277344 167.566406 C 222.664062 167.566406 227.835938 172.742188 227.835938 179.121094 L 227.835938 198.109375 C 227.835938 204.492188 222.664062 209.664062 216.277344 209.664062 " fill-opacity="1" fill-rule="nonzero"/><path fill="#ffffff" d="M 448.722656 210.53125 L 286.960938 210.53125 C 280.574219 210.53125 275.402344 205.359375 275.402344 198.976562 L 275.402344 179.988281 C 275.402344 173.605469 280.574219 168.433594 286.960938 168.433594 L 448.722656 168.433594 C 455.105469 168.433594 460.285156 173.605469 460.285156 179.988281 L 460.285156 198.976562 C 460.285156 205.359375 455.105469 210.53125 448.722656 210.53125 " fill-opacity="1" fill-rule="nonzero"/><path fill="#ffffff" d="M 682.523438 210.53125 L 520.765625 210.53125 C 514.378906 210.53125 509.203125 205.355469 509.203125 198.976562 L 509.203125 179.988281 C 509.203125 173.601562 514.378906 168.433594 520.765625 168.433594 L 682.523438 168.433594 C 688.914062 168.433594 694.085938 173.601562 694.085938 179.988281 L 694.085938 198.976562 C 694.085938 205.355469 688.914062 210.53125 682.523438 210.53125 " fill-opacity="1" fill-rule="nonzero"/><path fill="#979aa0" d="M 72.316406 664.847656 C 72.316406 664.847656 34.167969 576.746094 63.050781 483.921875 C 63.238281 483.3125 64.3125 483.433594 64.390625 484.066406 C 71.355469 540.207031 73.429688 601.007812 72.316406 664.847656 " fill-opacity="1" fill-rule="nonzero"/><path fill="#ababac" d="M 72.347656 662.960938 C 72.355469 662.441406 72.367188 661.929688 72.375 661.417969 C 72.460938 661.738281 72.546875 662.054688 72.636719 662.371094 C 72.707031 662.609375 72.578125 662.863281 72.347656 662.960938 " fill-opacity="1" fill-rule="nonzero"/><path fill="#d4d5d8" d="M 72.164062 662.996094 C 71.953125 662.996094 71.753906 662.851562 71.695312 662.636719 C 64.925781 638.597656 62.351562 597.753906 61.386719 567.722656 C 60.335938 535.195312 60.894531 508 60.898438 507.726562 C 60.90625 507.457031 61.082031 507.246094 61.394531 507.246094 C 61.394531 507.246094 61.398438 507.246094 61.398438 507.246094 C 61.667969 507.253906 61.886719 507.472656 61.878906 507.746094 C 61.875 508.015625 61.316406 535.195312 62.363281 567.691406 C 63.316406 597.277344 65.828125 637.359375 72.375 661.417969 C 72.367188 661.929688 72.355469 662.441406 72.347656 662.960938 C 72.332031 662.964844 72.316406 662.96875 72.296875 662.972656 C 72.253906 662.988281 72.207031 662.996094 72.164062 662.996094 " fill-opacity="1" fill-rule="nonzero"/><path fill="#979aa0" d="M 81.054688 650.488281 C 81.054688 650.488281 57.484375 542.386719 102.023438 432.988281 C 102.316406 432.277344 103.375 432.484375 103.347656 433.253906 C 100.945312 501.007812 92.855469 574.027344 81.054688 650.488281 " fill-opacity="1" fill-rule="nonzero"/><path fill="#ababac" d="M 81.414062 648.144531 C 81.5 647.582031 81.585938 647.011719 81.671875 646.445312 C 81.707031 646.839844 81.746094 647.234375 81.78125 647.621094 C 81.804688 647.867188 81.644531 648.085938 81.414062 648.144531 " fill-opacity="1" fill-rule="nonzero"/><path fill="#d4d5d8" d="M 81.292969 648.15625 C 81.042969 648.15625 80.832031 647.96875 80.804688 647.714844 C 75.503906 591.773438 95.683594 462.65625 95.886719 461.355469 C 95.925781 461.117188 96.128906 460.941406 96.367188 460.941406 C 96.394531 460.941406 96.421875 460.945312 96.449219 460.949219 C 96.714844 460.988281 96.898438 461.242188 96.855469 461.511719 C 96.652344 462.796875 76.769531 590.019531 81.671875 646.445312 C 81.585938 647.011719 81.5 647.582031 81.414062 648.144531 C 81.390625 648.148438 81.367188 648.152344 81.339844 648.15625 L 81.292969 648.15625 " fill-opacity="1" fill-rule="nonzero"/><path fill="#979aa0" d="M 84.792969 679.800781 C 84.792969 679.800781 73.5 585.496094 129.589844 500.628906 C 129.957031 500.074219 130.976562 500.414062 130.867188 501.054688 C 120.988281 557.507812 104.914062 617.496094 84.792969 679.800781 " fill-opacity="1" fill-rule="nonzero"/><path fill="#ffffff" d="M 85.386719 677.960938 C 85.542969 677.472656 85.699219 676.988281 85.855469 676.5 C 85.847656 676.832031 85.839844 677.15625 85.832031 677.484375 C 85.828125 677.738281 85.632812 677.941406 85.386719 677.960938 " fill-opacity="1" fill-rule="nonzero"/><path fill="#d4d5d8" d="M 85.34375 677.964844 L 85.332031 677.964844 C 85.0625 677.957031 84.847656 677.730469 84.851562 677.464844 C 85.355469 652.496094 94.992188 611.949219 102.992188 582.324219 C 111.652344 550.25 120.308594 523.722656 120.394531 523.457031 C 120.460938 523.253906 120.652344 523.117188 120.859375 523.117188 C 120.910156 523.117188 120.960938 523.125 121.011719 523.144531 C 121.269531 523.230469 121.410156 523.503906 121.324219 523.761719 C 121.238281 524.023438 112.589844 550.53125 103.9375 582.585938 C 96.058594 611.761719 86.585938 651.558594 85.855469 676.5 C 85.699219 676.988281 85.542969 677.472656 85.386719 677.960938 C 85.371094 677.960938 85.359375 677.964844 85.34375 677.964844 " fill-opacity="1" fill-rule="nonzero"/><path fill="#888b8f" d="M 56.152344 627.609375 L 108.003906 627.609375 C 111.886719 627.609375 114.789062 631.261719 114.070312 635.074219 C 110.972656 651.453125 104.703125 665.921875 98.183594 678.035156 C 96.730469 680.738281 93.910156 682.464844 90.835938 682.464844 L 73.917969 682.464844 C 70.796875 682.464844 67.9375 680.769531 66.433594 678.035156 C 58.300781 663.238281 54.324219 648.554688 51.007812 634.1875 C 50.242188 630.875 52.753906 627.609375 56.152344 627.609375 " fill-opacity="1" fill-rule="nonzero"/><path fill="#979aa0" d="M 488.136719 654.226562 C 488.136719 654.226562 451.371094 694.746094 420.664062 677.621094 C 395.988281 663.855469 431.050781 667.453125 460.789062 660.949219 C 463.121094 660.441406 462.507812 656.953125 460.140625 657.265625 C 436.871094 660.351562 401.367188 662.871094 395.203125 650.738281 C 385.890625 632.433594 394.921875 638.371094 423.253906 641.015625 C 451.589844 643.660156 457.046875 636.667969 438.550781 632.3125 C 430.613281 630.441406 420.65625 631.148438 411.339844 631.859375 C 398.953125 632.800781 387.691406 633.742188 383.785156 628.628906 C 376.929688 619.667969 373.183594 601.882812 370.453125 594.238281 C 367.722656 586.585938 405.722656 575.113281 415.992188 585.152344 C 426.269531 595.191406 434.613281 617.605469 446.800781 621.695312 C 458.996094 625.789062 445.878906 605.964844 437.796875 595.734375 C 429.707031 585.5 426.503906 577.894531 442.65625 580.335938 C 458.8125 582.773438 467.351562 602.488281 469.054688 617.199219 C 470.753906 631.914062 476.449219 640.140625 476.191406 632.863281 C 475.933594 625.585938 473.289062 603.261719 468.128906 596.546875 C 462.964844 589.835938 499.824219 598.027344 488.136719 654.226562 " fill-opacity="1" fill-rule="nonzero"/><path fill="#cecfd2" d="M 456.78125 634.609375 C 428.96875 617.777344 400.027344 606.8125 399.636719 606.664062 C 399.390625 606.566406 399.265625 606.292969 399.355469 606.039062 C 399.429688 605.847656 399.617188 605.730469 399.808594 605.730469 C 399.867188 605.730469 399.921875 605.738281 399.976562 605.761719 C 400.355469 605.898438 427.132812 616.042969 453.976562 631.816406 C 454.898438 632.746094 455.835938 633.683594 456.78125 634.609375 " fill-opacity="1" fill-rule="nonzero"/><path fill="#5c5e61" d="M 510.332031 680.105469 C 510.332031 680.105469 443.1875 682.320312 432.0625 640.625 C 423.113281 607.121094 449.898438 641.089844 481.039062 661.746094 C 483.480469 663.367188 486.03125 659.851562 483.734375 658.03125 C 461.140625 640.15625 428.582031 611.019531 434.007812 595.226562 C 442.203125 571.375 444.679688 584.40625 466.550781 611.636719 C 488.425781 638.863281 499.253906 637.703125 487.296875 617.683594 C 475.339844 597.660156 441.710938 579.964844 443.753906 566.269531 C 445.800781 552.574219 458.28125 534.078125 462.691406 525.136719 C 467.105469 516.195312 509.691406 539.882812 509.613281 557.515625 C 509.535156 575.144531 496.898438 601.644531 503.707031 615.886719 C 510.511719 630.125 516.789062 601.632812 518.910156 585.765625 C 521.023438 569.894531 524.988281 560.574219 536.640625 576.898438 C 548.285156 593.222656 538.203125 617.585938 526.679688 631.652344 C 515.160156 645.726562 512.765625 657.773438 518.96875 651.324219 C 525.164062 644.882812 542.589844 623.480469 544.097656 613.199219 C 545.605469 602.914062 569.871094 642.394531 510.332031 680.105469 " fill-opacity="1" fill-rule="nonzero"/><path fill="#b2b3b5" d="M 507.683594 677.855469 C 507.597656 677.855469 507.511719 677.835938 507.4375 677.800781 C 507.242188 677.710938 507.105469 677.519531 507.097656 677.289062 C 504.476562 625.898438 476.949219 562.113281 476.667969 561.472656 C 476.539062 561.175781 476.675781 560.824219 476.976562 560.695312 C 477.054688 560.660156 477.132812 560.648438 477.214844 560.648438 C 477.441406 560.648438 477.664062 560.777344 477.757812 561 C 478.035156 561.644531 505.648438 625.621094 508.277344 677.230469 C 508.300781 677.558594 508.046875 677.835938 507.71875 677.855469 C 507.707031 677.855469 507.695312 677.855469 507.683594 677.855469 " fill-opacity="1" fill-rule="nonzero"/><path fill="#e5b731" d="M 417.402344 425.273438 L 239.449219 425.273438 C 229.492188 425.273438 221.417969 417.203125 221.417969 407.246094 L 221.417969 321.78125 C 221.417969 311.824219 229.492188 303.753906 239.449219 303.753906 L 417.402344 303.753906 C 427.363281 303.753906 435.433594 311.824219 435.433594 321.78125 L 435.433594 407.246094 C 435.433594 417.203125 427.363281 425.273438 417.402344 425.273438 " fill-opacity="1" fill-rule="nonzero"/><path fill="#f3d33f" d="M 409.925781 420.113281 L 244.070312 420.113281 C 234.109375 420.113281 226.039062 412.042969 226.039062 402.085938 L 226.039062 326.941406 C 226.039062 316.988281 234.109375 308.914062 244.070312 308.914062 L 409.925781 308.914062 C 419.886719 308.914062 427.957031 316.988281 427.957031 326.941406 L 427.957031 402.085938 C 427.957031 412.042969 419.886719 420.113281 409.925781 420.113281 " fill-opacity="1" fill-rule="nonzero"/><path fill="#ffffff" d="M 413.3125 348.148438 L 324.945312 348.148438 C 322.300781 348.148438 320.15625 346.007812 320.15625 343.359375 L 320.15625 341.851562 C 320.15625 339.207031 322.300781 337.066406 324.945312 337.066406 L 413.3125 337.066406 C 415.957031 337.066406 418.101562 339.207031 418.101562 341.851562 L 418.101562 343.359375 C 418.101562 346.007812 415.957031 348.148438 413.3125 348.148438 " fill-opacity="1" fill-rule="nonzero"/><path fill="#ffffff" d="M 413.3125 371.90625 L 324.945312 371.90625 C 322.300781 371.90625 320.15625 369.761719 320.15625 367.113281 L 320.15625 365.605469 C 320.15625 362.964844 322.300781 360.820312 324.945312 360.820312 L 413.3125 360.820312 C 415.957031 360.820312 418.101562 362.964844 418.101562 365.605469 L 418.101562 367.113281 C 418.101562 369.761719 415.957031 371.90625 413.3125 371.90625 " fill-opacity="1" fill-rule="nonzero"/><path fill="#ffffff" d="M 413.3125 394.6875 L 324.945312 394.6875 C 322.300781 394.6875 320.15625 392.546875 320.15625 389.898438 L 320.15625 388.390625 C 320.15625 385.75 322.300781 383.605469 324.945312 383.605469 L 413.3125 383.605469 C 415.957031 383.605469 418.101562 385.75 418.101562 388.390625 L 418.101562 389.898438 C 418.101562 392.546875 415.957031 394.6875 413.3125 394.6875 " fill-opacity="1" fill-rule="nonzero"/><path fill="#ffffff" d="M 274.058594 355.539062 L 245.519531 355.539062 C 242.003906 355.539062 239.152344 352.691406 239.152344 349.179688 L 239.152344 327.417969 C 239.152344 323.902344 242.003906 321.054688 245.519531 321.054688 L 274.058594 321.054688 C 277.574219 321.054688 280.421875 323.902344 280.421875 327.417969 L 280.421875 349.179688 C 280.421875 352.691406 277.574219 355.539062 274.058594 355.539062 " fill-opacity="1" fill-rule="nonzero"/><g clip-path="url(#id27)"><g clip-path="url(#id28)"><g clip-path="url(#id29)"><g clip-path="url(#id30)"><path fill="url(#id31)" d="M 216.402344 347.726562 L 245.386719 360.558594 L 226.464844 403.277344 L 197.476562 390.441406 Z M 216.402344 347.726562 " fill-rule="nonzero"/></g></g></g></g><path fill="#333435" d="M 165.371094 391.035156 C 165.371094 391.035156 158.089844 394.574219 156.75 398.644531 C 155.675781 401.910156 147.625 402.328125 146.828125 408.746094 C 146.417969 412.058594 143.964844 414.714844 140.664062 415.222656 C 132.441406 416.484375 119.765625 420.746094 117.738281 435.023438 C 116.191406 445.917969 121.746094 450.046875 127.578125 451.476562 C 131.859375 452.53125 134.707031 456.691406 133.839844 461.011719 C 133.007812 465.160156 134.246094 469.953125 141.429688 473.742188 C 157.53125 482.234375 173.605469 453.625 173.605469 453.625 L 176.902344 403.667969 L 165.371094 391.035156 " fill-opacity="1" fill-rule="nonzero"/><g clip-path="url(#id32)"><g clip-path="url(#id33)"><g clip-path="url(#id34)"><g clip-path="url(#id35)"><path fill="url(#id36)" d="M 192.769531 372.648438 L 257.320312 401.230469 L 224.042969 476.339844 L 159.496094 447.761719 Z M 192.769531 372.648438 " fill-rule="nonzero"/></g></g></g></g><path fill="#333435" d="M 99.199219 704.28125 L 98.15625 712.84375 C 97.070312 716.910156 91.832031 727.167969 85.105469 726.5 C 80.96875 726.085938 80.472656 714.003906 81.046875 712.1875 C 82.097656 708.882812 84.019531 703.921875 86.792969 701.003906 L 96.292969 701.003906 C 98.046875 701.003906 99.410156 702.539062 99.199219 704.28125 " fill-opacity="1" fill-rule="nonzero"/><g clip-path="url(#id37)"><g clip-path="url(#id38)"><g clip-path="url(#id39)"><g clip-path="url(#id40)"><path fill="url(#id41)" d="M 180.671875 602.597656 L 149.226562 604.316406 L 155.320312 715.777344 L 186.761719 714.0625 Z M 180.671875 602.597656 " fill-rule="nonzero"/></g></g></g></g><path fill="#333435" d="M 182.308594 716.582031 L 174.738281 716.582031 C 173.320312 716.582031 171.980469 715.933594 171.117188 714.8125 C 168.753906 711.742188 163.863281 705.761719 161.527344 705.605469 C 158.378906 705.394531 158.78125 716.582031 158.78125 716.582031 L 157.015625 716.582031 L 154.78125 702.679688 C 154.21875 699.183594 155.957031 695.714844 159.101562 694.078125 C 159.101562 694.078125 159.820312 699.398438 163.722656 701.75 C 167.625 704.105469 179.601562 712.535156 179.601562 712.535156 C 179.601562 712.535156 181.070312 712.328125 182.679688 712.613281 C 185.070312 713.046875 184.738281 716.582031 182.308594 716.582031 " fill-opacity="1" fill-rule="nonzero"/><g clip-path="url(#id42)"><g clip-path="url(#id43)"><g clip-path="url(#id44)"><g clip-path="url(#id45)"><path fill="url(#id46)" d="M 185.171875 627.703125 L 96.519531 580.882812 L 40.011719 687.816406 L 128.660156 734.640625 Z M 185.171875 627.703125 " fill-rule="nonzero"/></g></g></g></g><path fill="#f3d33f" d="M 160.976562 510.71875 C 165.585938 491.199219 160.949219 476.496094 156.082031 467.433594 C 152.199219 460.203125 154.929688 451.261719 162.210938 447.472656 C 173.589844 441.554688 185.136719 438.785156 185.136719 438.785156 C 185.136719 438.785156 207.6875 455.269531 205.015625 468.171875 C 203.445312 475.730469 189.164062 513.460938 189.164062 513.460938 C 189.164062 513.460938 175.957031 519.710938 160.976562 510.71875 " fill-opacity="1" fill-rule="nonzero"/><path fill="#5c5e61" d="M 142.984375 527.734375 C 146.289062 517.789062 160.976562 510.71875 160.976562 510.71875 C 175.957031 519.710938 189.164062 513.460938 189.164062 513.460938 C 189.164062 513.460938 192.125 524.78125 190.082031 535.300781 C 188.035156 545.816406 175.210938 613.417969 175.210938 613.417969 C 155 617.511719 123.917969 609.296875 123.917969 609.296875 C 136.789062 586.449219 139.683594 537.683594 142.984375 527.734375 " fill-opacity="1" fill-rule="nonzero"/><g clip-path="url(#id47)"><g clip-path="url(#id48)"><g clip-path="url(#id49)"><g clip-path="url(#id50)"><path fill="url(#id51)" d="M 153.917969 445.203125 L 181.609375 453.453125 L 192.8125 415.867188 L 165.125 407.617188 Z M 153.917969 445.203125 " fill-rule="nonzero"/></g></g></g></g><g clip-path="url(#id52)"><g clip-path="url(#id53)"><g clip-path="url(#id54)"><path fill="#ffffff" d="M 179.195312 438.914062 L 214.757812 400.996094 L 176.800781 365.425781 L 141.242188 403.34375 Z M 179.195312 438.914062 " fill-opacity="1" fill-rule="nonzero"/></g></g></g><path fill="#333435" d="M 172.605469 406.953125 C 172.605469 406.953125 166.710938 390.4375 181.355469 390.246094 L 184.800781 392.652344 C 184.800781 392.652344 190.175781 383.496094 181.355469 379.128906 C 172.535156 374.753906 162.214844 378.363281 158.460938 390.246094 C 154.707031 402.121094 154.066406 410.074219 160.308594 415.757812 C 166.554688 421.441406 169.128906 414.996094 169.128906 414.996094 C 169.128906 414.996094 165.726562 409.683594 167.109375 406.835938 C 168.496094 403.992188 171.6875 407.425781 171.6875 407.425781 L 172.605469 406.953125 " fill-opacity="1" fill-rule="nonzero"/><g clip-path="url(#id55)"><g clip-path="url(#id56)"><g clip-path="url(#id57)"><path fill="#ffffff" d="M 165.847656 418.433594 L 177.296875 406.226562 L 165.144531 394.832031 L 153.695312 407.042969 Z M 165.847656 418.433594 " fill-opacity="1" fill-rule="nonzero"/></g></g></g><g clip-path="url(#id58)"><g clip-path="url(#id59)"><g clip-path="url(#id60)"><path fill="#ffffff" d="M 133.816406 441.921875 L 176.511719 524.882812 L 276.140625 473.640625 L 233.445312 390.679688 Z M 133.816406 441.921875 " fill-opacity="1" fill-rule="nonzero"/></g></g></g><g clip-path="url(#id61)"><g clip-path="url(#id62)"><g clip-path="url(#id63)"><path fill="#ffffff" d="M 229.988281 411.117188 L 250.082031 450.160156 L 276.695312 436.472656 L 256.601562 397.429688 Z M 229.988281 411.117188 " fill-opacity="1" fill-rule="nonzero"/></g></g></g></svg>