<svg xmlns="http://www.w3.org/2000/svg" xmlns:xlink="http://www.w3.org/1999/xlink" width="1000" zoomAndPan="magnify" viewBox="0 0 750 749.999995" height="1000" preserveAspectRatio="xMidYMid meet" version="1.0"><path fill="#e7e8ff" d="M 228.203125 689.757812 L 534.339844 689.757812 C 591.167969 689.757812 641.160156 652.148438 656.984375 597.484375 L 667.101562 562.535156 C 680.367188 516.710938 655.445312 468.511719 610.417969 452.917969 C 548.238281 431.378906 529.765625 352.25 575.964844 305.335938 L 580.597656 300.632812 C 626.621094 253.898438 611.679688 175.484375 551.699219 149.007812 L 377.167969 71.957031 C 324.652344 48.773438 264.320312 51.59375 214.191406 79.570312 L 185.691406 95.476562 C 126.792969 128.347656 98.882812 198 118.746094 262.527344 C 134.351562 313.222656 120.652344 368.402344 83.160156 405.878906 L 80.816406 408.222656 C 20.230469 468.777344 23.277344 567.984375 87.464844 624.699219 L 110.785156 645.300781 C 143.210938 673.949219 184.960938 689.757812 228.203125 689.757812 Z M 228.203125 689.757812 " fill-opacity="1" fill-rule="nonzero"/><path fill="#032068" d="M 664.761719 568.699219 C 605.511719 598.089844 580.878906 660.804688 576.742188 688.925781 L 598.953125 688.925781 C 648.703125 654.289062 666.972656 600.308594 670.203125 572.4375 C 670.550781 569.417969 667.484375 567.347656 664.761719 568.699219 Z M 664.761719 568.699219 " fill-opacity="1" fill-rule="nonzero"/><path fill="#ffffff" d="M 648.820312 479.710938 C 582.292969 511.992188 562.761719 631.371094 561.363281 688.070312 L 591.261719 688.070312 C 660.289062 588.441406 662.40625 511.921875 654.074219 482.015625 C 653.445312 479.746094 650.941406 478.683594 648.820312 479.710938 Z M 648.820312 479.710938 " fill-opacity="1" fill-rule="nonzero"/><path fill="#032068" d="M 652.089844 482.570312 C 651.820312 481.597656 650.738281 481.074219 649.722656 481.570312 C 617.246094 497.328125 595.960938 534.539062 582.628906 575.375 C 569.660156 615.109375 564.382812 657.769531 563.484375 686.007812 L 590.183594 686.007812 C 658.363281 587.160156 660.183594 511.632812 652.089844 482.570312 Z M 647.921875 477.855469 C 651.144531 476.292969 655.070312 477.894531 656.0625 481.460938 C 664.601562 512.117188 662.226562 589.265625 592.957031 689.246094 L 592.34375 690.136719 L 559.25 690.136719 L 559.300781 688.019531 C 560.003906 659.515625 565.257812 615.292969 578.707031 574.09375 C 592.125 532.996094 613.867188 494.378906 647.921875 477.855469 Z M 647.921875 477.855469 " fill-opacity="1" fill-rule="evenodd"/><path fill="#032068" d="M 645.308594 504.269531 L 617.921875 578.203125 L 633.972656 570.871094 L 635.6875 574.621094 L 615.902344 583.664062 L 591.074219 650.699219 L 605.023438 645.152344 L 606.546875 648.984375 L 589.144531 655.90625 L 576.964844 688.789062 L 573.097656 687.355469 L 597.800781 620.660156 L 585.109375 592.382812 L 588.871094 590.695312 L 599.84375 615.140625 L 626.640625 542.785156 L 620.042969 521.242188 L 623.988281 520.03125 L 629.003906 536.40625 L 641.4375 502.835938 Z M 645.308594 504.269531 " fill-opacity="1" fill-rule="evenodd"/><path fill="#f4ad5e" d="M 650.367188 154.132812 L 641.519531 165.46875 C 640.980469 166.15625 640.101562 166.488281 639.242188 166.328125 L 628.304688 164.277344 C 625.953125 163.835938 624.535156 166.796875 626.351562 168.355469 L 634.945312 175.742188 C 635.574219 176.28125 635.871094 177.109375 635.726562 177.925781 L 633.570312 190.101562 C 633.164062 192.390625 635.980469 193.808594 637.578125 192.117188 L 646.40625 182.761719 C 646.921875 182.210938 647.675781 181.945312 648.421875 182.046875 L 658.640625 183.441406 C 660.941406 183.753906 662.246094 180.882812 660.496094 179.355469 L 652.898438 172.722656 C 652.289062 172.1875 651.996094 171.378906 652.125 170.578125 L 654.523438 155.953125 C 654.914062 153.558594 651.859375 152.222656 650.367188 154.132812 Z M 650.367188 154.132812 " fill-opacity="1" fill-rule="nonzero"/><path fill="#f4ad5e" d="M 61.40625 275.039062 L 67.097656 282.667969 C 67.445312 283.132812 67.5 283.742188 67.242188 284.253906 L 63.976562 290.761719 C 63.273438 292.160156 64.917969 293.59375 66.242188 292.734375 L 72.511719 288.671875 C 72.96875 288.375 73.554688 288.339844 74.050781 288.578125 L 81.476562 292.152344 C 82.871094 292.824219 84.285156 291.3125 83.484375 290 L 79.058594 282.742188 C 78.800781 282.316406 78.765625 281.796875 78.960938 281.34375 L 81.679688 275.167969 C 82.292969 273.78125 80.683594 272.4375 79.390625 273.257812 L 73.78125 276.832031 C 73.332031 277.117188 72.757812 277.152344 72.269531 276.925781 L 63.316406 272.753906 C 61.851562 272.074219 60.449219 273.753906 61.40625 275.039062 Z M 61.40625 275.039062 " fill-opacity="1" fill-rule="nonzero"/><path fill="#f4ad5e" d="M 158.667969 202.96875 L 154.925781 197.933594 C 154.699219 197.625 154.328125 197.480469 153.960938 197.550781 L 149.335938 198.460938 C 148.339844 198.65625 147.738281 197.34375 148.507812 196.648438 L 152.144531 193.367188 C 152.410156 193.128906 152.535156 192.757812 152.472656 192.394531 L 151.5625 186.984375 C 151.390625 185.964844 152.582031 185.335938 153.257812 186.089844 L 156.992188 190.25 C 157.210938 190.492188 157.527344 190.609375 157.847656 190.566406 L 162.167969 189.945312 C 163.144531 189.804688 163.695312 191.082031 162.953125 191.761719 L 159.738281 194.710938 C 159.480469 194.945312 159.359375 195.308594 159.414062 195.660156 L 160.425781 202.164062 C 160.59375 203.226562 159.300781 203.820312 158.667969 202.96875 Z M 158.667969 202.96875 " fill-opacity="1" fill-rule="nonzero"/><path fill="#ffffff" d="M 204.394531 129.976562 C 204.394531 122.375 210.554688 116.210938 218.15625 116.210938 L 564.054688 116.210938 C 571.65625 116.210938 577.820312 122.375 577.820312 129.976562 L 577.820312 675.996094 C 577.820312 683.597656 571.65625 689.757812 564.054688 689.757812 L 218.15625 689.757812 C 210.554688 689.757812 204.394531 683.597656 204.394531 675.996094 Z M 204.394531 129.976562 " fill-opacity="1" fill-rule="nonzero"/><path fill="#032068" d="M 202.332031 129.976562 C 202.332031 121.234375 209.417969 114.148438 218.160156 114.148438 L 564.054688 114.148438 C 572.796875 114.148438 579.882812 121.234375 579.882812 129.976562 L 579.882812 675.996094 C 579.882812 684.738281 572.796875 691.824219 564.054688 691.824219 L 218.160156 691.824219 C 209.417969 691.824219 202.332031 684.738281 202.332031 675.996094 Z M 218.160156 118.273438 C 211.695312 118.273438 206.457031 123.511719 206.457031 129.976562 L 206.457031 675.996094 C 206.457031 682.457031 211.695312 687.695312 218.160156 687.695312 L 564.054688 687.695312 C 570.519531 687.695312 575.757812 682.457031 575.757812 675.996094 L 575.757812 129.976562 C 575.757812 123.511719 570.519531 118.273438 564.054688 118.273438 Z M 218.160156 118.273438 " fill-opacity="1" fill-rule="evenodd"/><path fill="#032068" d="M 204.394531 129.976562 C 204.394531 122.375 210.554688 116.210938 218.15625 116.210938 L 564.054688 116.210938 C 571.65625 116.210938 577.820312 122.375 577.820312 129.976562 L 577.820312 163.664062 L 204.394531 163.664062 Z M 204.394531 129.976562 " fill-opacity="1" fill-rule="nonzero"/><path fill="#ffffff" d="M 247.941406 140.273438 C 247.941406 145.96875 243.320312 150.585938 237.625 150.585938 C 231.929688 150.585938 227.3125 145.96875 227.3125 140.273438 C 227.3125 134.578125 231.929688 129.960938 237.625 129.960938 C 243.320312 129.960938 247.941406 134.578125 247.941406 140.273438 Z M 247.941406 140.273438 " fill-opacity="1" fill-rule="nonzero"/><path fill="#ffffff" d="M 282.316406 140.273438 C 282.316406 145.96875 277.699219 150.585938 272.003906 150.585938 C 266.308594 150.585938 261.691406 145.96875 261.691406 140.273438 C 261.691406 134.578125 266.308594 129.960938 272.003906 129.960938 C 277.699219 129.960938 282.316406 134.578125 282.316406 140.273438 Z M 282.316406 140.273438 " fill-opacity="1" fill-rule="nonzero"/><path fill="#ffffff" d="M 247.71875 213.175781 C 247.71875 209.757812 250.488281 206.988281 253.910156 206.988281 L 532.429688 206.988281 C 535.847656 206.988281 538.621094 209.757812 538.621094 213.175781 L 538.621094 326.648438 C 538.621094 330.070312 535.847656 332.839844 532.429688 332.839844 L 253.910156 332.839844 C 250.488281 332.839844 247.71875 330.070312 247.71875 326.648438 Z M 247.71875 213.175781 " fill-opacity="1" fill-rule="nonzero"/><path fill="#e7e8ff" d="M 245.65625 213.175781 C 245.65625 208.621094 249.351562 204.925781 253.90625 204.925781 L 532.429688 204.925781 C 536.988281 204.925781 540.683594 208.621094 540.683594 213.175781 L 540.683594 326.648438 C 540.683594 331.207031 536.988281 334.902344 532.429688 334.902344 L 253.90625 334.902344 C 249.351562 334.902344 245.65625 331.207031 245.65625 326.648438 Z M 253.90625 209.050781 C 251.628906 209.050781 249.78125 210.898438 249.78125 213.175781 L 249.78125 326.648438 C 249.78125 328.929688 251.628906 330.777344 253.90625 330.777344 L 532.429688 330.777344 C 534.707031 330.777344 536.554688 328.929688 536.554688 326.648438 L 536.554688 213.175781 C 536.554688 210.898438 534.707031 209.050781 532.429688 209.050781 Z M 253.90625 209.050781 " fill-opacity="1" fill-rule="evenodd"/><path fill="#ffffff" d="M 247.71875 382.351562 C 247.71875 378.933594 250.488281 376.164062 253.910156 376.164062 L 532.429688 376.164062 C 535.847656 376.164062 538.621094 378.933594 538.621094 382.351562 L 538.621094 495.824219 C 538.621094 499.242188 535.847656 502.015625 532.429688 502.015625 L 253.910156 502.015625 C 250.488281 502.015625 247.71875 499.242188 247.71875 495.824219 Z M 247.71875 382.351562 " fill-opacity="1" fill-rule="nonzero"/><path fill="#e7e8ff" d="M 245.65625 382.351562 C 245.65625 377.796875 249.351562 374.101562 253.90625 374.101562 L 532.429688 374.101562 C 536.988281 374.101562 540.683594 377.796875 540.683594 382.351562 L 540.683594 495.824219 C 540.683594 500.382812 536.988281 504.078125 532.429688 504.078125 L 253.90625 504.078125 C 249.351562 504.078125 245.65625 500.382812 245.65625 495.824219 Z M 253.90625 378.226562 C 251.628906 378.226562 249.78125 380.074219 249.78125 382.351562 L 249.78125 495.824219 C 249.78125 498.105469 251.628906 499.953125 253.90625 499.953125 L 532.429688 499.953125 C 534.707031 499.953125 536.554688 498.105469 536.554688 495.824219 L 536.554688 382.351562 C 536.554688 380.074219 534.707031 378.226562 532.429688 378.226562 Z M 253.90625 378.226562 " fill-opacity="1" fill-rule="evenodd"/><path fill="#ffffff" d="M 247.71875 551.53125 C 247.71875 548.113281 250.488281 545.339844 253.910156 545.339844 L 532.429688 545.339844 C 535.847656 545.339844 538.621094 548.113281 538.621094 551.53125 L 538.621094 665 C 538.621094 668.421875 535.847656 671.191406 532.429688 671.191406 L 253.910156 671.191406 C 250.488281 671.191406 247.71875 668.421875 247.71875 665 Z M 247.71875 551.53125 " fill-opacity="1" fill-rule="nonzero"/><path fill="#e7e8ff" d="M 245.65625 551.53125 C 245.65625 546.972656 249.351562 543.277344 253.90625 543.277344 L 532.429688 543.277344 C 536.988281 543.277344 540.683594 546.972656 540.683594 551.53125 L 540.683594 665 C 540.683594 669.558594 536.988281 673.253906 532.429688 673.253906 L 253.90625 673.253906 C 249.351562 673.253906 245.65625 669.558594 245.65625 665 Z M 253.90625 547.40625 C 251.628906 547.40625 249.78125 549.25 249.78125 551.53125 L 249.78125 665 C 249.78125 667.28125 251.628906 669.128906 253.90625 669.128906 L 532.429688 669.128906 C 534.707031 669.128906 536.554688 667.28125 536.554688 665 L 536.554688 551.53125 C 536.554688 549.25 534.707031 547.40625 532.429688 547.40625 Z M 253.90625 547.40625 " fill-opacity="1" fill-rule="evenodd"/><path fill="#032068" d="M 282.789062 246.1875 C 282.789062 242.769531 285.5625 240 288.980469 240 L 338.496094 240 C 341.914062 240 344.683594 242.769531 344.683594 246.1875 L 344.683594 293.640625 C 344.683594 297.058594 341.914062 299.828125 338.496094 299.828125 L 288.980469 299.828125 C 285.5625 299.828125 282.789062 297.058594 282.789062 293.640625 Z M 282.789062 246.1875 " fill-opacity="1" fill-rule="nonzero"/><path fill="#032068" d="M 282.789062 584.539062 C 282.789062 581.121094 285.5625 578.351562 288.980469 578.351562 L 338.496094 578.351562 C 341.914062 578.351562 344.683594 581.121094 344.683594 584.539062 L 344.683594 631.992188 C 344.683594 635.410156 341.914062 638.183594 338.496094 638.183594 L 288.980469 638.183594 C 285.5625 638.183594 282.789062 635.410156 282.789062 631.992188 Z M 282.789062 584.539062 " fill-opacity="1" fill-rule="nonzero"/><path fill="#032068" d="M 280.730469 415.363281 C 280.730469 410.804688 284.421875 407.113281 288.980469 407.113281 L 338.496094 407.113281 C 343.054688 407.113281 346.75 410.804688 346.75 415.363281 L 346.75 462.816406 C 346.75 467.375 343.054688 471.066406 338.496094 471.066406 L 288.980469 471.066406 C 284.421875 471.066406 280.730469 467.375 280.730469 462.816406 Z M 288.980469 411.238281 C 286.703125 411.238281 284.855469 413.085938 284.855469 415.363281 L 284.855469 462.816406 C 284.855469 465.09375 286.703125 466.941406 288.980469 466.941406 L 338.496094 466.941406 C 340.773438 466.941406 342.621094 465.09375 342.621094 462.816406 L 342.621094 415.363281 C 342.621094 413.085938 340.773438 411.238281 338.496094 411.238281 Z M 288.980469 411.238281 " fill-opacity="1" fill-rule="evenodd"/><path fill="#ffffff" d="M 316.691406 140.273438 C 316.691406 145.96875 312.074219 150.585938 306.378906 150.585938 C 300.683594 150.585938 296.066406 145.96875 296.066406 140.273438 C 296.066406 134.578125 300.683594 129.960938 306.378906 129.960938 C 312.074219 129.960938 316.691406 134.578125 316.691406 140.273438 Z M 316.691406 140.273438 " fill-opacity="1" fill-rule="nonzero"/><path fill="#f4ad5e" d="M 377.695312 257.535156 C 377.695312 254.6875 380.003906 252.378906 382.851562 252.378906 L 496.324219 252.378906 C 499.171875 252.378906 501.480469 254.6875 501.480469 257.535156 C 501.480469 260.382812 499.171875 262.691406 496.324219 262.691406 L 382.851562 262.691406 C 380.003906 262.691406 377.695312 260.382812 377.695312 257.535156 Z M 377.695312 257.535156 " fill-opacity="1" fill-rule="nonzero"/><path fill="#f4ad5e" d="M 377.695312 426.710938 C 377.695312 423.863281 380.003906 421.554688 382.851562 421.554688 L 496.324219 421.554688 C 499.171875 421.554688 501.480469 423.863281 501.480469 426.710938 C 501.480469 429.558594 499.171875 431.871094 496.324219 431.871094 L 382.851562 431.871094 C 380.003906 431.871094 377.695312 429.558594 377.695312 426.710938 Z M 377.695312 426.710938 " fill-opacity="1" fill-rule="nonzero"/><path fill="#f4ad5e" d="M 377.695312 595.886719 C 377.695312 593.039062 380.003906 590.730469 382.851562 590.730469 L 496.324219 590.730469 C 499.171875 590.730469 501.480469 593.039062 501.480469 595.886719 C 501.480469 598.734375 499.171875 601.046875 496.324219 601.046875 L 382.851562 601.046875 C 380.003906 601.046875 377.695312 598.734375 377.695312 595.886719 Z M 377.695312 595.886719 " fill-opacity="1" fill-rule="nonzero"/><path fill="#e7e8ff" d="M 377.695312 282.292969 C 377.695312 279.441406 380.003906 277.132812 382.851562 277.132812 L 415.863281 277.132812 C 418.710938 277.132812 421.019531 279.441406 421.019531 282.292969 C 421.019531 285.140625 418.710938 287.449219 415.863281 287.449219 L 382.851562 287.449219 C 380.003906 287.449219 377.695312 285.140625 377.695312 282.292969 Z M 377.695312 282.292969 " fill-opacity="1" fill-rule="nonzero"/><path fill="#e7e8ff" d="M 377.695312 451.46875 C 377.695312 448.621094 380.003906 446.3125 382.851562 446.3125 L 457.125 446.3125 C 459.972656 446.3125 462.28125 448.621094 462.28125 451.46875 C 462.28125 454.316406 459.972656 456.625 457.125 456.625 L 382.851562 456.625 C 380.003906 456.625 377.695312 454.316406 377.695312 451.46875 Z M 377.695312 451.46875 " fill-opacity="1" fill-rule="nonzero"/><path fill="#e7e8ff" d="M 377.695312 620.644531 C 377.695312 617.796875 380.003906 615.488281 382.851562 615.488281 L 486.007812 615.488281 C 488.855469 615.488281 491.167969 617.796875 491.167969 620.644531 C 491.167969 623.496094 488.855469 625.804688 486.007812 625.804688 L 382.851562 625.804688 C 380.003906 625.804688 377.695312 623.496094 377.695312 620.644531 Z M 377.695312 620.644531 " fill-opacity="1" fill-rule="nonzero"/><path fill="#ffffff" d="M 336.59375 261.671875 L 307.300781 287.300781 L 293.875 268.507812 L 300.59375 263.710938 L 308.722656 275.09375 L 331.15625 255.460938 Z M 336.59375 261.671875 " fill-opacity="1" fill-rule="evenodd"/><path fill="#ffffff" d="M 336.59375 600.023438 L 307.300781 625.652344 L 293.875 606.859375 L 300.59375 602.0625 L 308.722656 613.445312 L 331.15625 593.8125 Z M 336.59375 600.023438 " fill-opacity="1" fill-rule="evenodd"/><path fill="#ffffff" d="M 601.257812 295.96875 C 601.972656 293.179688 604.8125 291.5 607.605469 292.214844 L 730.359375 323.695312 C 733.148438 324.410156 734.828125 327.253906 734.113281 330.042969 L 707.5 433.816406 C 706.785156 436.605469 703.941406 438.289062 701.15625 437.574219 L 578.398438 406.09375 C 575.609375 405.378906 573.929688 402.535156 574.644531 399.746094 Z M 601.257812 295.96875 " fill-opacity="1" fill-rule="nonzero"/><path fill="#032068" d="M 599.570312 295.539062 C 600.527344 291.820312 604.316406 289.578125 608.035156 290.53125 L 730.789062 322.011719 C 734.507812 322.964844 736.75 326.753906 735.796875 330.476562 L 709.183594 434.25 C 708.226562 437.96875 704.441406 440.210938 700.722656 439.257812 L 577.964844 407.777344 C 574.246094 406.820312 572.003906 403.035156 572.957031 399.3125 Z M 607.171875 293.898438 C 605.308594 293.421875 603.414062 294.542969 602.9375 296.402344 L 576.324219 400.179688 C 575.847656 402.039062 576.96875 403.929688 578.828125 404.40625 L 701.585938 435.890625 C 703.445312 436.367188 705.339844 435.246094 705.816406 433.386719 L 732.429688 329.609375 C 732.90625 327.75 731.785156 325.855469 729.925781 325.378906 Z M 607.171875 293.898438 " fill-opacity="1" fill-rule="evenodd"/><path fill="#032068" d="M 600.242188 267.054688 C 600.957031 264.265625 603.800781 262.582031 606.589844 263.296875 L 745.160156 298.835938 C 747.949219 299.550781 749.632812 302.394531 748.914062 305.183594 L 741.773438 333.039062 C 741.058594 335.828125 738.214844 337.511719 735.425781 336.796875 L 596.855469 301.257812 C 594.0625 300.542969 592.382812 297.703125 593.097656 294.910156 Z M 600.242188 267.054688 " fill-opacity="1" fill-rule="nonzero"/><path fill="#e7e8ff" d="M 635.933594 259.351562 C 636.648438 256.558594 639.488281 254.878906 642.277344 255.59375 L 644.828125 256.25 C 647.621094 256.964844 649.300781 259.804688 648.585938 262.597656 L 641.441406 290.453125 C 640.726562 293.242188 637.886719 294.925781 635.09375 294.207031 L 632.542969 293.554688 C 629.753906 292.839844 628.074219 289.996094 628.789062 287.207031 Z M 635.933594 259.351562 " fill-opacity="1" fill-rule="nonzero"/><path fill="#e7e8ff" d="M 708.6875 278.007812 C 709.402344 275.21875 712.242188 273.539062 715.035156 274.253906 L 717.585938 274.90625 C 720.375 275.621094 722.054688 278.464844 721.339844 281.253906 L 714.195312 309.113281 C 713.480469 311.902344 710.640625 313.582031 707.851562 312.867188 L 705.296875 312.210938 C 702.507812 311.496094 700.828125 308.65625 701.542969 305.867188 Z M 708.6875 278.007812 " fill-opacity="1" fill-rule="nonzero"/><path fill="#f4ad5e" d="M 630.558594 394.183594 L 616.734375 390.640625 L 628.125 346.222656 L 613.519531 346.746094 L 616.230469 336.179688 L 644.707031 333.757812 L 645.972656 334.082031 Z M 630.558594 394.183594 " fill-opacity="1" fill-rule="nonzero"/><path fill="#f4ad5e" d="M 679.074219 406.625 L 665.246094 403.082031 L 676.636719 358.664062 L 662.03125 359.1875 L 664.742188 348.621094 L 693.21875 346.199219 L 694.488281 346.523438 Z M 679.074219 406.625 " fill-opacity="1" fill-rule="nonzero"/><path fill="#ffffff" d="M 232.425781 386.796875 C 221.105469 408.433594 201.617188 444.027344 196.742188 453.128906 C 196.214844 454.117188 196.796875 455.304688 197.894531 455.511719 L 259.609375 467.265625 C 260.367188 467.410156 261.125 467.023438 261.449219 466.328125 L 295.070312 395.152344 C 295.5625 394.109375 294.886719 392.886719 293.738281 392.757812 L 234.105469 385.914062 C 233.414062 385.835938 232.75 386.179688 232.425781 386.796875 Z M 232.425781 386.796875 " fill-opacity="1" fill-rule="nonzero"/><path fill="#032068" d="M 233.910156 387.589844 C 225.785156 403.117188 213.449219 425.847656 205.332031 440.800781 C 202.164062 446.636719 199.636719 451.292969 198.257812 453.867188 L 259.925781 465.609375 L 293.542969 394.429688 L 233.914062 387.589844 C 233.914062 387.589844 233.910156 387.589844 233.910156 387.589844 Z M 230.929688 386.015625 C 231.582031 384.765625 232.925781 384.082031 234.296875 384.238281 L 293.929688 391.082031 C 296.222656 391.34375 297.578125 393.78125 296.59375 395.871094 L 262.972656 467.050781 C 262.316406 468.4375 260.804688 469.210938 259.292969 468.921875 L 197.578125 457.167969 C 195.386719 456.75 194.175781 454.347656 195.25 452.335938 C 196.636719 449.75 199.191406 445.042969 202.398438 439.136719 C 210.515625 424.183594 222.816406 401.519531 230.929688 386.015625 Z M 230.929688 386.015625 " fill-opacity="1" fill-rule="evenodd"/><path fill="#032068" d="M 272.050781 407.109375 L 241.011719 402.972656 L 241.457031 399.628906 L 272.496094 403.769531 Z M 266.878906 416.417969 L 235.835938 412.28125 L 236.28125 408.941406 L 267.324219 413.078125 Z M 266.878906 416.417969 " fill-opacity="1" fill-rule="evenodd"/><path fill="#efcb96" d="M 137.691406 356.515625 L 132.101562 385.582031 C 134.710938 388.5625 143.058594 394.75 155.582031 395.644531 C 168.105469 396.539062 179.433594 390.796875 183.535156 387.816406 L 180.179688 360.988281 C 199.1875 350.929688 192.480469 312.921875 183.535156 299.507812 C 174.589844 286.09375 137.691406 283.855469 128.746094 315.15625 C 121.589844 340.195312 131.730469 353.164062 137.691406 356.515625 Z M 137.691406 356.515625 " fill-opacity="1" fill-rule="nonzero"/><path fill="#f4ad5e" d="M 62.671875 406.847656 C 93.976562 374.652344 131.992188 375.546875 167.773438 375.546875 C 246.039062 375.546875 276.417969 435.4375 288.832031 455.097656 C 302.285156 484.0625 328.152344 546.132812 307.457031 567.859375 C 299.871094 575.824219 287.796875 582.339844 274.34375 579.238281 C 275.835938 616.128906 278.914062 664.179688 271.757812 674.019531 C 262.8125 686.3125 252.75 690.785156 196.84375 696.375 C 147.394531 701.316406 62.957031 694.019531 39.46875 688.398438 C 29.824219 686.597656 29.605469 630.03125 30.703125 601.96875 C 1.769531 601.96875 0.453125 568.023438 3.410156 551.050781 C 4.527344 530.929688 23.535156 447.089844 62.671875 406.847656 Z M 62.671875 406.847656 " fill-opacity="1" fill-rule="nonzero"/><path fill="#032068" d="M 43.851562 475.964844 C 36.835938 504.894531 32.160156 572.023438 30.699219 601.96875 L 24.125 601.96875 C 28.507812 543.898438 38.007812 493.863281 43.851562 475.964844 Z M 43.851562 475.964844 " fill-opacity="1" fill-rule="nonzero"/><path fill="#032068" d="M 219.5 544.066406 C 232.023438 556.585938 261.589844 572.902344 275.378906 579.238281 L 275.378906 593.722656 C 262.855469 589.25 233.292969 558.96875 219.5 544.066406 Z M 219.5 544.066406 " fill-opacity="1" fill-rule="nonzero"/><path fill="#032068" d="M 133.960938 359.996094 C 138.34375 364.378906 156.242188 364.015625 166.835938 362.1875 C 172.316406 361.339844 176.703125 343.5625 173.414062 340.273438 C 160.261719 335.890625 165.742188 321.648438 171.222656 320.550781 C 176.703125 319.457031 176.703125 334.796875 178.890625 332.605469 C 181.085938 330.414062 179.988281 319.457031 182.179688 315.074219 C 184.371094 310.691406 188.753906 307.40625 197.523438 304.117188 C 218.34375 296.3125 209.578125 266.335938 170.125 269.054688 C 138.34375 271.246094 133.960938 289.875 131.765625 289.875 C 129.574219 289.875 119.710938 293.160156 117.519531 310.691406 C 115.328125 328.222656 128.480469 354.519531 133.960938 359.996094 Z M 133.960938 359.996094 " fill-opacity="1" fill-rule="nonzero"/><path fill="#032068" d="M 2.207031 564.714844 C 10.972656 566.910156 28.945312 577.425781 30.699219 601.96875 C 21.933594 602.699219 3.300781 600.875 2.207031 564.714844 Z M 2.207031 564.714844 " fill-opacity="1" fill-rule="nonzero"/><path fill="#032068" d="M 315.734375 541.996094 C 283.449219 545.304688 269.171875 568.203125 265.03125 579.238281 C 271.238281 582.34375 285.726562 586.480469 302.28125 574.066406 C 315.527344 564.132812 316.078125 548.546875 315.734375 541.996094 Z M 315.734375 541.996094 " fill-opacity="1" fill-rule="nonzero"/></svg>