<svg xmlns="http://www.w3.org/2000/svg" xmlns:xlink="http://www.w3.org/1999/xlink" width="1000" zoomAndPan="magnify" viewBox="0 0 750 749.999995" height="1000" preserveAspectRatio="xMidYMid meet" version="1.0"><path fill="#fcd770" d="M 286.253906 463.398438 L 106.671875 642.980469 L 52.585938 588.894531 L 240.054688 401.375 C 252.449219 424.335938 267.945312 445.132812 286.253906 463.398438 " fill-opacity="1" fill-rule="nonzero"/><path fill="#b4dd7f" d="M 286.253906 463.398438 C 304.519531 481.566406 325.410156 497.203125 348.230469 509.550781 L 329.027344 528.800781 L 160.757812 697.070312 L 106.671875 642.980469 L 286.253906 463.398438 " fill-opacity="1" fill-rule="nonzero"/><path fill="#aab2bd" d="M 160.757812 697.070312 L 16.527344 733.125 L 52.585938 588.894531 L 160.757812 697.070312 " fill-opacity="1" fill-rule="nonzero"/><path fill="#ffc729" d="M 688.617188 464.242188 C 688.757812 464.476562 688.898438 464.617188 688.898438 464.851562 C 695.847656 481.660156 712.328125 492.742188 730.683594 492.742188 L 737.679688 492.742188 L 737.679688 564.855469 L 730.683594 564.855469 C 712.328125 564.855469 695.847656 575.890625 688.898438 592.746094 C 688.898438 592.980469 688.757812 593.121094 688.617188 593.355469 C 681.527344 610.304688 685.378906 629.742188 698.382812 642.839844 L 703.3125 647.769531 L 652.324219 698.757812 L 647.394531 693.828125 C 634.296875 680.824219 614.859375 676.972656 597.863281 684.0625 C 597.628906 684.203125 597.535156 684.296875 597.300781 684.296875 C 580.445312 691.292969 569.410156 707.773438 569.410156 726.128906 L 569.410156 733.125 L 497.296875 733.125 L 497.296875 726.128906 C 497.296875 707.773438 486.214844 691.292969 469.40625 684.296875 C 469.171875 684.296875 469.03125 684.203125 468.796875 684.0625 C 451.847656 676.972656 432.363281 680.824219 419.265625 693.828125 L 414.335938 698.757812 L 363.394531 647.769531 L 368.324219 642.839844 C 381.28125 629.742188 385.132812 610.304688 378.042969 593.355469 C 377.949219 593.121094 377.808594 592.980469 377.808594 592.746094 C 370.859375 575.890625 354.378906 564.855469 335.976562 564.855469 L 329.027344 564.855469 L 329.027344 528.800781 L 348.230469 509.550781 C 372.03125 522.320312 397.996094 531.429688 425.414062 536.5 C 429.359375 592.605469 476.261719 636.972656 533.351562 636.972656 C 593.074219 636.972656 641.527344 588.519531 641.527344 528.800781 C 641.527344 514.011719 638.523438 499.972656 633.074219 487.109375 L 633.074219 486.964844 C 654.109375 471.097656 672.75 451.988281 688.148438 430.484375 C 684.0625 441.191406 684.0625 453.304688 688.617188 464.242188 " fill-opacity="1" fill-rule="nonzero"/><path fill="#fcd770" d="M 633.074219 487.109375 C 638.523438 499.972656 641.527344 514.011719 641.527344 528.800781 C 641.527344 588.519531 593.074219 636.972656 533.351562 636.972656 C 476.261719 636.972656 429.359375 592.605469 425.414062 536.5 C 440.910156 539.363281 456.917969 540.820312 473.257812 540.820312 C 473.632812 540.820312 474.101562 540.820312 474.429688 540.820312 C 479.972656 568.238281 504.246094 588.894531 533.351562 588.894531 C 566.5 588.894531 593.449219 561.945312 593.449219 528.800781 C 593.449219 523.398438 592.746094 518.09375 591.382812 513.023438 C 606.03125 505.605469 620.023438 496.96875 633.074219 487.109375 " fill-opacity="1" fill-rule="nonzero"/><path fill="#ff826e" d="M 633.074219 487.109375 C 620.023438 496.96875 606.03125 505.605469 591.382812 513.023438 C 556.171875 530.582031 516.5 540.582031 474.429688 540.820312 C 474.101562 540.820312 473.632812 540.820312 473.257812 540.820312 C 456.917969 540.820312 440.910156 539.363281 425.414062 536.5 C 397.996094 531.429688 372.03125 522.320312 348.230469 509.550781 C 325.410156 497.203125 304.519531 481.566406 286.253906 463.398438 C 267.945312 445.132812 252.449219 424.335938 240.054688 401.375 C 220.148438 364.144531 208.835938 321.5625 208.835938 276.394531 C 208.835938 130.378906 327.195312 11.972656 473.257812 11.972656 C 546.3125 11.972656 612.417969 41.550781 660.257812 89.394531 C 708.101562 137.1875 737.679688 203.292969 737.679688 276.394531 C 737.679688 333.957031 719.277344 387.105469 688.148438 430.484375 C 672.75 451.988281 654.109375 471.097656 633.074219 486.964844 L 633.074219 487.109375 " fill-opacity="1" fill-rule="nonzero"/><path fill="#ffeaa7" d="M 609.320312 140.332031 C 644.0625 175.171875 665.566406 223.246094 665.566406 276.394531 C 665.566406 382.644531 579.503906 468.703125 473.257812 468.703125 C 367.007812 468.703125 280.949219 382.644531 280.949219 276.394531 C 280.949219 170.148438 367.007812 84.085938 473.257812 84.085938 C 526.359375 84.085938 574.433594 105.589844 609.320312 140.332031 " fill-opacity="1" fill-rule="nonzero"/><path fill="#ff826e" d="M 64.601562 204.28125 L 64.601562 252.355469 L 16.527344 252.355469 L 16.527344 204.28125 L 64.601562 204.28125 " fill-opacity="1" fill-rule="nonzero"/><path fill="#ff826e" d="M 64.601562 11.972656 L 64.601562 60.050781 L 16.527344 60.050781 L 16.527344 11.972656 L 64.601562 11.972656 " fill-opacity="1" fill-rule="nonzero"/><path fill="#ff826e" d="M 64.601562 108.125 L 64.601562 156.203125 L 16.527344 156.203125 L 16.527344 108.125 L 64.601562 108.125 " fill-opacity="1" fill-rule="nonzero"/><path fill="#ff826e" d="M 64.601562 300.433594 L 64.601562 348.511719 L 16.527344 348.511719 L 16.527344 300.433594 L 64.601562 300.433594 " fill-opacity="1" fill-rule="nonzero"/><path fill="#000000" d="M 485.277344 360.53125 L 461.238281 360.53125 L 461.238281 384.570312 L 485.277344 384.570312 L 485.277344 360.53125 " fill-opacity="1" fill-rule="nonzero"/><path fill="#000000" d="M 533.351562 360.53125 L 509.316406 360.53125 L 509.316406 384.570312 L 533.351562 384.570312 L 533.351562 360.53125 " fill-opacity="1" fill-rule="nonzero"/><path fill="#000000" d="M 437.199219 360.53125 L 413.160156 360.53125 L 413.160156 384.570312 L 437.199219 384.570312 L 437.199219 360.53125 " fill-opacity="1" fill-rule="nonzero"/><path fill="#000000" d="M 52.585938 48.03125 L 28.546875 48.03125 L 28.546875 23.992188 L 52.585938 23.992188 Z M 76.621094 -0.046875 L 4.507812 -0.046875 L 4.507812 72.070312 L 76.621094 72.070312 L 76.621094 -0.046875 " fill-opacity="1" fill-rule="nonzero"/><path fill="#000000" d="M 220.851562 23.992188 L 100.660156 23.992188 L 100.660156 48.03125 L 220.851562 48.03125 L 220.851562 23.992188 " fill-opacity="1" fill-rule="nonzero"/><path fill="#000000" d="M 52.585938 144.183594 L 28.546875 144.183594 L 28.546875 120.144531 L 52.585938 120.144531 Z M 76.621094 96.105469 L 4.507812 96.105469 L 4.507812 168.222656 L 76.621094 168.222656 L 76.621094 96.105469 " fill-opacity="1" fill-rule="nonzero"/><path fill="#000000" d="M 220.851562 120.144531 L 100.660156 120.144531 L 100.660156 144.183594 L 220.851562 144.183594 L 220.851562 120.144531 " fill-opacity="1" fill-rule="nonzero"/><path fill="#000000" d="M 52.585938 240.335938 L 28.546875 240.335938 L 28.546875 216.300781 L 52.585938 216.300781 Z M 76.621094 192.261719 L 4.507812 192.261719 L 4.507812 264.375 L 76.621094 264.375 L 76.621094 192.261719 " fill-opacity="1" fill-rule="nonzero"/><path fill="#000000" d="M 52.585938 336.492188 L 28.546875 336.492188 L 28.546875 312.453125 L 52.585938 312.453125 Z M 76.621094 288.414062 L 4.507812 288.414062 L 4.507812 360.53125 L 76.621094 360.53125 L 76.621094 288.414062 " fill-opacity="1" fill-rule="nonzero"/><path fill="#000000" d="M 725.660156 553.074219 C 704.488281 554.855469 686.035156 568.285156 677.585938 588.707031 C 669.226562 608.707031 672.75 631.339844 686.457031 647.628906 L 652.183594 681.902344 C 635.84375 668.195312 613.214844 664.671875 592.746094 673.21875 C 572.792969 681.480469 559.410156 699.933594 557.578125 721.105469 L 509.082031 721.105469 C 507.25 699.933594 493.820312 681.433594 473.445312 673.03125 C 453.445312 664.671875 430.8125 668.195312 414.523438 681.902344 L 380.203125 647.628906 C 393.910156 631.339844 397.433594 608.660156 388.886719 588.191406 C 380.671875 568.238281 362.21875 554.855469 341.046875 553.074219 L 341.046875 533.777344 L 350.71875 524.105469 C 370.71875 534.058594 392.128906 541.617188 414.523438 546.5 C 423.160156 604.671875 473.632812 648.992188 533.351562 648.992188 C 599.601562 648.992188 653.546875 595.09375 653.546875 528.800781 C 653.546875 515.792969 651.386719 503.117188 647.300781 490.910156 C 657.535156 482.648438 667.160156 473.632812 676.082031 463.960938 C 676.644531 465.792969 677.019531 467.625 677.773438 469.40625 C 686.035156 489.3125 704.488281 502.695312 725.660156 504.527344 Z M 37.417969 698.945312 L 50.707031 712.1875 L 33.054688 716.601562 Z M 269.539062 463.070312 L 106.671875 625.984375 L 69.578125 588.894531 L 237.660156 420.8125 C 246.910156 435.933594 257.617188 450.0625 269.539062 463.070312 Z M 123.667969 642.980469 L 286.582031 480.066406 C 299.542969 491.992188 313.71875 502.695312 328.792969 511.992188 L 160.757812 680.074219 Z M 137.234375 690.542969 L 77.890625 705.378906 L 44.226562 671.761719 L 59.109375 612.417969 Z M 581.195312 530.863281 C 580.117188 556.40625 559.175781 576.875 533.351562 576.875 C 515.605469 576.875 499.785156 567.015625 491.472656 552.179688 C 523.117188 550.113281 553.308594 542.742188 581.195312 530.863281 Z M 629.507812 528.800781 C 629.507812 581.804688 586.359375 624.953125 533.351562 624.953125 C 488.28125 624.953125 449.828125 593.355469 439.828125 550.726562 C 448.234375 551.757812 456.824219 552.414062 465.464844 552.648438 C 475.464844 581.054688 502.507812 600.914062 533.351562 600.914062 C 573.121094 600.914062 605.46875 568.566406 605.46875 528.800781 C 605.46875 525.652344 605.234375 522.554688 604.859375 519.457031 C 612.371094 515.371094 619.648438 510.910156 626.738281 506.167969 C 628.472656 513.539062 629.507812 521.097656 629.507812 528.800781 Z M 437.199219 329.449219 L 608.753906 157.894531 C 636.550781 189.585938 653.546875 230.996094 653.546875 276.394531 C 653.546875 375.789062 572.652344 456.683594 473.257812 456.683594 C 373.816406 456.683594 292.96875 375.789062 292.96875 276.394531 C 292.96875 177.003906 373.816406 96.105469 473.257812 96.105469 C 518.65625 96.105469 560.019531 113.101562 591.757812 140.898438 L 437.199219 295.457031 L 385.601562 243.859375 L 368.605469 260.855469 Z M 473.257812 23.992188 C 538.519531 23.992188 597.863281 49.109375 642.746094 89.910156 L 608.753906 123.902344 C 572.652344 91.789062 525.277344 72.070312 473.257812 72.070312 C 360.578125 72.070312 268.929688 163.714844 268.929688 276.394531 C 268.929688 389.074219 360.578125 480.722656 473.257812 480.722656 C 585.890625 480.722656 677.585938 389.074219 677.585938 276.394531 C 677.585938 224.375 657.863281 177.003906 625.75 140.898438 L 659.742188 106.90625 C 700.542969 151.742188 725.660156 211.132812 725.660156 276.394531 C 725.660156 415.554688 612.417969 528.800781 473.257812 528.800781 C 334.050781 528.800781 220.851562 415.554688 220.851562 276.394531 C 220.851562 137.1875 334.050781 23.992188 473.257812 23.992188 Z M 699.746094 459.640625 C 696.503906 451.800781 696.316406 443.210938 699.226562 435.320312 C 730.964844 390.34375 749.699219 335.550781 749.699219 276.394531 C 749.699219 204.46875 722.09375 138.925781 676.925781 89.722656 L 746.179688 20.46875 L 729.183594 3.472656 L 659.929688 72.726562 C 610.679688 27.558594 545.136719 -0.046875 473.257812 -0.046875 C 341.46875 -0.046875 230.996094 92.679688 203.433594 216.300781 L 100.660156 216.300781 L 100.660156 240.335938 L 199.257812 240.335938 C 197.707031 252.167969 196.816406 264.1875 196.816406 276.394531 C 196.816406 288.601562 197.707031 300.621094 199.257812 312.453125 L 100.660156 312.453125 L 100.660156 336.492188 L 203.433594 336.492188 C 208.316406 358.371094 215.78125 379.308594 225.546875 398.933594 L 41.691406 582.746094 L 0 749.652344 L 166.90625 707.914062 L 317.007812 557.8125 L 317.007812 576.875 L 336.023438 576.875 C 349.496094 576.875 361.5625 584.90625 366.914062 597.957031 C 372.171875 610.492188 369.355469 624.765625 359.871094 634.296875 L 346.351562 647.769531 L 414.335938 715.753906 L 427.808594 702.28125 C 437.386719 692.75 451.613281 689.980469 464.757812 695.472656 C 477.246094 700.589844 485.277344 712.609375 485.277344 726.082031 L 485.277344 745.144531 L 581.429688 745.144531 L 581.429688 726.082031 C 581.429688 712.609375 589.457031 700.589844 602.511719 695.191406 C 615.046875 689.980469 629.320312 692.75 638.851562 702.28125 L 652.324219 715.753906 L 720.308594 647.769531 L 706.835938 634.296875 C 697.304688 624.765625 694.53125 610.492188 699.980469 597.347656 C 705.144531 584.90625 717.164062 576.875 730.636719 576.875 L 749.699219 576.875 L 749.699219 480.722656 L 730.636719 480.722656 C 717.164062 480.722656 705.144531 472.695312 699.746094 459.640625 " fill-opacity="1" fill-rule="nonzero"/><path fill="#000000" d="M 533.351562 673.03125 C 526.6875 673.03125 521.335938 678.429688 521.335938 685.050781 C 521.335938 691.667969 526.6875 697.070312 533.351562 697.070312 C 539.972656 697.070312 545.371094 691.667969 545.371094 685.050781 C 545.371094 678.429688 539.972656 673.03125 533.351562 673.03125 " fill-opacity="1" fill-rule="nonzero"/><path fill="#000000" d="M 641.527344 624.953125 C 638.425781 624.953125 635.375 626.125 633.027344 628.472656 C 628.332031 633.167969 628.332031 640.773438 633.027344 645.46875 C 635.375 647.816406 638.425781 648.992188 641.527344 648.992188 C 644.578125 648.992188 647.675781 647.816406 650.023438 645.46875 C 654.71875 640.773438 654.71875 633.167969 650.023438 628.472656 C 647.675781 626.125 644.578125 624.953125 641.527344 624.953125 " fill-opacity="1" fill-rule="nonzero"/><path fill="#000000" d="M 677.585938 528.800781 C 677.585938 535.417969 682.9375 540.820312 689.601562 540.820312 C 696.222656 540.820312 701.621094 535.417969 701.621094 528.800781 C 701.621094 522.179688 696.222656 516.78125 689.601562 516.78125 C 682.9375 516.78125 677.585938 522.179688 677.585938 528.800781 " fill-opacity="1" fill-rule="nonzero"/><path fill="#000000" d="M 425.179688 624.953125 C 422.082031 624.953125 419.03125 626.125 416.683594 628.472656 C 411.988281 633.167969 411.988281 640.773438 416.683594 645.46875 C 419.03125 647.816406 422.082031 648.992188 425.179688 648.992188 C 428.230469 648.992188 431.332031 647.816406 433.679688 645.46875 C 438.375 640.773438 438.375 633.167969 433.679688 628.472656 C 431.332031 626.125 428.230469 624.953125 425.179688 624.953125 " fill-opacity="1" fill-rule="nonzero"/></svg>